G04 #@! TF.FileFunction,Legend,Bot*
%FSLAX46Y46*%
G04 Gerber Fmt 4.6, Leading zero omitted, Abs format (unit mm)*
G04 Created by KiCad (PCBNEW 4.0.7) date 11/01/17 14:12:36*
%MOMM*%
%LPD*%
G01*
G04 APERTURE LIST*
%ADD10C,0.076200*%
%ADD11C,0.127000*%
%ADD12C,0.100000*%
%ADD13C,0.010000*%
G04 APERTURE END LIST*
D10*
D11*
X186018714Y-105228571D02*
X186272714Y-105228571D01*
X186272714Y-105627714D02*
X186272714Y-104865714D01*
X185909857Y-104865714D01*
X185619571Y-105627714D02*
X185619571Y-105119714D01*
X185619571Y-104865714D02*
X185655857Y-104902000D01*
X185619571Y-104938286D01*
X185583286Y-104902000D01*
X185619571Y-104865714D01*
X185619571Y-104938286D01*
X184966429Y-105591429D02*
X185039000Y-105627714D01*
X185184143Y-105627714D01*
X185256714Y-105591429D01*
X185293000Y-105518857D01*
X185293000Y-105228571D01*
X185256714Y-105156000D01*
X185184143Y-105119714D01*
X185039000Y-105119714D01*
X184966429Y-105156000D01*
X184930143Y-105228571D01*
X184930143Y-105301143D01*
X185293000Y-105373714D01*
X184494714Y-105627714D02*
X184567286Y-105591429D01*
X184603571Y-105518857D01*
X184603571Y-104865714D01*
X183877857Y-105627714D02*
X183877857Y-104865714D01*
X183877857Y-105591429D02*
X183950428Y-105627714D01*
X184095571Y-105627714D01*
X184168143Y-105591429D01*
X184204428Y-105555143D01*
X184240714Y-105482571D01*
X184240714Y-105264857D01*
X184204428Y-105192286D01*
X184168143Y-105156000D01*
X184095571Y-105119714D01*
X183950428Y-105119714D01*
X183877857Y-105156000D01*
X182934428Y-105627714D02*
X182934428Y-104865714D01*
X182753000Y-104865714D01*
X182644143Y-104902000D01*
X182571571Y-104974571D01*
X182535286Y-105047143D01*
X182499000Y-105192286D01*
X182499000Y-105301143D01*
X182535286Y-105446286D01*
X182571571Y-105518857D01*
X182644143Y-105591429D01*
X182753000Y-105627714D01*
X182934428Y-105627714D01*
X181882143Y-105591429D02*
X181954714Y-105627714D01*
X182099857Y-105627714D01*
X182172428Y-105591429D01*
X182208714Y-105518857D01*
X182208714Y-105228571D01*
X182172428Y-105156000D01*
X182099857Y-105119714D01*
X181954714Y-105119714D01*
X181882143Y-105156000D01*
X181845857Y-105228571D01*
X181845857Y-105301143D01*
X182208714Y-105373714D01*
X181591857Y-105119714D02*
X181410428Y-105627714D01*
X181229000Y-105119714D01*
X180938714Y-105627714D02*
X180938714Y-105119714D01*
X180938714Y-104865714D02*
X180975000Y-104902000D01*
X180938714Y-104938286D01*
X180902429Y-104902000D01*
X180938714Y-104865714D01*
X180938714Y-104938286D01*
X180249286Y-105591429D02*
X180321857Y-105627714D01*
X180467000Y-105627714D01*
X180539572Y-105591429D01*
X180575857Y-105555143D01*
X180612143Y-105482571D01*
X180612143Y-105264857D01*
X180575857Y-105192286D01*
X180539572Y-105156000D01*
X180467000Y-105119714D01*
X180321857Y-105119714D01*
X180249286Y-105156000D01*
X179632429Y-105591429D02*
X179705000Y-105627714D01*
X179850143Y-105627714D01*
X179922714Y-105591429D01*
X179959000Y-105518857D01*
X179959000Y-105228571D01*
X179922714Y-105156000D01*
X179850143Y-105119714D01*
X179705000Y-105119714D01*
X179632429Y-105156000D01*
X179596143Y-105228571D01*
X179596143Y-105301143D01*
X179959000Y-105373714D01*
X178689000Y-105627714D02*
X178689000Y-104865714D01*
X178398715Y-104865714D01*
X178326143Y-104902000D01*
X178289858Y-104938286D01*
X178253572Y-105010857D01*
X178253572Y-105119714D01*
X178289858Y-105192286D01*
X178326143Y-105228571D01*
X178398715Y-105264857D01*
X178689000Y-105264857D01*
X177818143Y-105627714D02*
X177890715Y-105591429D01*
X177927000Y-105555143D01*
X177963286Y-105482571D01*
X177963286Y-105264857D01*
X177927000Y-105192286D01*
X177890715Y-105156000D01*
X177818143Y-105119714D01*
X177709286Y-105119714D01*
X177636715Y-105156000D01*
X177600429Y-105192286D01*
X177564143Y-105264857D01*
X177564143Y-105482571D01*
X177600429Y-105555143D01*
X177636715Y-105591429D01*
X177709286Y-105627714D01*
X177818143Y-105627714D01*
X177310143Y-105119714D02*
X177165000Y-105627714D01*
X177019857Y-105264857D01*
X176874714Y-105627714D01*
X176729571Y-105119714D01*
X176149000Y-105591429D02*
X176221571Y-105627714D01*
X176366714Y-105627714D01*
X176439285Y-105591429D01*
X176475571Y-105518857D01*
X176475571Y-105228571D01*
X176439285Y-105156000D01*
X176366714Y-105119714D01*
X176221571Y-105119714D01*
X176149000Y-105156000D01*
X176112714Y-105228571D01*
X176112714Y-105301143D01*
X176475571Y-105373714D01*
X175786142Y-105627714D02*
X175786142Y-105119714D01*
X175786142Y-105264857D02*
X175749857Y-105192286D01*
X175713571Y-105156000D01*
X175641000Y-105119714D01*
X175568428Y-105119714D01*
X184240712Y-106897714D02*
X184603569Y-106897714D01*
X184603569Y-106135714D01*
X183986712Y-106897714D02*
X183986712Y-106135714D01*
X183732712Y-106680000D01*
X183478712Y-106135714D01*
X183478712Y-106897714D01*
X183152141Y-106208286D02*
X183115855Y-106172000D01*
X183043284Y-106135714D01*
X182861855Y-106135714D01*
X182789284Y-106172000D01*
X182752998Y-106208286D01*
X182716713Y-106280857D01*
X182716713Y-106353429D01*
X182752998Y-106462286D01*
X183188427Y-106897714D01*
X182716713Y-106897714D01*
X182063570Y-106135714D02*
X182208713Y-106135714D01*
X182281284Y-106172000D01*
X182317570Y-106208286D01*
X182390141Y-106317143D01*
X182426427Y-106462286D01*
X182426427Y-106752571D01*
X182390141Y-106825143D01*
X182353856Y-106861429D01*
X182281284Y-106897714D01*
X182136141Y-106897714D01*
X182063570Y-106861429D01*
X182027284Y-106825143D01*
X181990999Y-106752571D01*
X181990999Y-106571143D01*
X182027284Y-106498571D01*
X182063570Y-106462286D01*
X182136141Y-106426000D01*
X182281284Y-106426000D01*
X182353856Y-106462286D01*
X182390141Y-106498571D01*
X182426427Y-106571143D01*
X181700713Y-106208286D02*
X181664427Y-106172000D01*
X181591856Y-106135714D01*
X181410427Y-106135714D01*
X181337856Y-106172000D01*
X181301570Y-106208286D01*
X181265285Y-106280857D01*
X181265285Y-106353429D01*
X181301570Y-106462286D01*
X181736999Y-106897714D01*
X181265285Y-106897714D01*
X180539571Y-106897714D02*
X180974999Y-106897714D01*
X180757285Y-106897714D02*
X180757285Y-106135714D01*
X180829856Y-106244571D01*
X180902428Y-106317143D01*
X180974999Y-106353429D01*
X179668714Y-106208286D02*
X179632428Y-106172000D01*
X179559857Y-106135714D01*
X179378428Y-106135714D01*
X179305857Y-106172000D01*
X179269571Y-106208286D01*
X179233286Y-106280857D01*
X179233286Y-106353429D01*
X179269571Y-106462286D01*
X179705000Y-106897714D01*
X179233286Y-106897714D01*
X178543857Y-106897714D02*
X178906714Y-106897714D01*
X178906714Y-106135714D01*
X178471286Y-106970286D02*
X177890715Y-106970286D01*
X177310144Y-106897714D02*
X177745572Y-106897714D01*
X177527858Y-106897714D02*
X177527858Y-106135714D01*
X177600429Y-106244571D01*
X177673001Y-106317143D01*
X177745572Y-106353429D01*
D12*
G36*
X177543622Y-99713418D02*
X177545762Y-100307076D01*
X177546000Y-100491945D01*
X177547968Y-101132217D01*
X177554635Y-101622453D01*
X177567144Y-101981914D01*
X177586639Y-102229861D01*
X177614265Y-102385554D01*
X177651165Y-102468252D01*
X177664169Y-102481670D01*
X177831404Y-102553142D01*
X177969333Y-102583474D01*
X177969333Y-102129748D01*
X177969333Y-100536371D01*
X177973389Y-100015909D01*
X177984750Y-99566332D01*
X178002205Y-99212665D01*
X178024547Y-98979937D01*
X178048725Y-98893926D01*
X178160173Y-98863092D01*
X178402448Y-98816619D01*
X178738507Y-98761095D01*
X179085892Y-98709485D01*
X179714360Y-98647536D01*
X180441949Y-98619245D01*
X181211863Y-98623497D01*
X181967308Y-98659179D01*
X182651486Y-98725176D01*
X183049333Y-98787237D01*
X183599667Y-98891859D01*
X183622634Y-100513143D01*
X183645601Y-102134426D01*
X183072301Y-102225198D01*
X182736387Y-102277928D01*
X182431576Y-102325002D01*
X182245000Y-102353091D01*
X182004831Y-102370739D01*
X181633475Y-102377161D01*
X181168617Y-102373617D01*
X180647943Y-102361364D01*
X180109138Y-102341660D01*
X179589888Y-102315761D01*
X179127878Y-102284926D01*
X178760794Y-102250412D01*
X178625500Y-102232306D01*
X177969333Y-102129748D01*
X177969333Y-102583474D01*
X178140725Y-102621166D01*
X178564887Y-102683037D01*
X179076644Y-102736051D01*
X179648751Y-102777504D01*
X180253961Y-102804692D01*
X180865031Y-102814910D01*
X181017333Y-102814483D01*
X181502331Y-102809260D01*
X181941111Y-102801201D01*
X182299846Y-102791183D01*
X182544708Y-102780080D01*
X182626000Y-102772816D01*
X183132572Y-102689236D01*
X183540361Y-102606708D01*
X183825538Y-102530632D01*
X183959500Y-102470674D01*
X183996535Y-102392849D01*
X184024694Y-102217790D01*
X184044802Y-101930075D01*
X184057683Y-101514284D01*
X184064163Y-100954996D01*
X184065333Y-100491945D01*
X184064382Y-99875599D01*
X184060423Y-99407164D01*
X184051800Y-99065224D01*
X184036856Y-98828362D01*
X184013934Y-98675160D01*
X183981378Y-98584203D01*
X183937532Y-98534073D01*
X183912688Y-98518597D01*
X183646800Y-98425179D01*
X183241239Y-98345175D01*
X182725227Y-98279830D01*
X182127985Y-98230389D01*
X181478736Y-98198099D01*
X180806702Y-98184204D01*
X180141104Y-98189950D01*
X179511166Y-98216582D01*
X178946109Y-98265346D01*
X178707807Y-98296783D01*
X178342342Y-98348423D01*
X178062238Y-98393352D01*
X177856234Y-98452847D01*
X177713071Y-98548182D01*
X177621488Y-98700632D01*
X177570225Y-98931471D01*
X177548023Y-99261975D01*
X177543622Y-99713418D01*
X177543622Y-99713418D01*
X177543622Y-99713418D01*
G37*
X177543622Y-99713418D02*
X177545762Y-100307076D01*
X177546000Y-100491945D01*
X177547968Y-101132217D01*
X177554635Y-101622453D01*
X177567144Y-101981914D01*
X177586639Y-102229861D01*
X177614265Y-102385554D01*
X177651165Y-102468252D01*
X177664169Y-102481670D01*
X177831404Y-102553142D01*
X177969333Y-102583474D01*
X177969333Y-102129748D01*
X177969333Y-100536371D01*
X177973389Y-100015909D01*
X177984750Y-99566332D01*
X178002205Y-99212665D01*
X178024547Y-98979937D01*
X178048725Y-98893926D01*
X178160173Y-98863092D01*
X178402448Y-98816619D01*
X178738507Y-98761095D01*
X179085892Y-98709485D01*
X179714360Y-98647536D01*
X180441949Y-98619245D01*
X181211863Y-98623497D01*
X181967308Y-98659179D01*
X182651486Y-98725176D01*
X183049333Y-98787237D01*
X183599667Y-98891859D01*
X183622634Y-100513143D01*
X183645601Y-102134426D01*
X183072301Y-102225198D01*
X182736387Y-102277928D01*
X182431576Y-102325002D01*
X182245000Y-102353091D01*
X182004831Y-102370739D01*
X181633475Y-102377161D01*
X181168617Y-102373617D01*
X180647943Y-102361364D01*
X180109138Y-102341660D01*
X179589888Y-102315761D01*
X179127878Y-102284926D01*
X178760794Y-102250412D01*
X178625500Y-102232306D01*
X177969333Y-102129748D01*
X177969333Y-102583474D01*
X178140725Y-102621166D01*
X178564887Y-102683037D01*
X179076644Y-102736051D01*
X179648751Y-102777504D01*
X180253961Y-102804692D01*
X180865031Y-102814910D01*
X181017333Y-102814483D01*
X181502331Y-102809260D01*
X181941111Y-102801201D01*
X182299846Y-102791183D01*
X182544708Y-102780080D01*
X182626000Y-102772816D01*
X183132572Y-102689236D01*
X183540361Y-102606708D01*
X183825538Y-102530632D01*
X183959500Y-102470674D01*
X183996535Y-102392849D01*
X184024694Y-102217790D01*
X184044802Y-101930075D01*
X184057683Y-101514284D01*
X184064163Y-100954996D01*
X184065333Y-100491945D01*
X184064382Y-99875599D01*
X184060423Y-99407164D01*
X184051800Y-99065224D01*
X184036856Y-98828362D01*
X184013934Y-98675160D01*
X183981378Y-98584203D01*
X183937532Y-98534073D01*
X183912688Y-98518597D01*
X183646800Y-98425179D01*
X183241239Y-98345175D01*
X182725227Y-98279830D01*
X182127985Y-98230389D01*
X181478736Y-98198099D01*
X180806702Y-98184204D01*
X180141104Y-98189950D01*
X179511166Y-98216582D01*
X178946109Y-98265346D01*
X178707807Y-98296783D01*
X178342342Y-98348423D01*
X178062238Y-98393352D01*
X177856234Y-98452847D01*
X177713071Y-98548182D01*
X177621488Y-98700632D01*
X177570225Y-98931471D01*
X177548023Y-99261975D01*
X177543622Y-99713418D01*
X177543622Y-99713418D01*
G36*
X180505330Y-100858396D02*
X180552811Y-101241950D01*
X180717553Y-101591481D01*
X180991839Y-101860811D01*
X181133097Y-101934168D01*
X181321433Y-101984105D01*
X181592285Y-102015878D01*
X181981089Y-102034742D01*
X182202667Y-102040393D01*
X182599061Y-102044691D01*
X182937353Y-102040729D01*
X183179130Y-102029450D01*
X183282167Y-102013953D01*
X183371029Y-101896885D01*
X183379116Y-101718760D01*
X183311306Y-101564596D01*
X183254075Y-101524391D01*
X183115273Y-101502378D01*
X182851201Y-101485077D01*
X182505907Y-101474813D01*
X182280409Y-101473000D01*
X181798865Y-101457429D01*
X181462329Y-101403481D01*
X181248728Y-101300299D01*
X181135987Y-101137028D01*
X181102033Y-100902811D01*
X181102000Y-100893455D01*
X181168498Y-100629492D01*
X181373142Y-100442644D01*
X181723658Y-100327320D01*
X181925076Y-100297904D01*
X182200639Y-100262063D01*
X182347307Y-100216056D01*
X182405127Y-100138255D01*
X182414333Y-100033666D01*
X182403369Y-99919268D01*
X182345036Y-99852955D01*
X182201176Y-99818166D01*
X181933631Y-99798341D01*
X181864000Y-99794817D01*
X181447720Y-99798844D01*
X181148020Y-99863245D01*
X181053721Y-99905786D01*
X180757058Y-100150094D01*
X180573837Y-100481037D01*
X180505330Y-100858396D01*
X180505330Y-100858396D01*
X180505330Y-100858396D01*
G37*
X180505330Y-100858396D02*
X180552811Y-101241950D01*
X180717553Y-101591481D01*
X180991839Y-101860811D01*
X181133097Y-101934168D01*
X181321433Y-101984105D01*
X181592285Y-102015878D01*
X181981089Y-102034742D01*
X182202667Y-102040393D01*
X182599061Y-102044691D01*
X182937353Y-102040729D01*
X183179130Y-102029450D01*
X183282167Y-102013953D01*
X183371029Y-101896885D01*
X183379116Y-101718760D01*
X183311306Y-101564596D01*
X183254075Y-101524391D01*
X183115273Y-101502378D01*
X182851201Y-101485077D01*
X182505907Y-101474813D01*
X182280409Y-101473000D01*
X181798865Y-101457429D01*
X181462329Y-101403481D01*
X181248728Y-101300299D01*
X181135987Y-101137028D01*
X181102033Y-100902811D01*
X181102000Y-100893455D01*
X181168498Y-100629492D01*
X181373142Y-100442644D01*
X181723658Y-100327320D01*
X181925076Y-100297904D01*
X182200639Y-100262063D01*
X182347307Y-100216056D01*
X182405127Y-100138255D01*
X182414333Y-100033666D01*
X182403369Y-99919268D01*
X182345036Y-99852955D01*
X182201176Y-99818166D01*
X181933631Y-99798341D01*
X181864000Y-99794817D01*
X181447720Y-99798844D01*
X181148020Y-99863245D01*
X181053721Y-99905786D01*
X180757058Y-100150094D01*
X180573837Y-100481037D01*
X180505330Y-100858396D01*
X180505330Y-100858396D01*
G36*
X178308932Y-100949399D02*
X178328862Y-101472157D01*
X178389661Y-101835069D01*
X178490706Y-102036846D01*
X178631376Y-102076203D01*
X178799067Y-101964066D01*
X178852318Y-101818488D01*
X178886314Y-101511882D01*
X178900324Y-101051537D01*
X178900667Y-100952050D01*
X178909236Y-100554735D01*
X178932370Y-100202407D01*
X178966210Y-99940877D01*
X178994759Y-99835124D01*
X179138325Y-99665654D01*
X179372672Y-99518565D01*
X179418092Y-99499284D01*
X179639162Y-99388786D01*
X179733993Y-99262972D01*
X179747333Y-99157685D01*
X179683361Y-98981243D01*
X179515431Y-98897667D01*
X179279525Y-98904481D01*
X179011626Y-98999205D01*
X178747716Y-99179361D01*
X178693722Y-99230255D01*
X178542440Y-99406985D01*
X178435784Y-99606797D01*
X178366483Y-99862186D01*
X178327263Y-100205649D01*
X178310851Y-100669682D01*
X178308932Y-100949399D01*
X178308932Y-100949399D01*
X178308932Y-100949399D01*
G37*
X178308932Y-100949399D02*
X178328862Y-101472157D01*
X178389661Y-101835069D01*
X178490706Y-102036846D01*
X178631376Y-102076203D01*
X178799067Y-101964066D01*
X178852318Y-101818488D01*
X178886314Y-101511882D01*
X178900324Y-101051537D01*
X178900667Y-100952050D01*
X178909236Y-100554735D01*
X178932370Y-100202407D01*
X178966210Y-99940877D01*
X178994759Y-99835124D01*
X179138325Y-99665654D01*
X179372672Y-99518565D01*
X179418092Y-99499284D01*
X179639162Y-99388786D01*
X179733993Y-99262972D01*
X179747333Y-99157685D01*
X179683361Y-98981243D01*
X179515431Y-98897667D01*
X179279525Y-98904481D01*
X179011626Y-98999205D01*
X178747716Y-99179361D01*
X178693722Y-99230255D01*
X178542440Y-99406985D01*
X178435784Y-99606797D01*
X178366483Y-99862186D01*
X178327263Y-100205649D01*
X178310851Y-100669682D01*
X178308932Y-100949399D01*
X178308932Y-100949399D01*
G36*
X179652801Y-100583520D02*
X179676826Y-100880519D01*
X179728783Y-101090327D01*
X179789667Y-101164951D01*
X179981695Y-101195023D01*
X180102143Y-101098621D01*
X180160889Y-100861874D01*
X180170667Y-100629909D01*
X180205746Y-100134412D01*
X180313015Y-99784937D01*
X180495521Y-99572931D01*
X180559865Y-99537336D01*
X180737306Y-99494401D01*
X181032414Y-99461319D01*
X181393592Y-99443058D01*
X181560233Y-99441000D01*
X181951858Y-99446548D01*
X182216654Y-99468080D01*
X182396902Y-99512927D01*
X182534886Y-99588422D01*
X182572249Y-99616478D01*
X182751246Y-99845739D01*
X182788798Y-100108950D01*
X182681614Y-100355950D01*
X182624688Y-100415854D01*
X182401794Y-100530454D01*
X182052358Y-100601508D01*
X181968521Y-100609644D01*
X181604152Y-100666077D01*
X181403352Y-100763606D01*
X181365192Y-100903155D01*
X181488743Y-101085647D01*
X181489048Y-101085952D01*
X181686147Y-101183949D01*
X182008777Y-101201715D01*
X182468879Y-101139860D01*
X182485249Y-101136719D01*
X182864998Y-100990080D01*
X183143444Y-100738501D01*
X183316504Y-100415686D01*
X183380099Y-100055335D01*
X183330146Y-99691151D01*
X183162565Y-99356837D01*
X182873274Y-99086094D01*
X182742472Y-99012569D01*
X182559140Y-98933187D01*
X182375711Y-98882824D01*
X182150663Y-98856875D01*
X181842472Y-98850734D01*
X181409616Y-98859796D01*
X181374509Y-98860852D01*
X180881514Y-98883266D01*
X180523565Y-98923823D01*
X180266477Y-98994716D01*
X180076068Y-99108137D01*
X179918155Y-99276277D01*
X179820375Y-99415171D01*
X179740495Y-99615154D01*
X179685418Y-99906259D01*
X179655926Y-100243907D01*
X179652801Y-100583520D01*
X179652801Y-100583520D01*
X179652801Y-100583520D01*
G37*
X179652801Y-100583520D02*
X179676826Y-100880519D01*
X179728783Y-101090327D01*
X179789667Y-101164951D01*
X179981695Y-101195023D01*
X180102143Y-101098621D01*
X180160889Y-100861874D01*
X180170667Y-100629909D01*
X180205746Y-100134412D01*
X180313015Y-99784937D01*
X180495521Y-99572931D01*
X180559865Y-99537336D01*
X180737306Y-99494401D01*
X181032414Y-99461319D01*
X181393592Y-99443058D01*
X181560233Y-99441000D01*
X181951858Y-99446548D01*
X182216654Y-99468080D01*
X182396902Y-99512927D01*
X182534886Y-99588422D01*
X182572249Y-99616478D01*
X182751246Y-99845739D01*
X182788798Y-100108950D01*
X182681614Y-100355950D01*
X182624688Y-100415854D01*
X182401794Y-100530454D01*
X182052358Y-100601508D01*
X181968521Y-100609644D01*
X181604152Y-100666077D01*
X181403352Y-100763606D01*
X181365192Y-100903155D01*
X181488743Y-101085647D01*
X181489048Y-101085952D01*
X181686147Y-101183949D01*
X182008777Y-101201715D01*
X182468879Y-101139860D01*
X182485249Y-101136719D01*
X182864998Y-100990080D01*
X183143444Y-100738501D01*
X183316504Y-100415686D01*
X183380099Y-100055335D01*
X183330146Y-99691151D01*
X183162565Y-99356837D01*
X182873274Y-99086094D01*
X182742472Y-99012569D01*
X182559140Y-98933187D01*
X182375711Y-98882824D01*
X182150663Y-98856875D01*
X181842472Y-98850734D01*
X181409616Y-98859796D01*
X181374509Y-98860852D01*
X180881514Y-98883266D01*
X180523565Y-98923823D01*
X180266477Y-98994716D01*
X180076068Y-99108137D01*
X179918155Y-99276277D01*
X179820375Y-99415171D01*
X179740495Y-99615154D01*
X179685418Y-99906259D01*
X179655926Y-100243907D01*
X179652801Y-100583520D01*
X179652801Y-100583520D01*
D13*
G36*
X186969371Y-115680066D02*
X186929889Y-115680467D01*
X186814200Y-115683259D01*
X186717311Y-115691550D01*
X186635919Y-115706232D01*
X186566723Y-115728193D01*
X186506420Y-115758322D01*
X186451708Y-115797510D01*
X186432167Y-115814532D01*
X186399750Y-115854363D01*
X186370520Y-115908413D01*
X186347991Y-115968323D01*
X186335679Y-116025739D01*
X186334400Y-116046956D01*
X186342417Y-116105769D01*
X186363899Y-116170013D01*
X186394999Y-116230821D01*
X186431866Y-116279330D01*
X186437854Y-116285182D01*
X186488579Y-116326321D01*
X186544125Y-116358435D01*
X186607696Y-116382365D01*
X186682494Y-116398953D01*
X186771722Y-116409041D01*
X186878582Y-116413469D01*
X186927528Y-116413845D01*
X186989762Y-116413545D01*
X187033528Y-116412292D01*
X187062931Y-116409554D01*
X187082079Y-116404801D01*
X187095077Y-116397501D01*
X187102045Y-116391267D01*
X187108626Y-116383694D01*
X187113788Y-116373924D01*
X187117703Y-116359340D01*
X187120543Y-116337326D01*
X187122480Y-116305264D01*
X187123684Y-116260536D01*
X187124328Y-116200526D01*
X187124583Y-116122617D01*
X187124622Y-116046956D01*
X187124870Y-115946041D01*
X187124817Y-115865427D01*
X187123857Y-115826822D01*
X186977867Y-115826822D01*
X186977867Y-116267089D01*
X186884734Y-116267004D01*
X186828693Y-116265396D01*
X186769999Y-116261256D01*
X186721028Y-116255464D01*
X186719538Y-116255226D01*
X186640392Y-116236090D01*
X186579002Y-116206287D01*
X186532305Y-116163878D01*
X186502635Y-116117961D01*
X186484353Y-116067026D01*
X186485771Y-116019200D01*
X186506988Y-115967933D01*
X186548489Y-115914899D01*
X186605998Y-115875600D01*
X186680750Y-115849331D01*
X186730708Y-115840035D01*
X186787416Y-115833507D01*
X186847519Y-115828782D01*
X186898639Y-115826817D01*
X186901667Y-115826808D01*
X186977867Y-115826822D01*
X187123857Y-115826822D01*
X187123260Y-115802851D01*
X187118998Y-115756055D01*
X187110830Y-115722778D01*
X187097556Y-115700759D01*
X187077974Y-115687739D01*
X187050883Y-115681457D01*
X187015082Y-115679653D01*
X186969371Y-115680066D01*
X186969371Y-115680066D01*
G37*
X186969371Y-115680066D02*
X186929889Y-115680467D01*
X186814200Y-115683259D01*
X186717311Y-115691550D01*
X186635919Y-115706232D01*
X186566723Y-115728193D01*
X186506420Y-115758322D01*
X186451708Y-115797510D01*
X186432167Y-115814532D01*
X186399750Y-115854363D01*
X186370520Y-115908413D01*
X186347991Y-115968323D01*
X186335679Y-116025739D01*
X186334400Y-116046956D01*
X186342417Y-116105769D01*
X186363899Y-116170013D01*
X186394999Y-116230821D01*
X186431866Y-116279330D01*
X186437854Y-116285182D01*
X186488579Y-116326321D01*
X186544125Y-116358435D01*
X186607696Y-116382365D01*
X186682494Y-116398953D01*
X186771722Y-116409041D01*
X186878582Y-116413469D01*
X186927528Y-116413845D01*
X186989762Y-116413545D01*
X187033528Y-116412292D01*
X187062931Y-116409554D01*
X187082079Y-116404801D01*
X187095077Y-116397501D01*
X187102045Y-116391267D01*
X187108626Y-116383694D01*
X187113788Y-116373924D01*
X187117703Y-116359340D01*
X187120543Y-116337326D01*
X187122480Y-116305264D01*
X187123684Y-116260536D01*
X187124328Y-116200526D01*
X187124583Y-116122617D01*
X187124622Y-116046956D01*
X187124870Y-115946041D01*
X187124817Y-115865427D01*
X187123857Y-115826822D01*
X186977867Y-115826822D01*
X186977867Y-116267089D01*
X186884734Y-116267004D01*
X186828693Y-116265396D01*
X186769999Y-116261256D01*
X186721028Y-116255464D01*
X186719538Y-116255226D01*
X186640392Y-116236090D01*
X186579002Y-116206287D01*
X186532305Y-116163878D01*
X186502635Y-116117961D01*
X186484353Y-116067026D01*
X186485771Y-116019200D01*
X186506988Y-115967933D01*
X186548489Y-115914899D01*
X186605998Y-115875600D01*
X186680750Y-115849331D01*
X186730708Y-115840035D01*
X186787416Y-115833507D01*
X186847519Y-115828782D01*
X186898639Y-115826817D01*
X186901667Y-115826808D01*
X186977867Y-115826822D01*
X187123857Y-115826822D01*
X187123260Y-115802851D01*
X187118998Y-115756055D01*
X187110830Y-115722778D01*
X187097556Y-115700759D01*
X187077974Y-115687739D01*
X187050883Y-115681457D01*
X187015082Y-115679653D01*
X186969371Y-115680066D01*
G36*
X185560794Y-115680146D02*
X185491386Y-115680518D01*
X185438997Y-115681385D01*
X185400847Y-115682946D01*
X185374159Y-115685403D01*
X185356153Y-115688957D01*
X185344049Y-115693810D01*
X185335069Y-115700161D01*
X185331818Y-115703084D01*
X185312043Y-115734142D01*
X185308482Y-115769828D01*
X185321491Y-115801510D01*
X185327506Y-115807913D01*
X185337235Y-115814121D01*
X185352901Y-115818910D01*
X185377408Y-115822514D01*
X185413661Y-115825164D01*
X185464565Y-115827095D01*
X185533026Y-115828539D01*
X185595617Y-115829418D01*
X185843334Y-115832467D01*
X185846719Y-115897378D01*
X185850105Y-115962289D01*
X185681958Y-115962289D01*
X185608959Y-115962919D01*
X185555517Y-115965553D01*
X185518628Y-115971309D01*
X185495288Y-115981304D01*
X185482494Y-115996656D01*
X185477242Y-116018482D01*
X185476445Y-116038738D01*
X185478923Y-116063592D01*
X185488277Y-116081906D01*
X185507383Y-116094637D01*
X185539118Y-116102741D01*
X185586359Y-116107176D01*
X185651983Y-116108899D01*
X185687801Y-116109045D01*
X185848978Y-116109045D01*
X185848978Y-116267089D01*
X185600622Y-116267089D01*
X185519213Y-116267202D01*
X185457342Y-116267712D01*
X185411968Y-116268870D01*
X185380054Y-116270930D01*
X185358559Y-116274146D01*
X185344443Y-116278772D01*
X185334668Y-116285059D01*
X185329689Y-116289667D01*
X185312610Y-116316560D01*
X185307111Y-116340467D01*
X185314963Y-116369667D01*
X185329689Y-116391267D01*
X185337546Y-116398066D01*
X185347688Y-116403346D01*
X185362844Y-116407298D01*
X185385741Y-116410113D01*
X185419109Y-116411982D01*
X185465675Y-116413098D01*
X185528167Y-116413651D01*
X185609314Y-116413833D01*
X185651422Y-116413845D01*
X185741598Y-116413765D01*
X185811924Y-116413398D01*
X185865129Y-116412552D01*
X185903940Y-116411036D01*
X185931087Y-116408659D01*
X185949298Y-116405229D01*
X185961300Y-116400554D01*
X185969822Y-116394444D01*
X185973156Y-116391267D01*
X185979755Y-116383670D01*
X185984927Y-116373870D01*
X185988846Y-116359239D01*
X185991684Y-116337152D01*
X185993615Y-116304982D01*
X185994812Y-116260103D01*
X185995448Y-116199889D01*
X185995697Y-116121713D01*
X185995734Y-116048923D01*
X185995700Y-115955707D01*
X185995465Y-115882431D01*
X185994830Y-115826458D01*
X185993594Y-115785151D01*
X185991556Y-115755872D01*
X185988517Y-115735984D01*
X185984277Y-115722850D01*
X185978635Y-115713832D01*
X185971391Y-115706293D01*
X185969606Y-115704612D01*
X185960945Y-115697172D01*
X185950882Y-115691409D01*
X185936625Y-115687112D01*
X185915383Y-115684064D01*
X185884364Y-115682051D01*
X185840777Y-115680860D01*
X185781831Y-115680275D01*
X185704734Y-115680083D01*
X185650001Y-115680067D01*
X185560794Y-115680146D01*
X185560794Y-115680146D01*
G37*
X185560794Y-115680146D02*
X185491386Y-115680518D01*
X185438997Y-115681385D01*
X185400847Y-115682946D01*
X185374159Y-115685403D01*
X185356153Y-115688957D01*
X185344049Y-115693810D01*
X185335069Y-115700161D01*
X185331818Y-115703084D01*
X185312043Y-115734142D01*
X185308482Y-115769828D01*
X185321491Y-115801510D01*
X185327506Y-115807913D01*
X185337235Y-115814121D01*
X185352901Y-115818910D01*
X185377408Y-115822514D01*
X185413661Y-115825164D01*
X185464565Y-115827095D01*
X185533026Y-115828539D01*
X185595617Y-115829418D01*
X185843334Y-115832467D01*
X185846719Y-115897378D01*
X185850105Y-115962289D01*
X185681958Y-115962289D01*
X185608959Y-115962919D01*
X185555517Y-115965553D01*
X185518628Y-115971309D01*
X185495288Y-115981304D01*
X185482494Y-115996656D01*
X185477242Y-116018482D01*
X185476445Y-116038738D01*
X185478923Y-116063592D01*
X185488277Y-116081906D01*
X185507383Y-116094637D01*
X185539118Y-116102741D01*
X185586359Y-116107176D01*
X185651983Y-116108899D01*
X185687801Y-116109045D01*
X185848978Y-116109045D01*
X185848978Y-116267089D01*
X185600622Y-116267089D01*
X185519213Y-116267202D01*
X185457342Y-116267712D01*
X185411968Y-116268870D01*
X185380054Y-116270930D01*
X185358559Y-116274146D01*
X185344443Y-116278772D01*
X185334668Y-116285059D01*
X185329689Y-116289667D01*
X185312610Y-116316560D01*
X185307111Y-116340467D01*
X185314963Y-116369667D01*
X185329689Y-116391267D01*
X185337546Y-116398066D01*
X185347688Y-116403346D01*
X185362844Y-116407298D01*
X185385741Y-116410113D01*
X185419109Y-116411982D01*
X185465675Y-116413098D01*
X185528167Y-116413651D01*
X185609314Y-116413833D01*
X185651422Y-116413845D01*
X185741598Y-116413765D01*
X185811924Y-116413398D01*
X185865129Y-116412552D01*
X185903940Y-116411036D01*
X185931087Y-116408659D01*
X185949298Y-116405229D01*
X185961300Y-116400554D01*
X185969822Y-116394444D01*
X185973156Y-116391267D01*
X185979755Y-116383670D01*
X185984927Y-116373870D01*
X185988846Y-116359239D01*
X185991684Y-116337152D01*
X185993615Y-116304982D01*
X185994812Y-116260103D01*
X185995448Y-116199889D01*
X185995697Y-116121713D01*
X185995734Y-116048923D01*
X185995700Y-115955707D01*
X185995465Y-115882431D01*
X185994830Y-115826458D01*
X185993594Y-115785151D01*
X185991556Y-115755872D01*
X185988517Y-115735984D01*
X185984277Y-115722850D01*
X185978635Y-115713832D01*
X185971391Y-115706293D01*
X185969606Y-115704612D01*
X185960945Y-115697172D01*
X185950882Y-115691409D01*
X185936625Y-115687112D01*
X185915383Y-115684064D01*
X185884364Y-115682051D01*
X185840777Y-115680860D01*
X185781831Y-115680275D01*
X185704734Y-115680083D01*
X185650001Y-115680067D01*
X185560794Y-115680146D01*
G36*
X184539703Y-115681351D02*
X184464888Y-115686581D01*
X184395306Y-115694750D01*
X184335002Y-115705550D01*
X184288020Y-115718673D01*
X184258406Y-115733813D01*
X184253860Y-115738269D01*
X184238054Y-115772850D01*
X184242847Y-115808351D01*
X184267364Y-115838725D01*
X184268534Y-115839596D01*
X184282954Y-115848954D01*
X184298008Y-115853876D01*
X184319005Y-115854473D01*
X184351257Y-115850861D01*
X184400073Y-115843154D01*
X184404000Y-115842505D01*
X184476739Y-115833569D01*
X184555217Y-115829161D01*
X184633927Y-115829119D01*
X184707361Y-115833279D01*
X184770011Y-115841479D01*
X184816370Y-115853557D01*
X184819416Y-115854771D01*
X184853048Y-115873615D01*
X184864864Y-115892685D01*
X184855614Y-115911439D01*
X184826047Y-115929337D01*
X184776911Y-115945837D01*
X184708957Y-115960396D01*
X184663645Y-115967406D01*
X184569456Y-115980889D01*
X184494544Y-115993214D01*
X184435717Y-116005449D01*
X184389785Y-116018661D01*
X184353555Y-116033917D01*
X184323838Y-116052285D01*
X184297442Y-116074831D01*
X184276230Y-116096971D01*
X184251065Y-116127819D01*
X184238681Y-116154345D01*
X184234808Y-116187026D01*
X184234667Y-116198995D01*
X184237576Y-116238712D01*
X184249202Y-116268259D01*
X184269323Y-116294486D01*
X184310216Y-116334576D01*
X184355817Y-116365149D01*
X184409513Y-116387203D01*
X184474692Y-116401735D01*
X184554744Y-116409741D01*
X184653057Y-116412218D01*
X184669289Y-116412177D01*
X184734849Y-116410818D01*
X184799866Y-116407730D01*
X184857252Y-116403356D01*
X184899922Y-116398140D01*
X184903372Y-116397541D01*
X184945796Y-116387491D01*
X184981780Y-116374796D01*
X185002150Y-116363190D01*
X185021107Y-116332572D01*
X185022427Y-116296918D01*
X185006085Y-116265144D01*
X185002429Y-116261551D01*
X184987315Y-116250876D01*
X184968415Y-116246276D01*
X184939162Y-116247059D01*
X184903651Y-116251127D01*
X184863970Y-116254762D01*
X184808345Y-116257828D01*
X184743406Y-116260053D01*
X184675785Y-116261164D01*
X184658000Y-116261237D01*
X184590128Y-116260964D01*
X184540454Y-116259646D01*
X184504610Y-116256827D01*
X184478224Y-116252050D01*
X184456926Y-116244857D01*
X184444126Y-116238867D01*
X184416000Y-116222233D01*
X184398068Y-116207168D01*
X184395447Y-116202897D01*
X184400976Y-116185263D01*
X184427260Y-116168192D01*
X184472478Y-116152458D01*
X184534808Y-116138838D01*
X184553171Y-116135804D01*
X184649090Y-116120738D01*
X184725641Y-116108146D01*
X184785780Y-116097111D01*
X184832460Y-116086720D01*
X184868637Y-116076056D01*
X184897265Y-116064205D01*
X184921298Y-116050251D01*
X184943692Y-116033281D01*
X184967402Y-116012378D01*
X184975380Y-116005049D01*
X185003353Y-115977699D01*
X185018160Y-115956029D01*
X185023952Y-115931232D01*
X185024889Y-115899983D01*
X185014575Y-115838705D01*
X184983752Y-115786640D01*
X184932595Y-115743958D01*
X184861283Y-115710825D01*
X184810400Y-115695964D01*
X184755100Y-115686366D01*
X184688853Y-115680936D01*
X184615706Y-115679367D01*
X184539703Y-115681351D01*
X184539703Y-115681351D01*
G37*
X184539703Y-115681351D02*
X184464888Y-115686581D01*
X184395306Y-115694750D01*
X184335002Y-115705550D01*
X184288020Y-115718673D01*
X184258406Y-115733813D01*
X184253860Y-115738269D01*
X184238054Y-115772850D01*
X184242847Y-115808351D01*
X184267364Y-115838725D01*
X184268534Y-115839596D01*
X184282954Y-115848954D01*
X184298008Y-115853876D01*
X184319005Y-115854473D01*
X184351257Y-115850861D01*
X184400073Y-115843154D01*
X184404000Y-115842505D01*
X184476739Y-115833569D01*
X184555217Y-115829161D01*
X184633927Y-115829119D01*
X184707361Y-115833279D01*
X184770011Y-115841479D01*
X184816370Y-115853557D01*
X184819416Y-115854771D01*
X184853048Y-115873615D01*
X184864864Y-115892685D01*
X184855614Y-115911439D01*
X184826047Y-115929337D01*
X184776911Y-115945837D01*
X184708957Y-115960396D01*
X184663645Y-115967406D01*
X184569456Y-115980889D01*
X184494544Y-115993214D01*
X184435717Y-116005449D01*
X184389785Y-116018661D01*
X184353555Y-116033917D01*
X184323838Y-116052285D01*
X184297442Y-116074831D01*
X184276230Y-116096971D01*
X184251065Y-116127819D01*
X184238681Y-116154345D01*
X184234808Y-116187026D01*
X184234667Y-116198995D01*
X184237576Y-116238712D01*
X184249202Y-116268259D01*
X184269323Y-116294486D01*
X184310216Y-116334576D01*
X184355817Y-116365149D01*
X184409513Y-116387203D01*
X184474692Y-116401735D01*
X184554744Y-116409741D01*
X184653057Y-116412218D01*
X184669289Y-116412177D01*
X184734849Y-116410818D01*
X184799866Y-116407730D01*
X184857252Y-116403356D01*
X184899922Y-116398140D01*
X184903372Y-116397541D01*
X184945796Y-116387491D01*
X184981780Y-116374796D01*
X185002150Y-116363190D01*
X185021107Y-116332572D01*
X185022427Y-116296918D01*
X185006085Y-116265144D01*
X185002429Y-116261551D01*
X184987315Y-116250876D01*
X184968415Y-116246276D01*
X184939162Y-116247059D01*
X184903651Y-116251127D01*
X184863970Y-116254762D01*
X184808345Y-116257828D01*
X184743406Y-116260053D01*
X184675785Y-116261164D01*
X184658000Y-116261237D01*
X184590128Y-116260964D01*
X184540454Y-116259646D01*
X184504610Y-116256827D01*
X184478224Y-116252050D01*
X184456926Y-116244857D01*
X184444126Y-116238867D01*
X184416000Y-116222233D01*
X184398068Y-116207168D01*
X184395447Y-116202897D01*
X184400976Y-116185263D01*
X184427260Y-116168192D01*
X184472478Y-116152458D01*
X184534808Y-116138838D01*
X184553171Y-116135804D01*
X184649090Y-116120738D01*
X184725641Y-116108146D01*
X184785780Y-116097111D01*
X184832460Y-116086720D01*
X184868637Y-116076056D01*
X184897265Y-116064205D01*
X184921298Y-116050251D01*
X184943692Y-116033281D01*
X184967402Y-116012378D01*
X184975380Y-116005049D01*
X185003353Y-115977699D01*
X185018160Y-115956029D01*
X185023952Y-115931232D01*
X185024889Y-115899983D01*
X185014575Y-115838705D01*
X184983752Y-115786640D01*
X184932595Y-115743958D01*
X184861283Y-115710825D01*
X184810400Y-115695964D01*
X184755100Y-115686366D01*
X184688853Y-115680936D01*
X184615706Y-115679367D01*
X184539703Y-115681351D01*
G36*
X183771822Y-115702645D02*
X183765242Y-115710218D01*
X183760079Y-115719987D01*
X183756164Y-115734571D01*
X183753324Y-115756585D01*
X183751387Y-115788648D01*
X183750183Y-115833375D01*
X183749539Y-115893385D01*
X183749284Y-115971294D01*
X183749245Y-116046956D01*
X183749314Y-116140802D01*
X183749638Y-116214689D01*
X183750386Y-116271232D01*
X183751732Y-116313049D01*
X183753846Y-116342757D01*
X183756900Y-116362973D01*
X183761066Y-116376314D01*
X183766516Y-116385398D01*
X183771822Y-116391267D01*
X183804826Y-116410947D01*
X183839991Y-116409181D01*
X183871455Y-116387717D01*
X183878684Y-116379337D01*
X183884334Y-116369614D01*
X183888599Y-116355861D01*
X183891673Y-116335389D01*
X183893752Y-116305512D01*
X183895030Y-116263541D01*
X183895701Y-116206789D01*
X183895959Y-116132567D01*
X183896000Y-116048537D01*
X183896000Y-115735485D01*
X183868291Y-115707776D01*
X183834137Y-115684463D01*
X183801006Y-115683623D01*
X183771822Y-115702645D01*
X183771822Y-115702645D01*
G37*
X183771822Y-115702645D02*
X183765242Y-115710218D01*
X183760079Y-115719987D01*
X183756164Y-115734571D01*
X183753324Y-115756585D01*
X183751387Y-115788648D01*
X183750183Y-115833375D01*
X183749539Y-115893385D01*
X183749284Y-115971294D01*
X183749245Y-116046956D01*
X183749314Y-116140802D01*
X183749638Y-116214689D01*
X183750386Y-116271232D01*
X183751732Y-116313049D01*
X183753846Y-116342757D01*
X183756900Y-116362973D01*
X183761066Y-116376314D01*
X183766516Y-116385398D01*
X183771822Y-116391267D01*
X183804826Y-116410947D01*
X183839991Y-116409181D01*
X183871455Y-116387717D01*
X183878684Y-116379337D01*
X183884334Y-116369614D01*
X183888599Y-116355861D01*
X183891673Y-116335389D01*
X183893752Y-116305512D01*
X183895030Y-116263541D01*
X183895701Y-116206789D01*
X183895959Y-116132567D01*
X183896000Y-116048537D01*
X183896000Y-115735485D01*
X183868291Y-115707776D01*
X183834137Y-115684463D01*
X183801006Y-115683623D01*
X183771822Y-115702645D01*
G36*
X182798081Y-115685599D02*
X182729565Y-115697095D01*
X182676943Y-115714967D01*
X182642708Y-115738499D01*
X182633379Y-115751924D01*
X182623893Y-115783148D01*
X182630277Y-115811395D01*
X182650430Y-115838182D01*
X182681745Y-115850713D01*
X182727183Y-115849696D01*
X182762326Y-115842906D01*
X182840419Y-115829971D01*
X182920226Y-115828742D01*
X183009555Y-115839241D01*
X183034229Y-115843690D01*
X183117291Y-115867108D01*
X183182273Y-115901945D01*
X183228461Y-115947604D01*
X183255145Y-116003494D01*
X183260663Y-116032388D01*
X183257051Y-116091012D01*
X183233729Y-116142879D01*
X183192824Y-116186978D01*
X183136459Y-116222299D01*
X183066760Y-116247829D01*
X182985852Y-116262559D01*
X182895860Y-116265478D01*
X182798910Y-116255575D01*
X182793436Y-116254641D01*
X182754875Y-116247459D01*
X182733494Y-116240521D01*
X182724227Y-116230227D01*
X182722006Y-116212976D01*
X182721956Y-116203841D01*
X182721956Y-116165489D01*
X182790431Y-116165489D01*
X182850900Y-116161347D01*
X182892165Y-116148147D01*
X182916175Y-116124730D01*
X182924877Y-116089936D01*
X182924983Y-116085394D01*
X182919892Y-116055654D01*
X182902433Y-116034419D01*
X182869939Y-116020366D01*
X182819743Y-116012173D01*
X182771123Y-116009161D01*
X182700456Y-116007433D01*
X182649198Y-116010070D01*
X182614239Y-116019800D01*
X182592470Y-116039353D01*
X182580780Y-116071456D01*
X182576060Y-116118838D01*
X182575200Y-116181071D01*
X182576609Y-116250535D01*
X182580848Y-116297786D01*
X182587936Y-116323012D01*
X182589311Y-116324988D01*
X182628228Y-116356508D01*
X182685286Y-116381470D01*
X182756869Y-116399340D01*
X182839358Y-116409586D01*
X182929139Y-116411673D01*
X183022592Y-116405068D01*
X183077556Y-116396956D01*
X183163766Y-116372554D01*
X183243892Y-116332662D01*
X183310977Y-116280887D01*
X183321173Y-116270539D01*
X183354302Y-116227035D01*
X183384194Y-116173118D01*
X183407357Y-116116592D01*
X183420298Y-116065259D01*
X183421858Y-116045544D01*
X183415218Y-116004419D01*
X183397568Y-115953252D01*
X183372297Y-115899394D01*
X183342789Y-115850195D01*
X183316719Y-115817334D01*
X183255765Y-115768452D01*
X183176969Y-115729545D01*
X183083157Y-115701494D01*
X182977150Y-115685179D01*
X182880000Y-115681192D01*
X182798081Y-115685599D01*
X182798081Y-115685599D01*
G37*
X182798081Y-115685599D02*
X182729565Y-115697095D01*
X182676943Y-115714967D01*
X182642708Y-115738499D01*
X182633379Y-115751924D01*
X182623893Y-115783148D01*
X182630277Y-115811395D01*
X182650430Y-115838182D01*
X182681745Y-115850713D01*
X182727183Y-115849696D01*
X182762326Y-115842906D01*
X182840419Y-115829971D01*
X182920226Y-115828742D01*
X183009555Y-115839241D01*
X183034229Y-115843690D01*
X183117291Y-115867108D01*
X183182273Y-115901945D01*
X183228461Y-115947604D01*
X183255145Y-116003494D01*
X183260663Y-116032388D01*
X183257051Y-116091012D01*
X183233729Y-116142879D01*
X183192824Y-116186978D01*
X183136459Y-116222299D01*
X183066760Y-116247829D01*
X182985852Y-116262559D01*
X182895860Y-116265478D01*
X182798910Y-116255575D01*
X182793436Y-116254641D01*
X182754875Y-116247459D01*
X182733494Y-116240521D01*
X182724227Y-116230227D01*
X182722006Y-116212976D01*
X182721956Y-116203841D01*
X182721956Y-116165489D01*
X182790431Y-116165489D01*
X182850900Y-116161347D01*
X182892165Y-116148147D01*
X182916175Y-116124730D01*
X182924877Y-116089936D01*
X182924983Y-116085394D01*
X182919892Y-116055654D01*
X182902433Y-116034419D01*
X182869939Y-116020366D01*
X182819743Y-116012173D01*
X182771123Y-116009161D01*
X182700456Y-116007433D01*
X182649198Y-116010070D01*
X182614239Y-116019800D01*
X182592470Y-116039353D01*
X182580780Y-116071456D01*
X182576060Y-116118838D01*
X182575200Y-116181071D01*
X182576609Y-116250535D01*
X182580848Y-116297786D01*
X182587936Y-116323012D01*
X182589311Y-116324988D01*
X182628228Y-116356508D01*
X182685286Y-116381470D01*
X182756869Y-116399340D01*
X182839358Y-116409586D01*
X182929139Y-116411673D01*
X183022592Y-116405068D01*
X183077556Y-116396956D01*
X183163766Y-116372554D01*
X183243892Y-116332662D01*
X183310977Y-116280887D01*
X183321173Y-116270539D01*
X183354302Y-116227035D01*
X183384194Y-116173118D01*
X183407357Y-116116592D01*
X183420298Y-116065259D01*
X183421858Y-116045544D01*
X183415218Y-116004419D01*
X183397568Y-115953252D01*
X183372297Y-115899394D01*
X183342789Y-115850195D01*
X183316719Y-115817334D01*
X183255765Y-115768452D01*
X183176969Y-115729545D01*
X183083157Y-115701494D01*
X182977150Y-115685179D01*
X182880000Y-115681192D01*
X182798081Y-115685599D01*
G36*
X182148114Y-115684448D02*
X182124548Y-115698273D01*
X182093735Y-115720881D01*
X182054078Y-115753338D01*
X182003980Y-115796708D01*
X181941843Y-115852058D01*
X181866072Y-115920451D01*
X181779334Y-115999084D01*
X181598711Y-116162878D01*
X181593067Y-115943029D01*
X181591029Y-115867351D01*
X181589063Y-115810994D01*
X181586734Y-115770706D01*
X181583606Y-115743235D01*
X181579245Y-115725329D01*
X181573216Y-115713737D01*
X181565084Y-115705208D01*
X181560772Y-115701623D01*
X181526241Y-115682670D01*
X181493383Y-115685441D01*
X181467318Y-115701633D01*
X181440667Y-115723199D01*
X181437352Y-116038151D01*
X181436435Y-116130779D01*
X181435968Y-116203544D01*
X181436113Y-116259161D01*
X181437032Y-116300342D01*
X181438887Y-116329803D01*
X181441839Y-116350255D01*
X181446050Y-116364413D01*
X181451682Y-116374991D01*
X181457927Y-116383474D01*
X181471439Y-116399207D01*
X181484883Y-116409636D01*
X181500124Y-116413639D01*
X181519026Y-116410094D01*
X181543455Y-116397879D01*
X181575273Y-116375871D01*
X181616348Y-116342949D01*
X181668542Y-116297991D01*
X181733722Y-116239875D01*
X181807556Y-116173099D01*
X182072845Y-115932458D01*
X182078489Y-116151589D01*
X182080531Y-116227128D01*
X182082502Y-116283354D01*
X182084839Y-116323524D01*
X182087981Y-116350896D01*
X182092364Y-116368728D01*
X182098424Y-116380279D01*
X182106600Y-116388807D01*
X182110784Y-116392282D01*
X182147765Y-116411372D01*
X182182708Y-116408493D01*
X182213136Y-116384100D01*
X182220097Y-116374286D01*
X182225523Y-116362826D01*
X182229603Y-116346968D01*
X182232529Y-116323963D01*
X182234492Y-116291062D01*
X182235683Y-116245516D01*
X182236292Y-116184573D01*
X182236511Y-116105486D01*
X182236534Y-116046956D01*
X182236460Y-115955407D01*
X182236113Y-115883687D01*
X182235301Y-115829045D01*
X182233833Y-115788732D01*
X182231519Y-115759998D01*
X182228167Y-115740093D01*
X182223588Y-115726268D01*
X182217589Y-115715772D01*
X182213136Y-115709811D01*
X182201850Y-115695691D01*
X182191301Y-115685029D01*
X182179893Y-115678892D01*
X182166030Y-115678343D01*
X182148114Y-115684448D01*
X182148114Y-115684448D01*
G37*
X182148114Y-115684448D02*
X182124548Y-115698273D01*
X182093735Y-115720881D01*
X182054078Y-115753338D01*
X182003980Y-115796708D01*
X181941843Y-115852058D01*
X181866072Y-115920451D01*
X181779334Y-115999084D01*
X181598711Y-116162878D01*
X181593067Y-115943029D01*
X181591029Y-115867351D01*
X181589063Y-115810994D01*
X181586734Y-115770706D01*
X181583606Y-115743235D01*
X181579245Y-115725329D01*
X181573216Y-115713737D01*
X181565084Y-115705208D01*
X181560772Y-115701623D01*
X181526241Y-115682670D01*
X181493383Y-115685441D01*
X181467318Y-115701633D01*
X181440667Y-115723199D01*
X181437352Y-116038151D01*
X181436435Y-116130779D01*
X181435968Y-116203544D01*
X181436113Y-116259161D01*
X181437032Y-116300342D01*
X181438887Y-116329803D01*
X181441839Y-116350255D01*
X181446050Y-116364413D01*
X181451682Y-116374991D01*
X181457927Y-116383474D01*
X181471439Y-116399207D01*
X181484883Y-116409636D01*
X181500124Y-116413639D01*
X181519026Y-116410094D01*
X181543455Y-116397879D01*
X181575273Y-116375871D01*
X181616348Y-116342949D01*
X181668542Y-116297991D01*
X181733722Y-116239875D01*
X181807556Y-116173099D01*
X182072845Y-115932458D01*
X182078489Y-116151589D01*
X182080531Y-116227128D01*
X182082502Y-116283354D01*
X182084839Y-116323524D01*
X182087981Y-116350896D01*
X182092364Y-116368728D01*
X182098424Y-116380279D01*
X182106600Y-116388807D01*
X182110784Y-116392282D01*
X182147765Y-116411372D01*
X182182708Y-116408493D01*
X182213136Y-116384100D01*
X182220097Y-116374286D01*
X182225523Y-116362826D01*
X182229603Y-116346968D01*
X182232529Y-116323963D01*
X182234492Y-116291062D01*
X182235683Y-116245516D01*
X182236292Y-116184573D01*
X182236511Y-116105486D01*
X182236534Y-116046956D01*
X182236460Y-115955407D01*
X182236113Y-115883687D01*
X182235301Y-115829045D01*
X182233833Y-115788732D01*
X182231519Y-115759998D01*
X182228167Y-115740093D01*
X182223588Y-115726268D01*
X182217589Y-115715772D01*
X182213136Y-115709811D01*
X182201850Y-115695691D01*
X182191301Y-115685029D01*
X182179893Y-115678892D01*
X182166030Y-115678343D01*
X182148114Y-115684448D01*
G36*
X180617657Y-115680260D02*
X180541299Y-115681174D01*
X180482783Y-115683311D01*
X180439745Y-115687175D01*
X180409817Y-115693267D01*
X180390632Y-115702090D01*
X180379824Y-115714146D01*
X180375027Y-115729939D01*
X180373873Y-115749970D01*
X180373867Y-115752335D01*
X180374869Y-115774992D01*
X180379604Y-115792503D01*
X180390667Y-115805574D01*
X180410652Y-115814913D01*
X180442154Y-115821227D01*
X180487768Y-115825222D01*
X180550087Y-115827606D01*
X180631707Y-115829086D01*
X180656723Y-115829414D01*
X180898800Y-115832467D01*
X180902186Y-115897378D01*
X180905571Y-115962289D01*
X180737424Y-115962289D01*
X180671734Y-115962531D01*
X180624828Y-115963556D01*
X180592917Y-115965811D01*
X180572209Y-115969742D01*
X180558916Y-115975798D01*
X180549245Y-115984424D01*
X180549183Y-115984493D01*
X180531644Y-116018112D01*
X180532278Y-116054448D01*
X180550686Y-116085423D01*
X180554329Y-116088607D01*
X180567259Y-116096812D01*
X180584976Y-116102521D01*
X180611430Y-116106162D01*
X180650568Y-116108167D01*
X180706338Y-116108964D01*
X180742006Y-116109045D01*
X180904445Y-116109045D01*
X180904445Y-116267089D01*
X180657839Y-116267089D01*
X180576420Y-116267231D01*
X180514590Y-116267814D01*
X180469363Y-116269068D01*
X180437752Y-116271227D01*
X180416769Y-116274523D01*
X180403427Y-116279189D01*
X180394739Y-116285457D01*
X180392550Y-116287733D01*
X180376386Y-116319280D01*
X180375203Y-116355168D01*
X180388464Y-116386285D01*
X180398957Y-116396271D01*
X180409871Y-116401769D01*
X180426783Y-116406022D01*
X180452367Y-116409180D01*
X180489299Y-116411392D01*
X180540254Y-116412806D01*
X180607906Y-116413572D01*
X180694931Y-116413838D01*
X180714606Y-116413845D01*
X180803089Y-116413787D01*
X180871773Y-116413467D01*
X180923436Y-116412667D01*
X180960855Y-116411167D01*
X180986810Y-116408749D01*
X181004078Y-116405194D01*
X181015438Y-116400282D01*
X181023668Y-116393795D01*
X181028183Y-116389138D01*
X181034979Y-116380889D01*
X181040288Y-116370669D01*
X181044294Y-116355800D01*
X181047179Y-116333602D01*
X181049126Y-116301393D01*
X181050319Y-116256496D01*
X181050939Y-116196228D01*
X181051171Y-116117911D01*
X181051200Y-116051994D01*
X181051129Y-115959628D01*
X181050792Y-115887117D01*
X181050002Y-115831737D01*
X181048574Y-115790765D01*
X181046321Y-115761478D01*
X181043057Y-115741153D01*
X181038596Y-115727066D01*
X181032752Y-115716495D01*
X181027803Y-115709811D01*
X181004406Y-115680067D01*
X180714226Y-115680067D01*
X180617657Y-115680260D01*
X180617657Y-115680260D01*
G37*
X180617657Y-115680260D02*
X180541299Y-115681174D01*
X180482783Y-115683311D01*
X180439745Y-115687175D01*
X180409817Y-115693267D01*
X180390632Y-115702090D01*
X180379824Y-115714146D01*
X180375027Y-115729939D01*
X180373873Y-115749970D01*
X180373867Y-115752335D01*
X180374869Y-115774992D01*
X180379604Y-115792503D01*
X180390667Y-115805574D01*
X180410652Y-115814913D01*
X180442154Y-115821227D01*
X180487768Y-115825222D01*
X180550087Y-115827606D01*
X180631707Y-115829086D01*
X180656723Y-115829414D01*
X180898800Y-115832467D01*
X180902186Y-115897378D01*
X180905571Y-115962289D01*
X180737424Y-115962289D01*
X180671734Y-115962531D01*
X180624828Y-115963556D01*
X180592917Y-115965811D01*
X180572209Y-115969742D01*
X180558916Y-115975798D01*
X180549245Y-115984424D01*
X180549183Y-115984493D01*
X180531644Y-116018112D01*
X180532278Y-116054448D01*
X180550686Y-116085423D01*
X180554329Y-116088607D01*
X180567259Y-116096812D01*
X180584976Y-116102521D01*
X180611430Y-116106162D01*
X180650568Y-116108167D01*
X180706338Y-116108964D01*
X180742006Y-116109045D01*
X180904445Y-116109045D01*
X180904445Y-116267089D01*
X180657839Y-116267089D01*
X180576420Y-116267231D01*
X180514590Y-116267814D01*
X180469363Y-116269068D01*
X180437752Y-116271227D01*
X180416769Y-116274523D01*
X180403427Y-116279189D01*
X180394739Y-116285457D01*
X180392550Y-116287733D01*
X180376386Y-116319280D01*
X180375203Y-116355168D01*
X180388464Y-116386285D01*
X180398957Y-116396271D01*
X180409871Y-116401769D01*
X180426783Y-116406022D01*
X180452367Y-116409180D01*
X180489299Y-116411392D01*
X180540254Y-116412806D01*
X180607906Y-116413572D01*
X180694931Y-116413838D01*
X180714606Y-116413845D01*
X180803089Y-116413787D01*
X180871773Y-116413467D01*
X180923436Y-116412667D01*
X180960855Y-116411167D01*
X180986810Y-116408749D01*
X181004078Y-116405194D01*
X181015438Y-116400282D01*
X181023668Y-116393795D01*
X181028183Y-116389138D01*
X181034979Y-116380889D01*
X181040288Y-116370669D01*
X181044294Y-116355800D01*
X181047179Y-116333602D01*
X181049126Y-116301393D01*
X181050319Y-116256496D01*
X181050939Y-116196228D01*
X181051171Y-116117911D01*
X181051200Y-116051994D01*
X181051129Y-115959628D01*
X181050792Y-115887117D01*
X181050002Y-115831737D01*
X181048574Y-115790765D01*
X181046321Y-115761478D01*
X181043057Y-115741153D01*
X181038596Y-115727066D01*
X181032752Y-115716495D01*
X181027803Y-115709811D01*
X181004406Y-115680067D01*
X180714226Y-115680067D01*
X180617657Y-115680260D01*
G36*
X179829691Y-115680275D02*
X179700712Y-115684636D01*
X179591009Y-115697861D01*
X179498774Y-115720741D01*
X179422198Y-115754070D01*
X179359473Y-115798638D01*
X179308788Y-115855236D01*
X179268337Y-115924658D01*
X179267541Y-115926351D01*
X179243399Y-115988483D01*
X179234797Y-116043509D01*
X179241769Y-116098887D01*
X179264346Y-116162073D01*
X179268628Y-116171689D01*
X179297828Y-116227966D01*
X179330644Y-116271451D01*
X179372998Y-116308417D01*
X179430810Y-116345135D01*
X179434169Y-116347052D01*
X179484496Y-116371227D01*
X179541379Y-116389282D01*
X179608473Y-116401839D01*
X179689435Y-116409522D01*
X179787918Y-116412953D01*
X179822714Y-116413251D01*
X179988406Y-116413845D01*
X180011803Y-116384100D01*
X180018743Y-116374319D01*
X180024158Y-116362897D01*
X180028235Y-116347095D01*
X180031163Y-116324175D01*
X180033133Y-116291396D01*
X180033775Y-116267089D01*
X179877156Y-116267089D01*
X179783274Y-116267089D01*
X179728336Y-116265483D01*
X179671940Y-116261255D01*
X179625655Y-116255292D01*
X179622861Y-116254790D01*
X179540652Y-116232736D01*
X179476886Y-116199600D01*
X179429548Y-116153847D01*
X179396618Y-116093939D01*
X179390892Y-116078061D01*
X179385279Y-116053333D01*
X179387709Y-116028902D01*
X179399533Y-115996400D01*
X179406660Y-115980434D01*
X179430000Y-115938006D01*
X179458120Y-115908240D01*
X179489060Y-115887511D01*
X179551034Y-115860537D01*
X179630349Y-115840998D01*
X179722747Y-115829746D01*
X179789667Y-115827270D01*
X179877156Y-115826822D01*
X179877156Y-116267089D01*
X180033775Y-116267089D01*
X180034332Y-116246021D01*
X180034950Y-116185311D01*
X180035175Y-116106526D01*
X180035200Y-116044920D01*
X180035200Y-115735485D01*
X180007491Y-115707776D01*
X179995194Y-115696544D01*
X179981897Y-115688853D01*
X179963328Y-115684040D01*
X179935214Y-115681446D01*
X179893283Y-115680410D01*
X179833263Y-115680270D01*
X179829691Y-115680275D01*
X179829691Y-115680275D01*
G37*
X179829691Y-115680275D02*
X179700712Y-115684636D01*
X179591009Y-115697861D01*
X179498774Y-115720741D01*
X179422198Y-115754070D01*
X179359473Y-115798638D01*
X179308788Y-115855236D01*
X179268337Y-115924658D01*
X179267541Y-115926351D01*
X179243399Y-115988483D01*
X179234797Y-116043509D01*
X179241769Y-116098887D01*
X179264346Y-116162073D01*
X179268628Y-116171689D01*
X179297828Y-116227966D01*
X179330644Y-116271451D01*
X179372998Y-116308417D01*
X179430810Y-116345135D01*
X179434169Y-116347052D01*
X179484496Y-116371227D01*
X179541379Y-116389282D01*
X179608473Y-116401839D01*
X179689435Y-116409522D01*
X179787918Y-116412953D01*
X179822714Y-116413251D01*
X179988406Y-116413845D01*
X180011803Y-116384100D01*
X180018743Y-116374319D01*
X180024158Y-116362897D01*
X180028235Y-116347095D01*
X180031163Y-116324175D01*
X180033133Y-116291396D01*
X180033775Y-116267089D01*
X179877156Y-116267089D01*
X179783274Y-116267089D01*
X179728336Y-116265483D01*
X179671940Y-116261255D01*
X179625655Y-116255292D01*
X179622861Y-116254790D01*
X179540652Y-116232736D01*
X179476886Y-116199600D01*
X179429548Y-116153847D01*
X179396618Y-116093939D01*
X179390892Y-116078061D01*
X179385279Y-116053333D01*
X179387709Y-116028902D01*
X179399533Y-115996400D01*
X179406660Y-115980434D01*
X179430000Y-115938006D01*
X179458120Y-115908240D01*
X179489060Y-115887511D01*
X179551034Y-115860537D01*
X179630349Y-115840998D01*
X179722747Y-115829746D01*
X179789667Y-115827270D01*
X179877156Y-115826822D01*
X179877156Y-116267089D01*
X180033775Y-116267089D01*
X180034332Y-116246021D01*
X180034950Y-116185311D01*
X180035175Y-116106526D01*
X180035200Y-116044920D01*
X180035200Y-115735485D01*
X180007491Y-115707776D01*
X179995194Y-115696544D01*
X179981897Y-115688853D01*
X179963328Y-115684040D01*
X179935214Y-115681446D01*
X179893283Y-115680410D01*
X179833263Y-115680270D01*
X179829691Y-115680275D01*
G36*
X177103335Y-115682034D02*
X177083745Y-115689035D01*
X177082990Y-115689377D01*
X177056387Y-115709678D01*
X177041730Y-115730561D01*
X177038862Y-115740352D01*
X177039004Y-115753361D01*
X177043039Y-115771895D01*
X177051854Y-115798257D01*
X177066331Y-115834752D01*
X177087355Y-115883687D01*
X177115812Y-115947365D01*
X177152585Y-116028093D01*
X177172825Y-116072216D01*
X177209375Y-116150985D01*
X177243685Y-116223423D01*
X177274448Y-116286880D01*
X177300352Y-116338708D01*
X177320090Y-116376259D01*
X177332350Y-116396884D01*
X177334776Y-116399733D01*
X177365817Y-116412302D01*
X177400879Y-116410619D01*
X177429000Y-116395332D01*
X177430146Y-116394089D01*
X177441332Y-116377154D01*
X177460096Y-116344170D01*
X177484125Y-116299380D01*
X177511103Y-116247032D01*
X177520799Y-116227742D01*
X177593986Y-116081150D01*
X177673760Y-116240393D01*
X177702233Y-116295415D01*
X177728650Y-116343132D01*
X177750852Y-116379893D01*
X177766681Y-116402044D01*
X177772046Y-116406741D01*
X177813743Y-116413102D01*
X177848151Y-116399733D01*
X177858272Y-116385446D01*
X177875786Y-116353692D01*
X177899265Y-116307597D01*
X177927280Y-116250285D01*
X177958401Y-116184880D01*
X177991201Y-116114507D01*
X178024250Y-116042291D01*
X178056119Y-115971355D01*
X178085381Y-115904825D01*
X178110605Y-115845826D01*
X178130364Y-115797481D01*
X178143228Y-115762915D01*
X178147769Y-115745253D01*
X178147723Y-115744613D01*
X178136674Y-115722388D01*
X178114590Y-115699753D01*
X178113290Y-115698768D01*
X178086147Y-115683425D01*
X178061042Y-115683574D01*
X178051632Y-115686466D01*
X178040166Y-115692718D01*
X178027990Y-115705014D01*
X178013643Y-115725908D01*
X177995664Y-115757949D01*
X177972593Y-115803688D01*
X177942970Y-115865677D01*
X177916255Y-115922898D01*
X177885520Y-115989226D01*
X177857979Y-116048874D01*
X177835062Y-116098725D01*
X177818202Y-116135664D01*
X177808827Y-116156573D01*
X177807460Y-116159845D01*
X177801311Y-116154497D01*
X177787178Y-116132109D01*
X177766943Y-116095946D01*
X177742485Y-116049277D01*
X177732752Y-116030022D01*
X177699783Y-115965004D01*
X177674357Y-115917654D01*
X177654388Y-115885219D01*
X177637790Y-115864946D01*
X177622476Y-115854082D01*
X177606360Y-115849875D01*
X177595857Y-115849400D01*
X177577330Y-115851042D01*
X177561096Y-115857831D01*
X177544965Y-115872566D01*
X177526749Y-115898044D01*
X177504261Y-115937061D01*
X177475311Y-115992414D01*
X177459338Y-116023903D01*
X177433430Y-116074087D01*
X177410833Y-116115704D01*
X177393542Y-116145242D01*
X177383550Y-116159189D01*
X177382191Y-116159770D01*
X177375739Y-116148793D01*
X177361292Y-116120290D01*
X177340297Y-116077244D01*
X177314203Y-116022638D01*
X177284454Y-115959454D01*
X177269820Y-115928071D01*
X177231750Y-115847078D01*
X177201095Y-115784756D01*
X177176263Y-115739071D01*
X177155663Y-115707989D01*
X177137702Y-115689478D01*
X177120790Y-115681504D01*
X177103335Y-115682034D01*
X177103335Y-115682034D01*
G37*
X177103335Y-115682034D02*
X177083745Y-115689035D01*
X177082990Y-115689377D01*
X177056387Y-115709678D01*
X177041730Y-115730561D01*
X177038862Y-115740352D01*
X177039004Y-115753361D01*
X177043039Y-115771895D01*
X177051854Y-115798257D01*
X177066331Y-115834752D01*
X177087355Y-115883687D01*
X177115812Y-115947365D01*
X177152585Y-116028093D01*
X177172825Y-116072216D01*
X177209375Y-116150985D01*
X177243685Y-116223423D01*
X177274448Y-116286880D01*
X177300352Y-116338708D01*
X177320090Y-116376259D01*
X177332350Y-116396884D01*
X177334776Y-116399733D01*
X177365817Y-116412302D01*
X177400879Y-116410619D01*
X177429000Y-116395332D01*
X177430146Y-116394089D01*
X177441332Y-116377154D01*
X177460096Y-116344170D01*
X177484125Y-116299380D01*
X177511103Y-116247032D01*
X177520799Y-116227742D01*
X177593986Y-116081150D01*
X177673760Y-116240393D01*
X177702233Y-116295415D01*
X177728650Y-116343132D01*
X177750852Y-116379893D01*
X177766681Y-116402044D01*
X177772046Y-116406741D01*
X177813743Y-116413102D01*
X177848151Y-116399733D01*
X177858272Y-116385446D01*
X177875786Y-116353692D01*
X177899265Y-116307597D01*
X177927280Y-116250285D01*
X177958401Y-116184880D01*
X177991201Y-116114507D01*
X178024250Y-116042291D01*
X178056119Y-115971355D01*
X178085381Y-115904825D01*
X178110605Y-115845826D01*
X178130364Y-115797481D01*
X178143228Y-115762915D01*
X178147769Y-115745253D01*
X178147723Y-115744613D01*
X178136674Y-115722388D01*
X178114590Y-115699753D01*
X178113290Y-115698768D01*
X178086147Y-115683425D01*
X178061042Y-115683574D01*
X178051632Y-115686466D01*
X178040166Y-115692718D01*
X178027990Y-115705014D01*
X178013643Y-115725908D01*
X177995664Y-115757949D01*
X177972593Y-115803688D01*
X177942970Y-115865677D01*
X177916255Y-115922898D01*
X177885520Y-115989226D01*
X177857979Y-116048874D01*
X177835062Y-116098725D01*
X177818202Y-116135664D01*
X177808827Y-116156573D01*
X177807460Y-116159845D01*
X177801311Y-116154497D01*
X177787178Y-116132109D01*
X177766943Y-116095946D01*
X177742485Y-116049277D01*
X177732752Y-116030022D01*
X177699783Y-115965004D01*
X177674357Y-115917654D01*
X177654388Y-115885219D01*
X177637790Y-115864946D01*
X177622476Y-115854082D01*
X177606360Y-115849875D01*
X177595857Y-115849400D01*
X177577330Y-115851042D01*
X177561096Y-115857831D01*
X177544965Y-115872566D01*
X177526749Y-115898044D01*
X177504261Y-115937061D01*
X177475311Y-115992414D01*
X177459338Y-116023903D01*
X177433430Y-116074087D01*
X177410833Y-116115704D01*
X177393542Y-116145242D01*
X177383550Y-116159189D01*
X177382191Y-116159770D01*
X177375739Y-116148793D01*
X177361292Y-116120290D01*
X177340297Y-116077244D01*
X177314203Y-116022638D01*
X177284454Y-115959454D01*
X177269820Y-115928071D01*
X177231750Y-115847078D01*
X177201095Y-115784756D01*
X177176263Y-115739071D01*
X177155663Y-115707989D01*
X177137702Y-115689478D01*
X177120790Y-115681504D01*
X177103335Y-115682034D01*
G36*
X176659386Y-115686877D02*
X176635673Y-115701647D01*
X176609022Y-115723227D01*
X176609022Y-116044773D01*
X176609107Y-116138830D01*
X176609471Y-116212932D01*
X176610276Y-116269704D01*
X176611687Y-116311768D01*
X176613867Y-116341748D01*
X176616979Y-116362267D01*
X176621186Y-116375949D01*
X176626652Y-116385416D01*
X176630528Y-116390082D01*
X176661966Y-116410575D01*
X176697767Y-116409739D01*
X176729127Y-116392264D01*
X176755778Y-116370684D01*
X176755778Y-115723227D01*
X176729127Y-115701647D01*
X176703406Y-115685949D01*
X176682400Y-115680067D01*
X176659386Y-115686877D01*
X176659386Y-115686877D01*
G37*
X176659386Y-115686877D02*
X176635673Y-115701647D01*
X176609022Y-115723227D01*
X176609022Y-116044773D01*
X176609107Y-116138830D01*
X176609471Y-116212932D01*
X176610276Y-116269704D01*
X176611687Y-116311768D01*
X176613867Y-116341748D01*
X176616979Y-116362267D01*
X176621186Y-116375949D01*
X176626652Y-116385416D01*
X176630528Y-116390082D01*
X176661966Y-116410575D01*
X176697767Y-116409739D01*
X176729127Y-116392264D01*
X176755778Y-116370684D01*
X176755778Y-115723227D01*
X176729127Y-115701647D01*
X176703406Y-115685949D01*
X176682400Y-115680067D01*
X176659386Y-115686877D01*
G36*
X175884935Y-115680163D02*
X175806228Y-115680542D01*
X175745137Y-115681333D01*
X175699183Y-115682670D01*
X175665886Y-115684683D01*
X175642764Y-115687506D01*
X175627338Y-115691269D01*
X175617129Y-115696105D01*
X175612187Y-115699822D01*
X175586543Y-115732358D01*
X175583441Y-115766138D01*
X175599289Y-115796826D01*
X175609652Y-115809089D01*
X175620804Y-115817450D01*
X175636965Y-115822657D01*
X175662358Y-115825457D01*
X175701202Y-115826596D01*
X175757720Y-115826821D01*
X175768820Y-115826822D01*
X175914756Y-115826822D01*
X175914756Y-116097756D01*
X175914852Y-116183154D01*
X175915289Y-116248864D01*
X175916288Y-116297774D01*
X175918072Y-116332773D01*
X175920863Y-116356749D01*
X175924883Y-116372593D01*
X175930355Y-116383191D01*
X175937334Y-116391267D01*
X175970266Y-116411112D01*
X176004646Y-116409548D01*
X176035824Y-116386906D01*
X176038114Y-116384100D01*
X176045571Y-116373492D01*
X176051253Y-116361081D01*
X176055399Y-116343850D01*
X176058250Y-116318784D01*
X176060046Y-116282867D01*
X176061028Y-116233083D01*
X176061436Y-116166417D01*
X176061511Y-116090589D01*
X176061511Y-115826822D01*
X176200873Y-115826822D01*
X176260678Y-115826418D01*
X176302082Y-115824840D01*
X176329252Y-115821547D01*
X176346354Y-115815992D01*
X176357557Y-115807631D01*
X176358917Y-115806178D01*
X176375275Y-115772939D01*
X176373828Y-115735362D01*
X176355022Y-115702645D01*
X176347750Y-115696298D01*
X176338373Y-115691266D01*
X176324391Y-115687396D01*
X176303304Y-115684537D01*
X176272611Y-115682535D01*
X176229811Y-115681239D01*
X176172405Y-115680498D01*
X176097890Y-115680158D01*
X176003767Y-115680068D01*
X175983740Y-115680067D01*
X175884935Y-115680163D01*
X175884935Y-115680163D01*
G37*
X175884935Y-115680163D02*
X175806228Y-115680542D01*
X175745137Y-115681333D01*
X175699183Y-115682670D01*
X175665886Y-115684683D01*
X175642764Y-115687506D01*
X175627338Y-115691269D01*
X175617129Y-115696105D01*
X175612187Y-115699822D01*
X175586543Y-115732358D01*
X175583441Y-115766138D01*
X175599289Y-115796826D01*
X175609652Y-115809089D01*
X175620804Y-115817450D01*
X175636965Y-115822657D01*
X175662358Y-115825457D01*
X175701202Y-115826596D01*
X175757720Y-115826821D01*
X175768820Y-115826822D01*
X175914756Y-115826822D01*
X175914756Y-116097756D01*
X175914852Y-116183154D01*
X175915289Y-116248864D01*
X175916288Y-116297774D01*
X175918072Y-116332773D01*
X175920863Y-116356749D01*
X175924883Y-116372593D01*
X175930355Y-116383191D01*
X175937334Y-116391267D01*
X175970266Y-116411112D01*
X176004646Y-116409548D01*
X176035824Y-116386906D01*
X176038114Y-116384100D01*
X176045571Y-116373492D01*
X176051253Y-116361081D01*
X176055399Y-116343850D01*
X176058250Y-116318784D01*
X176060046Y-116282867D01*
X176061028Y-116233083D01*
X176061436Y-116166417D01*
X176061511Y-116090589D01*
X176061511Y-115826822D01*
X176200873Y-115826822D01*
X176260678Y-115826418D01*
X176302082Y-115824840D01*
X176329252Y-115821547D01*
X176346354Y-115815992D01*
X176357557Y-115807631D01*
X176358917Y-115806178D01*
X176375275Y-115772939D01*
X176373828Y-115735362D01*
X176355022Y-115702645D01*
X176347750Y-115696298D01*
X176338373Y-115691266D01*
X176324391Y-115687396D01*
X176303304Y-115684537D01*
X176272611Y-115682535D01*
X176229811Y-115681239D01*
X176172405Y-115680498D01*
X176097890Y-115680158D01*
X176003767Y-115680068D01*
X175983740Y-115680067D01*
X175884935Y-115680163D01*
G36*
X174619177Y-115685533D02*
X174587798Y-115707776D01*
X174560089Y-115735485D01*
X174560089Y-116044920D01*
X174560162Y-116136799D01*
X174560505Y-116208840D01*
X174561308Y-116263780D01*
X174562759Y-116304360D01*
X174565048Y-116333317D01*
X174568364Y-116353391D01*
X174572895Y-116367321D01*
X174578831Y-116377845D01*
X174583486Y-116384100D01*
X174614217Y-116408673D01*
X174649504Y-116411341D01*
X174681755Y-116396271D01*
X174692412Y-116387374D01*
X174699536Y-116375557D01*
X174703833Y-116356526D01*
X174706009Y-116325992D01*
X174706772Y-116279662D01*
X174706845Y-116243871D01*
X174706845Y-116109045D01*
X175203556Y-116109045D01*
X175203556Y-116231700D01*
X175204069Y-116287787D01*
X175206124Y-116326333D01*
X175210492Y-116352361D01*
X175217944Y-116370897D01*
X175226953Y-116384100D01*
X175257856Y-116408604D01*
X175292804Y-116411506D01*
X175326262Y-116394089D01*
X175335396Y-116384959D01*
X175341848Y-116372855D01*
X175346103Y-116354001D01*
X175348648Y-116324620D01*
X175349971Y-116280937D01*
X175350557Y-116219175D01*
X175350625Y-116205000D01*
X175351109Y-116088631D01*
X175351359Y-115992727D01*
X175351277Y-115915177D01*
X175350769Y-115853869D01*
X175349738Y-115806690D01*
X175348087Y-115771530D01*
X175345721Y-115746276D01*
X175342543Y-115728817D01*
X175338456Y-115717041D01*
X175333366Y-115708835D01*
X175327734Y-115702645D01*
X175295872Y-115682844D01*
X175262643Y-115685533D01*
X175231265Y-115707776D01*
X175218567Y-115722126D01*
X175210474Y-115737978D01*
X175205958Y-115760554D01*
X175203994Y-115795078D01*
X175203556Y-115846776D01*
X175203556Y-115962289D01*
X174706845Y-115962289D01*
X174706845Y-115843756D01*
X174706338Y-115789148D01*
X174704302Y-115752275D01*
X174699965Y-115728307D01*
X174692553Y-115712415D01*
X174684267Y-115702645D01*
X174652406Y-115682844D01*
X174619177Y-115685533D01*
X174619177Y-115685533D01*
G37*
X174619177Y-115685533D02*
X174587798Y-115707776D01*
X174560089Y-115735485D01*
X174560089Y-116044920D01*
X174560162Y-116136799D01*
X174560505Y-116208840D01*
X174561308Y-116263780D01*
X174562759Y-116304360D01*
X174565048Y-116333317D01*
X174568364Y-116353391D01*
X174572895Y-116367321D01*
X174578831Y-116377845D01*
X174583486Y-116384100D01*
X174614217Y-116408673D01*
X174649504Y-116411341D01*
X174681755Y-116396271D01*
X174692412Y-116387374D01*
X174699536Y-116375557D01*
X174703833Y-116356526D01*
X174706009Y-116325992D01*
X174706772Y-116279662D01*
X174706845Y-116243871D01*
X174706845Y-116109045D01*
X175203556Y-116109045D01*
X175203556Y-116231700D01*
X175204069Y-116287787D01*
X175206124Y-116326333D01*
X175210492Y-116352361D01*
X175217944Y-116370897D01*
X175226953Y-116384100D01*
X175257856Y-116408604D01*
X175292804Y-116411506D01*
X175326262Y-116394089D01*
X175335396Y-116384959D01*
X175341848Y-116372855D01*
X175346103Y-116354001D01*
X175348648Y-116324620D01*
X175349971Y-116280937D01*
X175350557Y-116219175D01*
X175350625Y-116205000D01*
X175351109Y-116088631D01*
X175351359Y-115992727D01*
X175351277Y-115915177D01*
X175350769Y-115853869D01*
X175349738Y-115806690D01*
X175348087Y-115771530D01*
X175345721Y-115746276D01*
X175342543Y-115728817D01*
X175338456Y-115717041D01*
X175333366Y-115708835D01*
X175327734Y-115702645D01*
X175295872Y-115682844D01*
X175262643Y-115685533D01*
X175231265Y-115707776D01*
X175218567Y-115722126D01*
X175210474Y-115737978D01*
X175205958Y-115760554D01*
X175203994Y-115795078D01*
X175203556Y-115846776D01*
X175203556Y-115962289D01*
X174706845Y-115962289D01*
X174706845Y-115843756D01*
X174706338Y-115789148D01*
X174704302Y-115752275D01*
X174699965Y-115728307D01*
X174692553Y-115712415D01*
X174684267Y-115702645D01*
X174652406Y-115682844D01*
X174619177Y-115685533D01*
G36*
X183794400Y-110900054D02*
X183783535Y-111013993D01*
X183751918Y-111121616D01*
X183701015Y-111220615D01*
X183632293Y-111308684D01*
X183547219Y-111383516D01*
X183450232Y-111441384D01*
X183343964Y-111481005D01*
X183236950Y-111499573D01*
X183131300Y-111498434D01*
X183029125Y-111478930D01*
X182932534Y-111442406D01*
X182843638Y-111390205D01*
X182764546Y-111323673D01*
X182697369Y-111244152D01*
X182644217Y-111152987D01*
X182607199Y-111051523D01*
X182588427Y-110941102D01*
X182586489Y-110891206D01*
X182586489Y-110803267D01*
X182534560Y-110803267D01*
X182498253Y-110806111D01*
X182471355Y-110817911D01*
X182444249Y-110841649D01*
X182405867Y-110880031D01*
X182405867Y-113071602D01*
X182405876Y-113333739D01*
X182405908Y-113574241D01*
X182405972Y-113794048D01*
X182406076Y-113994101D01*
X182406227Y-114175344D01*
X182406434Y-114338716D01*
X182406706Y-114485160D01*
X182407050Y-114615617D01*
X182407474Y-114731029D01*
X182407987Y-114832338D01*
X182408597Y-114920484D01*
X182409312Y-114996410D01*
X182410140Y-115061057D01*
X182411089Y-115115367D01*
X182412167Y-115160280D01*
X182413383Y-115196740D01*
X182414745Y-115225687D01*
X182416261Y-115248063D01*
X182417938Y-115264809D01*
X182419786Y-115276868D01*
X182421813Y-115285180D01*
X182424025Y-115290687D01*
X182425108Y-115292537D01*
X182429271Y-115299549D01*
X182432805Y-115305996D01*
X182436635Y-115311900D01*
X182441682Y-115317286D01*
X182448871Y-115322178D01*
X182459123Y-115326598D01*
X182473364Y-115330572D01*
X182492514Y-115334121D01*
X182517499Y-115337270D01*
X182549240Y-115340042D01*
X182588662Y-115342461D01*
X182636686Y-115344551D01*
X182694237Y-115346335D01*
X182762237Y-115347837D01*
X182841610Y-115349080D01*
X182933279Y-115350089D01*
X183038166Y-115350885D01*
X183157196Y-115351494D01*
X183291290Y-115351939D01*
X183441373Y-115352243D01*
X183608367Y-115352430D01*
X183793196Y-115352524D01*
X183996783Y-115352548D01*
X184220050Y-115352525D01*
X184463922Y-115352480D01*
X184729321Y-115352437D01*
X184767704Y-115352432D01*
X185034682Y-115352389D01*
X185280002Y-115352318D01*
X185504583Y-115352213D01*
X185709345Y-115352066D01*
X185895206Y-115351869D01*
X186063088Y-115351616D01*
X186213908Y-115351300D01*
X186348587Y-115350913D01*
X186468044Y-115350447D01*
X186573199Y-115349897D01*
X186664971Y-115349253D01*
X186744279Y-115348511D01*
X186812043Y-115347661D01*
X186869182Y-115346697D01*
X186916617Y-115345611D01*
X186955266Y-115344397D01*
X186986049Y-115343047D01*
X187009885Y-115341555D01*
X187027694Y-115339911D01*
X187040395Y-115338111D01*
X187048908Y-115336145D01*
X187053266Y-115334477D01*
X187061728Y-115330906D01*
X187069497Y-115328270D01*
X187076602Y-115325634D01*
X187083073Y-115322062D01*
X187088939Y-115316621D01*
X187094229Y-115308375D01*
X187098974Y-115296390D01*
X187103202Y-115279731D01*
X187106943Y-115257463D01*
X187110227Y-115228652D01*
X187113083Y-115192363D01*
X187115540Y-115147661D01*
X187117629Y-115093611D01*
X187119378Y-115029279D01*
X187120817Y-114953730D01*
X187121976Y-114866030D01*
X187122883Y-114765243D01*
X187123569Y-114650434D01*
X187124063Y-114520670D01*
X187124395Y-114375015D01*
X187124593Y-114212535D01*
X187124687Y-114032295D01*
X187124708Y-113833360D01*
X187124685Y-113614796D01*
X187124646Y-113375668D01*
X187124622Y-113115040D01*
X187124622Y-113072889D01*
X187124636Y-112809992D01*
X187124661Y-112568732D01*
X187124671Y-112348165D01*
X187124642Y-112147352D01*
X187124548Y-111965349D01*
X187124362Y-111801216D01*
X187124059Y-111654011D01*
X187123614Y-111522792D01*
X187123034Y-111412867D01*
X186820197Y-111412867D01*
X186780407Y-111470711D01*
X186769236Y-111486479D01*
X186759166Y-111500441D01*
X186750138Y-111513784D01*
X186742097Y-111527693D01*
X186734986Y-111543356D01*
X186728747Y-111561958D01*
X186723325Y-111584686D01*
X186718662Y-111612727D01*
X186714701Y-111647267D01*
X186711385Y-111689492D01*
X186708659Y-111740589D01*
X186706464Y-111801744D01*
X186704745Y-111874144D01*
X186703444Y-111958975D01*
X186702505Y-112057422D01*
X186701870Y-112170674D01*
X186701484Y-112299916D01*
X186701288Y-112446334D01*
X186701227Y-112611116D01*
X186701243Y-112795447D01*
X186701280Y-113000513D01*
X186701289Y-113123133D01*
X186701265Y-113340082D01*
X186701231Y-113535642D01*
X186701243Y-113710999D01*
X186701358Y-113867341D01*
X186701630Y-114005857D01*
X186702118Y-114127734D01*
X186702876Y-114234160D01*
X186703962Y-114326322D01*
X186705431Y-114405409D01*
X186707340Y-114472608D01*
X186709744Y-114529107D01*
X186712701Y-114576093D01*
X186716266Y-114614755D01*
X186720495Y-114646280D01*
X186725446Y-114671855D01*
X186731173Y-114692670D01*
X186737733Y-114709911D01*
X186745183Y-114724765D01*
X186753579Y-114738422D01*
X186762976Y-114752069D01*
X186773432Y-114766893D01*
X186779523Y-114775783D01*
X186818296Y-114833400D01*
X186286732Y-114833400D01*
X186163483Y-114833365D01*
X186060987Y-114833215D01*
X185977420Y-114832878D01*
X185910956Y-114832286D01*
X185859771Y-114831367D01*
X185822041Y-114830051D01*
X185795940Y-114828269D01*
X185779644Y-114825951D01*
X185771328Y-114823026D01*
X185769168Y-114819424D01*
X185771339Y-114815075D01*
X185772535Y-114813645D01*
X185797685Y-114776573D01*
X185823583Y-114723772D01*
X185847192Y-114661770D01*
X185855461Y-114635357D01*
X185860078Y-114617416D01*
X185863979Y-114596355D01*
X185867248Y-114570089D01*
X185869966Y-114536532D01*
X185872215Y-114493599D01*
X185874077Y-114439204D01*
X185875636Y-114371262D01*
X185876972Y-114287688D01*
X185878169Y-114186395D01*
X185879308Y-114065300D01*
X185879685Y-114020600D01*
X185880702Y-113895449D01*
X185881460Y-113791082D01*
X185881903Y-113705707D01*
X185881970Y-113637533D01*
X185881605Y-113584765D01*
X185880748Y-113545614D01*
X185879341Y-113518285D01*
X185877325Y-113500986D01*
X185874643Y-113491926D01*
X185871236Y-113489312D01*
X185867044Y-113491351D01*
X185862571Y-113495667D01*
X185852216Y-113508602D01*
X185830158Y-113537676D01*
X185797957Y-113580759D01*
X185757174Y-113635718D01*
X185709370Y-113700423D01*
X185656105Y-113772742D01*
X185598940Y-113850544D01*
X185539437Y-113931698D01*
X185479155Y-114014072D01*
X185419655Y-114095536D01*
X185362498Y-114173957D01*
X185309245Y-114247204D01*
X185261457Y-114313147D01*
X185220693Y-114369654D01*
X185188516Y-114414593D01*
X185166485Y-114445834D01*
X185161917Y-114452466D01*
X185138996Y-114489369D01*
X185112188Y-114537359D01*
X185086789Y-114586897D01*
X185083568Y-114593577D01*
X185061890Y-114641772D01*
X185049304Y-114679334D01*
X185043574Y-114715160D01*
X185042456Y-114757200D01*
X185043090Y-114833400D01*
X183888651Y-114833400D01*
X183979815Y-114739669D01*
X184026612Y-114689775D01*
X184076899Y-114633295D01*
X184122944Y-114579026D01*
X184143369Y-114553673D01*
X184173807Y-114514128D01*
X184213862Y-114460916D01*
X184262361Y-114395667D01*
X184318135Y-114320011D01*
X184380011Y-114235577D01*
X184446819Y-114143994D01*
X184517387Y-114046892D01*
X184590545Y-113945901D01*
X184665121Y-113842650D01*
X184739944Y-113738768D01*
X184813843Y-113635885D01*
X184885646Y-113535631D01*
X184954184Y-113439636D01*
X185018284Y-113349527D01*
X185076775Y-113266936D01*
X185128486Y-113193492D01*
X185172247Y-113130824D01*
X185206885Y-113080561D01*
X185231230Y-113044334D01*
X185244111Y-113023771D01*
X185245869Y-113019668D01*
X185237910Y-113008342D01*
X185217115Y-112981162D01*
X185184847Y-112939829D01*
X185142470Y-112886044D01*
X185091347Y-112821506D01*
X185032841Y-112747918D01*
X184968314Y-112666978D01*
X184899131Y-112580388D01*
X184826653Y-112489848D01*
X184752246Y-112397060D01*
X184692517Y-112322702D01*
X183681511Y-112322702D01*
X183675602Y-112335659D01*
X183661272Y-112357908D01*
X183660225Y-112359391D01*
X183641438Y-112389544D01*
X183621791Y-112426375D01*
X183617892Y-112434511D01*
X183614356Y-112442940D01*
X183611230Y-112453059D01*
X183608486Y-112466260D01*
X183606092Y-112483938D01*
X183604019Y-112507484D01*
X183602235Y-112538293D01*
X183600712Y-112577757D01*
X183599419Y-112627269D01*
X183598326Y-112688223D01*
X183597403Y-112762011D01*
X183596619Y-112850028D01*
X183595945Y-112953665D01*
X183595350Y-113074316D01*
X183594805Y-113213374D01*
X183594279Y-113372232D01*
X183593745Y-113551089D01*
X183593206Y-113736207D01*
X183592772Y-113900145D01*
X183592509Y-114044303D01*
X183592484Y-114170079D01*
X183592765Y-114278871D01*
X183593419Y-114372077D01*
X183594514Y-114451097D01*
X183596118Y-114517328D01*
X183598297Y-114572170D01*
X183601119Y-114617021D01*
X183604651Y-114653278D01*
X183608961Y-114682341D01*
X183614117Y-114705609D01*
X183620185Y-114724479D01*
X183627233Y-114740351D01*
X183635329Y-114754622D01*
X183644540Y-114768691D01*
X183653040Y-114781158D01*
X183670176Y-114807452D01*
X183680322Y-114825037D01*
X183681511Y-114828257D01*
X183670604Y-114829334D01*
X183639411Y-114830335D01*
X183590223Y-114831235D01*
X183525333Y-114832010D01*
X183447030Y-114832637D01*
X183357607Y-114833091D01*
X183259356Y-114833349D01*
X183190445Y-114833400D01*
X183085452Y-114833180D01*
X182988610Y-114832548D01*
X182902107Y-114831549D01*
X182828132Y-114830227D01*
X182768874Y-114828626D01*
X182726520Y-114826791D01*
X182703260Y-114824765D01*
X182699378Y-114823493D01*
X182707076Y-114808591D01*
X182715074Y-114800560D01*
X182728246Y-114783434D01*
X182745485Y-114753183D01*
X182757407Y-114728622D01*
X182784045Y-114669711D01*
X182787120Y-113492845D01*
X182790195Y-112315978D01*
X183235853Y-112315978D01*
X183333670Y-112316142D01*
X183424064Y-112316611D01*
X183504630Y-112317347D01*
X183572962Y-112318316D01*
X183626656Y-112319480D01*
X183663305Y-112320803D01*
X183680504Y-112322249D01*
X183681511Y-112322702D01*
X184692517Y-112322702D01*
X184677270Y-112303722D01*
X184603090Y-112211537D01*
X184531069Y-112122204D01*
X184462569Y-112037424D01*
X184398955Y-111958898D01*
X184341588Y-111888326D01*
X184291833Y-111827409D01*
X184251052Y-111777847D01*
X184233888Y-111757178D01*
X184147596Y-111656516D01*
X184070997Y-111573259D01*
X184002183Y-111505438D01*
X183939248Y-111451089D01*
X183929867Y-111443722D01*
X183890356Y-111413117D01*
X185022116Y-111412867D01*
X185016827Y-111460844D01*
X185020130Y-111518188D01*
X185041661Y-111586463D01*
X185081635Y-111666212D01*
X185126943Y-111738495D01*
X185143161Y-111761140D01*
X185171214Y-111798696D01*
X185209430Y-111849021D01*
X185256137Y-111909973D01*
X185309661Y-111979411D01*
X185368331Y-112055194D01*
X185430475Y-112135180D01*
X185494421Y-112217228D01*
X185558495Y-112299196D01*
X185621027Y-112378943D01*
X185680343Y-112454327D01*
X185734771Y-112523207D01*
X185782639Y-112583442D01*
X185822275Y-112632889D01*
X185852006Y-112669408D01*
X185870161Y-112690858D01*
X185873220Y-112694156D01*
X185876079Y-112686149D01*
X185878293Y-112655855D01*
X185879857Y-112603556D01*
X185880767Y-112529531D01*
X185881020Y-112434063D01*
X185880613Y-112317434D01*
X185879704Y-112197445D01*
X185878382Y-112065333D01*
X185876857Y-111953594D01*
X185874881Y-111860025D01*
X185872206Y-111782419D01*
X185868582Y-111718574D01*
X185863761Y-111666283D01*
X185857494Y-111623344D01*
X185849532Y-111587551D01*
X185839627Y-111556700D01*
X185827531Y-111528586D01*
X185812993Y-111501005D01*
X185798311Y-111475966D01*
X185760314Y-111412867D01*
X186820197Y-111412867D01*
X187123034Y-111412867D01*
X187123001Y-111406617D01*
X187122195Y-111304544D01*
X187121170Y-111215633D01*
X187119900Y-111138941D01*
X187118360Y-111073527D01*
X187116524Y-111018449D01*
X187114367Y-110972765D01*
X187111863Y-110935534D01*
X187108987Y-110905813D01*
X187105713Y-110882662D01*
X187102015Y-110865139D01*
X187097869Y-110852301D01*
X187093247Y-110843208D01*
X187088126Y-110836918D01*
X187082478Y-110832488D01*
X187076279Y-110828978D01*
X187069504Y-110825445D01*
X187063508Y-110821876D01*
X187058275Y-110819300D01*
X187050099Y-110816972D01*
X187037886Y-110814878D01*
X187020541Y-110813007D01*
X186996969Y-110811347D01*
X186966077Y-110809884D01*
X186926768Y-110808608D01*
X186877950Y-110807504D01*
X186818527Y-110806561D01*
X186747404Y-110805767D01*
X186663488Y-110805109D01*
X186565683Y-110804575D01*
X186452894Y-110804153D01*
X186324029Y-110803829D01*
X186177991Y-110803592D01*
X186013686Y-110803430D01*
X185830020Y-110803330D01*
X185625897Y-110803280D01*
X185414753Y-110803267D01*
X183794400Y-110803267D01*
X183794400Y-110900054D01*
X183794400Y-110900054D01*
G37*
X183794400Y-110900054D02*
X183783535Y-111013993D01*
X183751918Y-111121616D01*
X183701015Y-111220615D01*
X183632293Y-111308684D01*
X183547219Y-111383516D01*
X183450232Y-111441384D01*
X183343964Y-111481005D01*
X183236950Y-111499573D01*
X183131300Y-111498434D01*
X183029125Y-111478930D01*
X182932534Y-111442406D01*
X182843638Y-111390205D01*
X182764546Y-111323673D01*
X182697369Y-111244152D01*
X182644217Y-111152987D01*
X182607199Y-111051523D01*
X182588427Y-110941102D01*
X182586489Y-110891206D01*
X182586489Y-110803267D01*
X182534560Y-110803267D01*
X182498253Y-110806111D01*
X182471355Y-110817911D01*
X182444249Y-110841649D01*
X182405867Y-110880031D01*
X182405867Y-113071602D01*
X182405876Y-113333739D01*
X182405908Y-113574241D01*
X182405972Y-113794048D01*
X182406076Y-113994101D01*
X182406227Y-114175344D01*
X182406434Y-114338716D01*
X182406706Y-114485160D01*
X182407050Y-114615617D01*
X182407474Y-114731029D01*
X182407987Y-114832338D01*
X182408597Y-114920484D01*
X182409312Y-114996410D01*
X182410140Y-115061057D01*
X182411089Y-115115367D01*
X182412167Y-115160280D01*
X182413383Y-115196740D01*
X182414745Y-115225687D01*
X182416261Y-115248063D01*
X182417938Y-115264809D01*
X182419786Y-115276868D01*
X182421813Y-115285180D01*
X182424025Y-115290687D01*
X182425108Y-115292537D01*
X182429271Y-115299549D01*
X182432805Y-115305996D01*
X182436635Y-115311900D01*
X182441682Y-115317286D01*
X182448871Y-115322178D01*
X182459123Y-115326598D01*
X182473364Y-115330572D01*
X182492514Y-115334121D01*
X182517499Y-115337270D01*
X182549240Y-115340042D01*
X182588662Y-115342461D01*
X182636686Y-115344551D01*
X182694237Y-115346335D01*
X182762237Y-115347837D01*
X182841610Y-115349080D01*
X182933279Y-115350089D01*
X183038166Y-115350885D01*
X183157196Y-115351494D01*
X183291290Y-115351939D01*
X183441373Y-115352243D01*
X183608367Y-115352430D01*
X183793196Y-115352524D01*
X183996783Y-115352548D01*
X184220050Y-115352525D01*
X184463922Y-115352480D01*
X184729321Y-115352437D01*
X184767704Y-115352432D01*
X185034682Y-115352389D01*
X185280002Y-115352318D01*
X185504583Y-115352213D01*
X185709345Y-115352066D01*
X185895206Y-115351869D01*
X186063088Y-115351616D01*
X186213908Y-115351300D01*
X186348587Y-115350913D01*
X186468044Y-115350447D01*
X186573199Y-115349897D01*
X186664971Y-115349253D01*
X186744279Y-115348511D01*
X186812043Y-115347661D01*
X186869182Y-115346697D01*
X186916617Y-115345611D01*
X186955266Y-115344397D01*
X186986049Y-115343047D01*
X187009885Y-115341555D01*
X187027694Y-115339911D01*
X187040395Y-115338111D01*
X187048908Y-115336145D01*
X187053266Y-115334477D01*
X187061728Y-115330906D01*
X187069497Y-115328270D01*
X187076602Y-115325634D01*
X187083073Y-115322062D01*
X187088939Y-115316621D01*
X187094229Y-115308375D01*
X187098974Y-115296390D01*
X187103202Y-115279731D01*
X187106943Y-115257463D01*
X187110227Y-115228652D01*
X187113083Y-115192363D01*
X187115540Y-115147661D01*
X187117629Y-115093611D01*
X187119378Y-115029279D01*
X187120817Y-114953730D01*
X187121976Y-114866030D01*
X187122883Y-114765243D01*
X187123569Y-114650434D01*
X187124063Y-114520670D01*
X187124395Y-114375015D01*
X187124593Y-114212535D01*
X187124687Y-114032295D01*
X187124708Y-113833360D01*
X187124685Y-113614796D01*
X187124646Y-113375668D01*
X187124622Y-113115040D01*
X187124622Y-113072889D01*
X187124636Y-112809992D01*
X187124661Y-112568732D01*
X187124671Y-112348165D01*
X187124642Y-112147352D01*
X187124548Y-111965349D01*
X187124362Y-111801216D01*
X187124059Y-111654011D01*
X187123614Y-111522792D01*
X187123034Y-111412867D01*
X186820197Y-111412867D01*
X186780407Y-111470711D01*
X186769236Y-111486479D01*
X186759166Y-111500441D01*
X186750138Y-111513784D01*
X186742097Y-111527693D01*
X186734986Y-111543356D01*
X186728747Y-111561958D01*
X186723325Y-111584686D01*
X186718662Y-111612727D01*
X186714701Y-111647267D01*
X186711385Y-111689492D01*
X186708659Y-111740589D01*
X186706464Y-111801744D01*
X186704745Y-111874144D01*
X186703444Y-111958975D01*
X186702505Y-112057422D01*
X186701870Y-112170674D01*
X186701484Y-112299916D01*
X186701288Y-112446334D01*
X186701227Y-112611116D01*
X186701243Y-112795447D01*
X186701280Y-113000513D01*
X186701289Y-113123133D01*
X186701265Y-113340082D01*
X186701231Y-113535642D01*
X186701243Y-113710999D01*
X186701358Y-113867341D01*
X186701630Y-114005857D01*
X186702118Y-114127734D01*
X186702876Y-114234160D01*
X186703962Y-114326322D01*
X186705431Y-114405409D01*
X186707340Y-114472608D01*
X186709744Y-114529107D01*
X186712701Y-114576093D01*
X186716266Y-114614755D01*
X186720495Y-114646280D01*
X186725446Y-114671855D01*
X186731173Y-114692670D01*
X186737733Y-114709911D01*
X186745183Y-114724765D01*
X186753579Y-114738422D01*
X186762976Y-114752069D01*
X186773432Y-114766893D01*
X186779523Y-114775783D01*
X186818296Y-114833400D01*
X186286732Y-114833400D01*
X186163483Y-114833365D01*
X186060987Y-114833215D01*
X185977420Y-114832878D01*
X185910956Y-114832286D01*
X185859771Y-114831367D01*
X185822041Y-114830051D01*
X185795940Y-114828269D01*
X185779644Y-114825951D01*
X185771328Y-114823026D01*
X185769168Y-114819424D01*
X185771339Y-114815075D01*
X185772535Y-114813645D01*
X185797685Y-114776573D01*
X185823583Y-114723772D01*
X185847192Y-114661770D01*
X185855461Y-114635357D01*
X185860078Y-114617416D01*
X185863979Y-114596355D01*
X185867248Y-114570089D01*
X185869966Y-114536532D01*
X185872215Y-114493599D01*
X185874077Y-114439204D01*
X185875636Y-114371262D01*
X185876972Y-114287688D01*
X185878169Y-114186395D01*
X185879308Y-114065300D01*
X185879685Y-114020600D01*
X185880702Y-113895449D01*
X185881460Y-113791082D01*
X185881903Y-113705707D01*
X185881970Y-113637533D01*
X185881605Y-113584765D01*
X185880748Y-113545614D01*
X185879341Y-113518285D01*
X185877325Y-113500986D01*
X185874643Y-113491926D01*
X185871236Y-113489312D01*
X185867044Y-113491351D01*
X185862571Y-113495667D01*
X185852216Y-113508602D01*
X185830158Y-113537676D01*
X185797957Y-113580759D01*
X185757174Y-113635718D01*
X185709370Y-113700423D01*
X185656105Y-113772742D01*
X185598940Y-113850544D01*
X185539437Y-113931698D01*
X185479155Y-114014072D01*
X185419655Y-114095536D01*
X185362498Y-114173957D01*
X185309245Y-114247204D01*
X185261457Y-114313147D01*
X185220693Y-114369654D01*
X185188516Y-114414593D01*
X185166485Y-114445834D01*
X185161917Y-114452466D01*
X185138996Y-114489369D01*
X185112188Y-114537359D01*
X185086789Y-114586897D01*
X185083568Y-114593577D01*
X185061890Y-114641772D01*
X185049304Y-114679334D01*
X185043574Y-114715160D01*
X185042456Y-114757200D01*
X185043090Y-114833400D01*
X183888651Y-114833400D01*
X183979815Y-114739669D01*
X184026612Y-114689775D01*
X184076899Y-114633295D01*
X184122944Y-114579026D01*
X184143369Y-114553673D01*
X184173807Y-114514128D01*
X184213862Y-114460916D01*
X184262361Y-114395667D01*
X184318135Y-114320011D01*
X184380011Y-114235577D01*
X184446819Y-114143994D01*
X184517387Y-114046892D01*
X184590545Y-113945901D01*
X184665121Y-113842650D01*
X184739944Y-113738768D01*
X184813843Y-113635885D01*
X184885646Y-113535631D01*
X184954184Y-113439636D01*
X185018284Y-113349527D01*
X185076775Y-113266936D01*
X185128486Y-113193492D01*
X185172247Y-113130824D01*
X185206885Y-113080561D01*
X185231230Y-113044334D01*
X185244111Y-113023771D01*
X185245869Y-113019668D01*
X185237910Y-113008342D01*
X185217115Y-112981162D01*
X185184847Y-112939829D01*
X185142470Y-112886044D01*
X185091347Y-112821506D01*
X185032841Y-112747918D01*
X184968314Y-112666978D01*
X184899131Y-112580388D01*
X184826653Y-112489848D01*
X184752246Y-112397060D01*
X184692517Y-112322702D01*
X183681511Y-112322702D01*
X183675602Y-112335659D01*
X183661272Y-112357908D01*
X183660225Y-112359391D01*
X183641438Y-112389544D01*
X183621791Y-112426375D01*
X183617892Y-112434511D01*
X183614356Y-112442940D01*
X183611230Y-112453059D01*
X183608486Y-112466260D01*
X183606092Y-112483938D01*
X183604019Y-112507484D01*
X183602235Y-112538293D01*
X183600712Y-112577757D01*
X183599419Y-112627269D01*
X183598326Y-112688223D01*
X183597403Y-112762011D01*
X183596619Y-112850028D01*
X183595945Y-112953665D01*
X183595350Y-113074316D01*
X183594805Y-113213374D01*
X183594279Y-113372232D01*
X183593745Y-113551089D01*
X183593206Y-113736207D01*
X183592772Y-113900145D01*
X183592509Y-114044303D01*
X183592484Y-114170079D01*
X183592765Y-114278871D01*
X183593419Y-114372077D01*
X183594514Y-114451097D01*
X183596118Y-114517328D01*
X183598297Y-114572170D01*
X183601119Y-114617021D01*
X183604651Y-114653278D01*
X183608961Y-114682341D01*
X183614117Y-114705609D01*
X183620185Y-114724479D01*
X183627233Y-114740351D01*
X183635329Y-114754622D01*
X183644540Y-114768691D01*
X183653040Y-114781158D01*
X183670176Y-114807452D01*
X183680322Y-114825037D01*
X183681511Y-114828257D01*
X183670604Y-114829334D01*
X183639411Y-114830335D01*
X183590223Y-114831235D01*
X183525333Y-114832010D01*
X183447030Y-114832637D01*
X183357607Y-114833091D01*
X183259356Y-114833349D01*
X183190445Y-114833400D01*
X183085452Y-114833180D01*
X182988610Y-114832548D01*
X182902107Y-114831549D01*
X182828132Y-114830227D01*
X182768874Y-114828626D01*
X182726520Y-114826791D01*
X182703260Y-114824765D01*
X182699378Y-114823493D01*
X182707076Y-114808591D01*
X182715074Y-114800560D01*
X182728246Y-114783434D01*
X182745485Y-114753183D01*
X182757407Y-114728622D01*
X182784045Y-114669711D01*
X182787120Y-113492845D01*
X182790195Y-112315978D01*
X183235853Y-112315978D01*
X183333670Y-112316142D01*
X183424064Y-112316611D01*
X183504630Y-112317347D01*
X183572962Y-112318316D01*
X183626656Y-112319480D01*
X183663305Y-112320803D01*
X183680504Y-112322249D01*
X183681511Y-112322702D01*
X184692517Y-112322702D01*
X184677270Y-112303722D01*
X184603090Y-112211537D01*
X184531069Y-112122204D01*
X184462569Y-112037424D01*
X184398955Y-111958898D01*
X184341588Y-111888326D01*
X184291833Y-111827409D01*
X184251052Y-111777847D01*
X184233888Y-111757178D01*
X184147596Y-111656516D01*
X184070997Y-111573259D01*
X184002183Y-111505438D01*
X183939248Y-111451089D01*
X183929867Y-111443722D01*
X183890356Y-111413117D01*
X185022116Y-111412867D01*
X185016827Y-111460844D01*
X185020130Y-111518188D01*
X185041661Y-111586463D01*
X185081635Y-111666212D01*
X185126943Y-111738495D01*
X185143161Y-111761140D01*
X185171214Y-111798696D01*
X185209430Y-111849021D01*
X185256137Y-111909973D01*
X185309661Y-111979411D01*
X185368331Y-112055194D01*
X185430475Y-112135180D01*
X185494421Y-112217228D01*
X185558495Y-112299196D01*
X185621027Y-112378943D01*
X185680343Y-112454327D01*
X185734771Y-112523207D01*
X185782639Y-112583442D01*
X185822275Y-112632889D01*
X185852006Y-112669408D01*
X185870161Y-112690858D01*
X185873220Y-112694156D01*
X185876079Y-112686149D01*
X185878293Y-112655855D01*
X185879857Y-112603556D01*
X185880767Y-112529531D01*
X185881020Y-112434063D01*
X185880613Y-112317434D01*
X185879704Y-112197445D01*
X185878382Y-112065333D01*
X185876857Y-111953594D01*
X185874881Y-111860025D01*
X185872206Y-111782419D01*
X185868582Y-111718574D01*
X185863761Y-111666283D01*
X185857494Y-111623344D01*
X185849532Y-111587551D01*
X185839627Y-111556700D01*
X185827531Y-111528586D01*
X185812993Y-111501005D01*
X185798311Y-111475966D01*
X185760314Y-111412867D01*
X186820197Y-111412867D01*
X187123034Y-111412867D01*
X187123001Y-111406617D01*
X187122195Y-111304544D01*
X187121170Y-111215633D01*
X187119900Y-111138941D01*
X187118360Y-111073527D01*
X187116524Y-111018449D01*
X187114367Y-110972765D01*
X187111863Y-110935534D01*
X187108987Y-110905813D01*
X187105713Y-110882662D01*
X187102015Y-110865139D01*
X187097869Y-110852301D01*
X187093247Y-110843208D01*
X187088126Y-110836918D01*
X187082478Y-110832488D01*
X187076279Y-110828978D01*
X187069504Y-110825445D01*
X187063508Y-110821876D01*
X187058275Y-110819300D01*
X187050099Y-110816972D01*
X187037886Y-110814878D01*
X187020541Y-110813007D01*
X186996969Y-110811347D01*
X186966077Y-110809884D01*
X186926768Y-110808608D01*
X186877950Y-110807504D01*
X186818527Y-110806561D01*
X186747404Y-110805767D01*
X186663488Y-110805109D01*
X186565683Y-110804575D01*
X186452894Y-110804153D01*
X186324029Y-110803829D01*
X186177991Y-110803592D01*
X186013686Y-110803430D01*
X185830020Y-110803330D01*
X185625897Y-110803280D01*
X185414753Y-110803267D01*
X183794400Y-110803267D01*
X183794400Y-110900054D01*
G36*
X180519571Y-111360071D02*
X180359430Y-111381245D01*
X180195490Y-111421385D01*
X180025687Y-111480889D01*
X179847957Y-111560154D01*
X179836690Y-111565699D01*
X179778995Y-111593725D01*
X179727448Y-111617802D01*
X179685809Y-111636249D01*
X179657838Y-111647386D01*
X179648267Y-111649933D01*
X179629050Y-111654941D01*
X179624439Y-111659147D01*
X179629542Y-111669580D01*
X179645582Y-111695868D01*
X179670712Y-111735257D01*
X179703086Y-111784991D01*
X179740857Y-111842315D01*
X179782178Y-111904476D01*
X179825202Y-111968718D01*
X179868083Y-112032285D01*
X179908974Y-112092425D01*
X179946029Y-112146380D01*
X179977400Y-112191397D01*
X180001241Y-112224721D01*
X180015706Y-112243597D01*
X180017691Y-112245787D01*
X180027809Y-112241138D01*
X180050150Y-112223962D01*
X180080720Y-112197440D01*
X180096464Y-112182964D01*
X180192953Y-112107682D01*
X180299664Y-112052241D01*
X180415168Y-112017141D01*
X180538038Y-112002880D01*
X180607439Y-112004051D01*
X180728577Y-112021212D01*
X180837795Y-112057094D01*
X180935418Y-112111959D01*
X181021772Y-112186070D01*
X181097185Y-112279688D01*
X181161982Y-112393076D01*
X181199399Y-112479667D01*
X181243252Y-112615366D01*
X181275572Y-112762850D01*
X181296443Y-112918314D01*
X181305949Y-113077956D01*
X181304173Y-113237973D01*
X181291197Y-113394561D01*
X181267106Y-113543918D01*
X181231982Y-113682240D01*
X181185908Y-113805724D01*
X181169627Y-113839978D01*
X181101380Y-113954064D01*
X181020921Y-114050557D01*
X180929430Y-114128670D01*
X180828089Y-114187617D01*
X180718080Y-114226612D01*
X180600585Y-114244868D01*
X180559117Y-114246211D01*
X180437559Y-114235290D01*
X180317122Y-114202474D01*
X180199334Y-114148439D01*
X180085723Y-114073865D01*
X179994315Y-113995539D01*
X179947785Y-113951008D01*
X179766517Y-114248271D01*
X179721420Y-114322433D01*
X179680181Y-114390646D01*
X179644265Y-114450459D01*
X179615134Y-114499420D01*
X179594250Y-114535079D01*
X179583076Y-114554984D01*
X179581625Y-114558079D01*
X179589854Y-114567718D01*
X179615433Y-114584999D01*
X179655127Y-114608283D01*
X179705703Y-114635934D01*
X179763926Y-114666315D01*
X179826563Y-114697790D01*
X179890379Y-114728722D01*
X179952140Y-114757473D01*
X180008612Y-114782408D01*
X180056562Y-114801889D01*
X180080014Y-114810318D01*
X180213779Y-114848133D01*
X180351673Y-114873136D01*
X180499378Y-114886140D01*
X180626167Y-114888468D01*
X180694122Y-114887373D01*
X180759723Y-114885275D01*
X180817153Y-114882434D01*
X180860597Y-114879106D01*
X180874702Y-114877422D01*
X181013716Y-114848587D01*
X181155243Y-114803468D01*
X181292725Y-114744750D01*
X181419606Y-114675120D01*
X181497111Y-114622441D01*
X181624519Y-114514239D01*
X181742822Y-114387671D01*
X181849828Y-114245866D01*
X181943348Y-114091951D01*
X182021190Y-113929053D01*
X182065044Y-113811756D01*
X182115292Y-113628128D01*
X182148791Y-113433581D01*
X182165551Y-113232325D01*
X182165584Y-113028568D01*
X182148899Y-112826521D01*
X182115507Y-112630392D01*
X182065420Y-112444391D01*
X182061603Y-112432803D01*
X181998719Y-112270750D01*
X181921972Y-112122832D01*
X181828758Y-111984865D01*
X181716473Y-111852661D01*
X181672608Y-111807399D01*
X181536466Y-111683457D01*
X181396509Y-111580915D01*
X181250589Y-111498656D01*
X181096558Y-111435564D01*
X180932268Y-111390523D01*
X180836711Y-111373033D01*
X180677977Y-111357466D01*
X180519571Y-111360071D01*
X180519571Y-111360071D01*
G37*
X180519571Y-111360071D02*
X180359430Y-111381245D01*
X180195490Y-111421385D01*
X180025687Y-111480889D01*
X179847957Y-111560154D01*
X179836690Y-111565699D01*
X179778995Y-111593725D01*
X179727448Y-111617802D01*
X179685809Y-111636249D01*
X179657838Y-111647386D01*
X179648267Y-111649933D01*
X179629050Y-111654941D01*
X179624439Y-111659147D01*
X179629542Y-111669580D01*
X179645582Y-111695868D01*
X179670712Y-111735257D01*
X179703086Y-111784991D01*
X179740857Y-111842315D01*
X179782178Y-111904476D01*
X179825202Y-111968718D01*
X179868083Y-112032285D01*
X179908974Y-112092425D01*
X179946029Y-112146380D01*
X179977400Y-112191397D01*
X180001241Y-112224721D01*
X180015706Y-112243597D01*
X180017691Y-112245787D01*
X180027809Y-112241138D01*
X180050150Y-112223962D01*
X180080720Y-112197440D01*
X180096464Y-112182964D01*
X180192953Y-112107682D01*
X180299664Y-112052241D01*
X180415168Y-112017141D01*
X180538038Y-112002880D01*
X180607439Y-112004051D01*
X180728577Y-112021212D01*
X180837795Y-112057094D01*
X180935418Y-112111959D01*
X181021772Y-112186070D01*
X181097185Y-112279688D01*
X181161982Y-112393076D01*
X181199399Y-112479667D01*
X181243252Y-112615366D01*
X181275572Y-112762850D01*
X181296443Y-112918314D01*
X181305949Y-113077956D01*
X181304173Y-113237973D01*
X181291197Y-113394561D01*
X181267106Y-113543918D01*
X181231982Y-113682240D01*
X181185908Y-113805724D01*
X181169627Y-113839978D01*
X181101380Y-113954064D01*
X181020921Y-114050557D01*
X180929430Y-114128670D01*
X180828089Y-114187617D01*
X180718080Y-114226612D01*
X180600585Y-114244868D01*
X180559117Y-114246211D01*
X180437559Y-114235290D01*
X180317122Y-114202474D01*
X180199334Y-114148439D01*
X180085723Y-114073865D01*
X179994315Y-113995539D01*
X179947785Y-113951008D01*
X179766517Y-114248271D01*
X179721420Y-114322433D01*
X179680181Y-114390646D01*
X179644265Y-114450459D01*
X179615134Y-114499420D01*
X179594250Y-114535079D01*
X179583076Y-114554984D01*
X179581625Y-114558079D01*
X179589854Y-114567718D01*
X179615433Y-114584999D01*
X179655127Y-114608283D01*
X179705703Y-114635934D01*
X179763926Y-114666315D01*
X179826563Y-114697790D01*
X179890379Y-114728722D01*
X179952140Y-114757473D01*
X180008612Y-114782408D01*
X180056562Y-114801889D01*
X180080014Y-114810318D01*
X180213779Y-114848133D01*
X180351673Y-114873136D01*
X180499378Y-114886140D01*
X180626167Y-114888468D01*
X180694122Y-114887373D01*
X180759723Y-114885275D01*
X180817153Y-114882434D01*
X180860597Y-114879106D01*
X180874702Y-114877422D01*
X181013716Y-114848587D01*
X181155243Y-114803468D01*
X181292725Y-114744750D01*
X181419606Y-114675120D01*
X181497111Y-114622441D01*
X181624519Y-114514239D01*
X181742822Y-114387671D01*
X181849828Y-114245866D01*
X181943348Y-114091951D01*
X182021190Y-113929053D01*
X182065044Y-113811756D01*
X182115292Y-113628128D01*
X182148791Y-113433581D01*
X182165551Y-113232325D01*
X182165584Y-113028568D01*
X182148899Y-112826521D01*
X182115507Y-112630392D01*
X182065420Y-112444391D01*
X182061603Y-112432803D01*
X181998719Y-112270750D01*
X181921972Y-112122832D01*
X181828758Y-111984865D01*
X181716473Y-111852661D01*
X181672608Y-111807399D01*
X181536466Y-111683457D01*
X181396509Y-111580915D01*
X181250589Y-111498656D01*
X181096558Y-111435564D01*
X180932268Y-111390523D01*
X180836711Y-111373033D01*
X180677977Y-111357466D01*
X180519571Y-111360071D01*
G36*
X178174426Y-112277552D02*
X178022508Y-112297567D01*
X177887244Y-112331202D01*
X177767761Y-112378725D01*
X177663185Y-112440405D01*
X177585576Y-112503965D01*
X177516735Y-112578099D01*
X177462994Y-112657871D01*
X177420090Y-112750091D01*
X177404616Y-112793161D01*
X177391756Y-112832142D01*
X177380554Y-112868289D01*
X177370880Y-112903434D01*
X177362604Y-112939410D01*
X177355597Y-112978050D01*
X177349728Y-113021185D01*
X177344869Y-113070649D01*
X177340890Y-113128273D01*
X177337660Y-113195891D01*
X177335051Y-113275334D01*
X177332933Y-113368436D01*
X177331176Y-113477027D01*
X177329651Y-113602942D01*
X177328228Y-113748012D01*
X177326975Y-113890778D01*
X177325649Y-114046968D01*
X177324444Y-114182239D01*
X177323234Y-114298246D01*
X177321894Y-114396645D01*
X177320300Y-114479093D01*
X177318325Y-114547246D01*
X177315844Y-114602760D01*
X177312731Y-114647292D01*
X177308862Y-114682498D01*
X177304111Y-114710034D01*
X177298352Y-114731556D01*
X177291461Y-114748722D01*
X177283311Y-114763186D01*
X177273777Y-114776606D01*
X177262734Y-114790638D01*
X177258434Y-114796071D01*
X177242614Y-114818910D01*
X177235578Y-114834463D01*
X177235556Y-114834922D01*
X177246433Y-114837121D01*
X177277418Y-114839147D01*
X177326043Y-114840942D01*
X177389837Y-114842451D01*
X177466331Y-114843616D01*
X177553056Y-114844380D01*
X177647543Y-114844686D01*
X177658450Y-114844689D01*
X178081343Y-114844689D01*
X178084605Y-114748622D01*
X178087867Y-114652556D01*
X178149956Y-114703543D01*
X178247286Y-114771057D01*
X178357187Y-114825749D01*
X178443651Y-114855978D01*
X178512722Y-114870666D01*
X178596075Y-114880659D01*
X178685841Y-114885646D01*
X178774155Y-114885313D01*
X178853149Y-114879351D01*
X178889378Y-114873638D01*
X179029397Y-114835776D01*
X179155822Y-114780932D01*
X179267740Y-114709924D01*
X179364238Y-114623568D01*
X179444400Y-114522679D01*
X179507313Y-114408076D01*
X179551688Y-114281984D01*
X179564022Y-114225401D01*
X179571632Y-114163202D01*
X179575261Y-114088363D01*
X179575755Y-114054467D01*
X179575690Y-114051282D01*
X178815752Y-114051282D01*
X178806459Y-114126333D01*
X178778272Y-114190160D01*
X178729803Y-114245798D01*
X178724746Y-114250211D01*
X178676452Y-114285037D01*
X178624743Y-114307620D01*
X178564011Y-114319540D01*
X178488648Y-114322383D01*
X178470541Y-114321978D01*
X178416722Y-114319325D01*
X178376692Y-114313909D01*
X178341676Y-114303745D01*
X178302897Y-114286850D01*
X178292255Y-114281672D01*
X178231604Y-114245844D01*
X178184785Y-114203212D01*
X178172048Y-114187973D01*
X178127378Y-114131462D01*
X178127378Y-113935586D01*
X178127914Y-113856939D01*
X178129604Y-113798988D01*
X178132572Y-113759875D01*
X178136943Y-113737741D01*
X178141028Y-113731274D01*
X178156953Y-113728111D01*
X178190736Y-113725488D01*
X178237660Y-113723655D01*
X178293007Y-113722857D01*
X178301894Y-113722842D01*
X178422670Y-113728096D01*
X178525340Y-113744263D01*
X178611894Y-113771961D01*
X178684319Y-113811808D01*
X178739249Y-113858758D01*
X178783796Y-113916645D01*
X178808520Y-113979693D01*
X178815752Y-114051282D01*
X179575690Y-114051282D01*
X179573822Y-113960712D01*
X179565478Y-113881812D01*
X179549232Y-113810590D01*
X179523595Y-113739864D01*
X179499599Y-113687493D01*
X179440980Y-113592196D01*
X179362883Y-113504170D01*
X179267685Y-113425017D01*
X179157762Y-113356340D01*
X179035490Y-113299741D01*
X178903245Y-113256821D01*
X178838578Y-113241882D01*
X178702396Y-113219777D01*
X178553951Y-113205194D01*
X178402495Y-113198813D01*
X178275936Y-113200445D01*
X178114050Y-113207224D01*
X178121470Y-113148245D01*
X178140762Y-113049092D01*
X178171896Y-112968372D01*
X178215731Y-112905466D01*
X178273129Y-112859756D01*
X178344952Y-112830622D01*
X178432059Y-112817447D01*
X178535314Y-112819611D01*
X178573289Y-112823612D01*
X178714480Y-112848780D01*
X178851293Y-112889814D01*
X178945822Y-112927815D01*
X178990982Y-112947190D01*
X179029415Y-112962760D01*
X179055766Y-112972405D01*
X179063454Y-112974452D01*
X179073198Y-112965374D01*
X179089917Y-112936405D01*
X179113768Y-112887217D01*
X179144907Y-112817484D01*
X179183493Y-112726879D01*
X179190090Y-112711089D01*
X179220147Y-112638772D01*
X179247126Y-112573425D01*
X179269864Y-112517906D01*
X179287194Y-112475072D01*
X179297952Y-112447781D01*
X179301059Y-112438942D01*
X179291060Y-112434187D01*
X179264783Y-112428910D01*
X179236511Y-112425231D01*
X179206354Y-112420474D01*
X179158567Y-112411028D01*
X179097388Y-112397820D01*
X179027054Y-112381776D01*
X178951806Y-112363820D01*
X178923245Y-112356797D01*
X178818184Y-112331209D01*
X178730520Y-112311147D01*
X178655932Y-112295969D01*
X178590097Y-112285035D01*
X178528693Y-112277704D01*
X178467398Y-112273335D01*
X178401890Y-112271287D01*
X178343872Y-112270889D01*
X178174426Y-112277552D01*
X178174426Y-112277552D01*
G37*
X178174426Y-112277552D02*
X178022508Y-112297567D01*
X177887244Y-112331202D01*
X177767761Y-112378725D01*
X177663185Y-112440405D01*
X177585576Y-112503965D01*
X177516735Y-112578099D01*
X177462994Y-112657871D01*
X177420090Y-112750091D01*
X177404616Y-112793161D01*
X177391756Y-112832142D01*
X177380554Y-112868289D01*
X177370880Y-112903434D01*
X177362604Y-112939410D01*
X177355597Y-112978050D01*
X177349728Y-113021185D01*
X177344869Y-113070649D01*
X177340890Y-113128273D01*
X177337660Y-113195891D01*
X177335051Y-113275334D01*
X177332933Y-113368436D01*
X177331176Y-113477027D01*
X177329651Y-113602942D01*
X177328228Y-113748012D01*
X177326975Y-113890778D01*
X177325649Y-114046968D01*
X177324444Y-114182239D01*
X177323234Y-114298246D01*
X177321894Y-114396645D01*
X177320300Y-114479093D01*
X177318325Y-114547246D01*
X177315844Y-114602760D01*
X177312731Y-114647292D01*
X177308862Y-114682498D01*
X177304111Y-114710034D01*
X177298352Y-114731556D01*
X177291461Y-114748722D01*
X177283311Y-114763186D01*
X177273777Y-114776606D01*
X177262734Y-114790638D01*
X177258434Y-114796071D01*
X177242614Y-114818910D01*
X177235578Y-114834463D01*
X177235556Y-114834922D01*
X177246433Y-114837121D01*
X177277418Y-114839147D01*
X177326043Y-114840942D01*
X177389837Y-114842451D01*
X177466331Y-114843616D01*
X177553056Y-114844380D01*
X177647543Y-114844686D01*
X177658450Y-114844689D01*
X178081343Y-114844689D01*
X178084605Y-114748622D01*
X178087867Y-114652556D01*
X178149956Y-114703543D01*
X178247286Y-114771057D01*
X178357187Y-114825749D01*
X178443651Y-114855978D01*
X178512722Y-114870666D01*
X178596075Y-114880659D01*
X178685841Y-114885646D01*
X178774155Y-114885313D01*
X178853149Y-114879351D01*
X178889378Y-114873638D01*
X179029397Y-114835776D01*
X179155822Y-114780932D01*
X179267740Y-114709924D01*
X179364238Y-114623568D01*
X179444400Y-114522679D01*
X179507313Y-114408076D01*
X179551688Y-114281984D01*
X179564022Y-114225401D01*
X179571632Y-114163202D01*
X179575261Y-114088363D01*
X179575755Y-114054467D01*
X179575690Y-114051282D01*
X178815752Y-114051282D01*
X178806459Y-114126333D01*
X178778272Y-114190160D01*
X178729803Y-114245798D01*
X178724746Y-114250211D01*
X178676452Y-114285037D01*
X178624743Y-114307620D01*
X178564011Y-114319540D01*
X178488648Y-114322383D01*
X178470541Y-114321978D01*
X178416722Y-114319325D01*
X178376692Y-114313909D01*
X178341676Y-114303745D01*
X178302897Y-114286850D01*
X178292255Y-114281672D01*
X178231604Y-114245844D01*
X178184785Y-114203212D01*
X178172048Y-114187973D01*
X178127378Y-114131462D01*
X178127378Y-113935586D01*
X178127914Y-113856939D01*
X178129604Y-113798988D01*
X178132572Y-113759875D01*
X178136943Y-113737741D01*
X178141028Y-113731274D01*
X178156953Y-113728111D01*
X178190736Y-113725488D01*
X178237660Y-113723655D01*
X178293007Y-113722857D01*
X178301894Y-113722842D01*
X178422670Y-113728096D01*
X178525340Y-113744263D01*
X178611894Y-113771961D01*
X178684319Y-113811808D01*
X178739249Y-113858758D01*
X178783796Y-113916645D01*
X178808520Y-113979693D01*
X178815752Y-114051282D01*
X179575690Y-114051282D01*
X179573822Y-113960712D01*
X179565478Y-113881812D01*
X179549232Y-113810590D01*
X179523595Y-113739864D01*
X179499599Y-113687493D01*
X179440980Y-113592196D01*
X179362883Y-113504170D01*
X179267685Y-113425017D01*
X179157762Y-113356340D01*
X179035490Y-113299741D01*
X178903245Y-113256821D01*
X178838578Y-113241882D01*
X178702396Y-113219777D01*
X178553951Y-113205194D01*
X178402495Y-113198813D01*
X178275936Y-113200445D01*
X178114050Y-113207224D01*
X178121470Y-113148245D01*
X178140762Y-113049092D01*
X178171896Y-112968372D01*
X178215731Y-112905466D01*
X178273129Y-112859756D01*
X178344952Y-112830622D01*
X178432059Y-112817447D01*
X178535314Y-112819611D01*
X178573289Y-112823612D01*
X178714480Y-112848780D01*
X178851293Y-112889814D01*
X178945822Y-112927815D01*
X178990982Y-112947190D01*
X179029415Y-112962760D01*
X179055766Y-112972405D01*
X179063454Y-112974452D01*
X179073198Y-112965374D01*
X179089917Y-112936405D01*
X179113768Y-112887217D01*
X179144907Y-112817484D01*
X179183493Y-112726879D01*
X179190090Y-112711089D01*
X179220147Y-112638772D01*
X179247126Y-112573425D01*
X179269864Y-112517906D01*
X179287194Y-112475072D01*
X179297952Y-112447781D01*
X179301059Y-112438942D01*
X179291060Y-112434187D01*
X179264783Y-112428910D01*
X179236511Y-112425231D01*
X179206354Y-112420474D01*
X179158567Y-112411028D01*
X179097388Y-112397820D01*
X179027054Y-112381776D01*
X178951806Y-112363820D01*
X178923245Y-112356797D01*
X178818184Y-112331209D01*
X178730520Y-112311147D01*
X178655932Y-112295969D01*
X178590097Y-112285035D01*
X178528693Y-112277704D01*
X178467398Y-112273335D01*
X178401890Y-112271287D01*
X178343872Y-112270889D01*
X178174426Y-112277552D01*
G36*
X174661493Y-112883245D02*
X174661474Y-113117662D01*
X174661448Y-113330603D01*
X174661375Y-113523168D01*
X174661218Y-113696459D01*
X174660936Y-113851576D01*
X174660491Y-113989620D01*
X174659844Y-114111692D01*
X174658955Y-114218894D01*
X174657787Y-114312326D01*
X174656299Y-114393090D01*
X174654454Y-114462286D01*
X174652211Y-114521015D01*
X174649531Y-114570379D01*
X174646377Y-114611478D01*
X174642708Y-114645413D01*
X174638487Y-114673286D01*
X174633673Y-114696198D01*
X174628227Y-114715249D01*
X174622112Y-114731540D01*
X174615288Y-114746173D01*
X174607715Y-114760249D01*
X174599355Y-114774868D01*
X174594161Y-114783974D01*
X174559896Y-114844689D01*
X175418045Y-114844689D01*
X175418045Y-114748733D01*
X175418776Y-114705370D01*
X175420728Y-114672205D01*
X175423537Y-114654424D01*
X175424779Y-114652778D01*
X175436201Y-114659662D01*
X175458916Y-114677505D01*
X175481615Y-114696879D01*
X175536200Y-114737614D01*
X175605679Y-114778617D01*
X175682730Y-114816123D01*
X175760035Y-114846364D01*
X175790887Y-114856012D01*
X175859384Y-114870578D01*
X175942236Y-114880539D01*
X176031629Y-114885583D01*
X176119752Y-114885396D01*
X176198793Y-114879666D01*
X176236489Y-114873858D01*
X176374586Y-114835797D01*
X176501887Y-114778073D01*
X176617708Y-114701211D01*
X176721363Y-114605739D01*
X176812167Y-114492179D01*
X176878969Y-114381381D01*
X176933836Y-114264625D01*
X176975837Y-114145276D01*
X177005833Y-114019283D01*
X177024689Y-113882594D01*
X177033268Y-113731158D01*
X177033994Y-113653711D01*
X177031900Y-113596934D01*
X176202783Y-113596934D01*
X176202576Y-113690002D01*
X176199663Y-113777692D01*
X176194000Y-113854772D01*
X176185545Y-113916009D01*
X176182962Y-113928350D01*
X176151160Y-114035633D01*
X176109502Y-114122658D01*
X176057637Y-114189642D01*
X175995219Y-114236805D01*
X175921900Y-114264365D01*
X175837331Y-114272541D01*
X175741165Y-114261551D01*
X175677689Y-114245829D01*
X175628546Y-114227639D01*
X175574417Y-114201791D01*
X175533756Y-114178089D01*
X175463200Y-114131721D01*
X175463200Y-112981530D01*
X175530608Y-112937962D01*
X175609133Y-112897040D01*
X175693319Y-112870389D01*
X175778443Y-112858465D01*
X175859784Y-112861722D01*
X175932620Y-112880615D01*
X175964574Y-112896184D01*
X176022499Y-112939181D01*
X176071456Y-112995953D01*
X176112610Y-113068575D01*
X176147126Y-113159121D01*
X176176167Y-113269666D01*
X176177448Y-113275533D01*
X176187619Y-113337788D01*
X176195261Y-113415594D01*
X176200330Y-113503720D01*
X176202783Y-113596934D01*
X177031900Y-113596934D01*
X177026143Y-113440895D01*
X177004198Y-113245059D01*
X176968214Y-113066332D01*
X176918241Y-112904845D01*
X176854332Y-112760726D01*
X176776538Y-112634106D01*
X176684911Y-112525115D01*
X176579503Y-112433883D01*
X176534338Y-112402932D01*
X176433389Y-112346785D01*
X176330099Y-112307174D01*
X176220011Y-112283014D01*
X176098670Y-112273219D01*
X176006164Y-112274265D01*
X175876510Y-112285231D01*
X175763916Y-112307046D01*
X175665125Y-112340714D01*
X175576879Y-112387236D01*
X175528014Y-112421448D01*
X175498647Y-112443362D01*
X175476957Y-112458333D01*
X175468747Y-112462733D01*
X175467132Y-112451904D01*
X175465841Y-112421251D01*
X175464862Y-112373526D01*
X175464183Y-112311479D01*
X175463790Y-112237862D01*
X175463670Y-112155427D01*
X175463812Y-112066925D01*
X175464203Y-111975107D01*
X175464829Y-111882724D01*
X175465680Y-111792528D01*
X175466740Y-111707271D01*
X175467999Y-111629703D01*
X175469444Y-111562576D01*
X175471062Y-111508641D01*
X175472839Y-111470650D01*
X175473331Y-111463667D01*
X175480908Y-111393251D01*
X175492469Y-111338102D01*
X175510208Y-111290981D01*
X175536318Y-111244647D01*
X175542585Y-111235067D01*
X175567017Y-111198378D01*
X174661689Y-111198378D01*
X174661493Y-112883245D01*
X174661493Y-112883245D01*
G37*
X174661493Y-112883245D02*
X174661474Y-113117662D01*
X174661448Y-113330603D01*
X174661375Y-113523168D01*
X174661218Y-113696459D01*
X174660936Y-113851576D01*
X174660491Y-113989620D01*
X174659844Y-114111692D01*
X174658955Y-114218894D01*
X174657787Y-114312326D01*
X174656299Y-114393090D01*
X174654454Y-114462286D01*
X174652211Y-114521015D01*
X174649531Y-114570379D01*
X174646377Y-114611478D01*
X174642708Y-114645413D01*
X174638487Y-114673286D01*
X174633673Y-114696198D01*
X174628227Y-114715249D01*
X174622112Y-114731540D01*
X174615288Y-114746173D01*
X174607715Y-114760249D01*
X174599355Y-114774868D01*
X174594161Y-114783974D01*
X174559896Y-114844689D01*
X175418045Y-114844689D01*
X175418045Y-114748733D01*
X175418776Y-114705370D01*
X175420728Y-114672205D01*
X175423537Y-114654424D01*
X175424779Y-114652778D01*
X175436201Y-114659662D01*
X175458916Y-114677505D01*
X175481615Y-114696879D01*
X175536200Y-114737614D01*
X175605679Y-114778617D01*
X175682730Y-114816123D01*
X175760035Y-114846364D01*
X175790887Y-114856012D01*
X175859384Y-114870578D01*
X175942236Y-114880539D01*
X176031629Y-114885583D01*
X176119752Y-114885396D01*
X176198793Y-114879666D01*
X176236489Y-114873858D01*
X176374586Y-114835797D01*
X176501887Y-114778073D01*
X176617708Y-114701211D01*
X176721363Y-114605739D01*
X176812167Y-114492179D01*
X176878969Y-114381381D01*
X176933836Y-114264625D01*
X176975837Y-114145276D01*
X177005833Y-114019283D01*
X177024689Y-113882594D01*
X177033268Y-113731158D01*
X177033994Y-113653711D01*
X177031900Y-113596934D01*
X176202783Y-113596934D01*
X176202576Y-113690002D01*
X176199663Y-113777692D01*
X176194000Y-113854772D01*
X176185545Y-113916009D01*
X176182962Y-113928350D01*
X176151160Y-114035633D01*
X176109502Y-114122658D01*
X176057637Y-114189642D01*
X175995219Y-114236805D01*
X175921900Y-114264365D01*
X175837331Y-114272541D01*
X175741165Y-114261551D01*
X175677689Y-114245829D01*
X175628546Y-114227639D01*
X175574417Y-114201791D01*
X175533756Y-114178089D01*
X175463200Y-114131721D01*
X175463200Y-112981530D01*
X175530608Y-112937962D01*
X175609133Y-112897040D01*
X175693319Y-112870389D01*
X175778443Y-112858465D01*
X175859784Y-112861722D01*
X175932620Y-112880615D01*
X175964574Y-112896184D01*
X176022499Y-112939181D01*
X176071456Y-112995953D01*
X176112610Y-113068575D01*
X176147126Y-113159121D01*
X176176167Y-113269666D01*
X176177448Y-113275533D01*
X176187619Y-113337788D01*
X176195261Y-113415594D01*
X176200330Y-113503720D01*
X176202783Y-113596934D01*
X177031900Y-113596934D01*
X177026143Y-113440895D01*
X177004198Y-113245059D01*
X176968214Y-113066332D01*
X176918241Y-112904845D01*
X176854332Y-112760726D01*
X176776538Y-112634106D01*
X176684911Y-112525115D01*
X176579503Y-112433883D01*
X176534338Y-112402932D01*
X176433389Y-112346785D01*
X176330099Y-112307174D01*
X176220011Y-112283014D01*
X176098670Y-112273219D01*
X176006164Y-112274265D01*
X175876510Y-112285231D01*
X175763916Y-112307046D01*
X175665125Y-112340714D01*
X175576879Y-112387236D01*
X175528014Y-112421448D01*
X175498647Y-112443362D01*
X175476957Y-112458333D01*
X175468747Y-112462733D01*
X175467132Y-112451904D01*
X175465841Y-112421251D01*
X175464862Y-112373526D01*
X175464183Y-112311479D01*
X175463790Y-112237862D01*
X175463670Y-112155427D01*
X175463812Y-112066925D01*
X175464203Y-111975107D01*
X175464829Y-111882724D01*
X175465680Y-111792528D01*
X175466740Y-111707271D01*
X175467999Y-111629703D01*
X175469444Y-111562576D01*
X175471062Y-111508641D01*
X175472839Y-111470650D01*
X175473331Y-111463667D01*
X175480908Y-111393251D01*
X175492469Y-111338102D01*
X175510208Y-111290981D01*
X175536318Y-111244647D01*
X175542585Y-111235067D01*
X175567017Y-111198378D01*
X174661689Y-111198378D01*
X174661493Y-112883245D01*
G36*
X183121043Y-110437571D02*
X183024768Y-110461809D01*
X182938184Y-110504641D01*
X182863373Y-110564419D01*
X182802418Y-110639494D01*
X182757399Y-110728220D01*
X182731136Y-110824530D01*
X182725286Y-110921795D01*
X182740140Y-111015654D01*
X182773840Y-111103511D01*
X182824528Y-111182770D01*
X182890345Y-111250836D01*
X182969434Y-111305112D01*
X183059934Y-111343002D01*
X183111200Y-111355426D01*
X183155698Y-111362947D01*
X183189999Y-111365919D01*
X183222960Y-111364094D01*
X183263434Y-111357225D01*
X183296531Y-111350250D01*
X183389947Y-111318741D01*
X183473619Y-111267617D01*
X183545665Y-111198429D01*
X183604200Y-111112728D01*
X183618148Y-111085489D01*
X183634586Y-111049122D01*
X183644894Y-111018582D01*
X183650460Y-110986450D01*
X183652669Y-110945307D01*
X183652948Y-110899222D01*
X183648861Y-110814865D01*
X183635446Y-110745586D01*
X183610256Y-110684961D01*
X183570846Y-110626567D01*
X183532298Y-110582302D01*
X183460406Y-110516484D01*
X183385313Y-110471053D01*
X183302562Y-110443850D01*
X183224928Y-110433576D01*
X183121043Y-110437571D01*
X183121043Y-110437571D01*
G37*
X183121043Y-110437571D02*
X183024768Y-110461809D01*
X182938184Y-110504641D01*
X182863373Y-110564419D01*
X182802418Y-110639494D01*
X182757399Y-110728220D01*
X182731136Y-110824530D01*
X182725286Y-110921795D01*
X182740140Y-111015654D01*
X182773840Y-111103511D01*
X182824528Y-111182770D01*
X182890345Y-111250836D01*
X182969434Y-111305112D01*
X183059934Y-111343002D01*
X183111200Y-111355426D01*
X183155698Y-111362947D01*
X183189999Y-111365919D01*
X183222960Y-111364094D01*
X183263434Y-111357225D01*
X183296531Y-111350250D01*
X183389947Y-111318741D01*
X183473619Y-111267617D01*
X183545665Y-111198429D01*
X183604200Y-111112728D01*
X183618148Y-111085489D01*
X183634586Y-111049122D01*
X183644894Y-111018582D01*
X183650460Y-110986450D01*
X183652669Y-110945307D01*
X183652948Y-110899222D01*
X183648861Y-110814865D01*
X183635446Y-110745586D01*
X183610256Y-110684961D01*
X183570846Y-110626567D01*
X183532298Y-110582302D01*
X183460406Y-110516484D01*
X183385313Y-110471053D01*
X183302562Y-110443850D01*
X183224928Y-110433576D01*
X183121043Y-110437571D01*
M02*
