G04 #@! TF.FileFunction,Copper,L2,Bot,Signal*
%FSLAX46Y46*%
G04 Gerber Fmt 4.6, Leading zero omitted, Abs format (unit mm)*
G04 Created by KiCad (PCBNEW 4.0.7) date 11/01/17 14:12:36*
%MOMM*%
%LPD*%
G01*
G04 APERTURE LIST*
%ADD10C,0.076200*%
%ADD11R,1.700000X1.700000*%
%ADD12O,1.700000X1.700000*%
%ADD13C,0.685800*%
%ADD14C,1.219200*%
G04 APERTURE END LIST*
D10*
D11*
X164338000Y-102108000D03*
D12*
X164338000Y-99568000D03*
D11*
X196850000Y-99568000D03*
D12*
X196850000Y-102108000D03*
D11*
X164338000Y-111252000D03*
D12*
X164338000Y-113792000D03*
D11*
X196850000Y-111252000D03*
D12*
X196850000Y-113792000D03*
D11*
X166878000Y-106680000D03*
D12*
X164338000Y-106680000D03*
D11*
X196850000Y-106680000D03*
D12*
X194310000Y-106680000D03*
D13*
X178769000Y-113110000D03*
X184181000Y-105791000D03*
D14*
X196850000Y-102108000D02*
X195647919Y-102108000D01*
X195647919Y-102108000D02*
X192697999Y-105057920D01*
X192697999Y-110842080D02*
X195647919Y-113792000D01*
X192697999Y-105057920D02*
X192697999Y-110842080D01*
X195647919Y-113792000D02*
X196850000Y-113792000D01*
X164338000Y-99568000D02*
X165540081Y-99568000D01*
X165540081Y-113792000D02*
X164338000Y-113792000D01*
X165540081Y-99568000D02*
X168490001Y-102517920D01*
X168490001Y-102517920D02*
X168490001Y-110842080D01*
X168490001Y-110842080D02*
X165540081Y-113792000D01*
X178769000Y-113110000D02*
X179111899Y-112767101D01*
X179111899Y-112767101D02*
X179111899Y-110860101D01*
X179111899Y-110860101D02*
X179324000Y-110648000D01*
X179324000Y-110648000D02*
X184181000Y-105791000D01*
M02*
