G04 #@! TF.FileFunction,Soldermask,Top*
%FSLAX46Y46*%
G04 Gerber Fmt 4.6, Leading zero omitted, Abs format (unit mm)*
G04 Created by KiCad (PCBNEW 4.0.7) date 11/01/17 14:12:36*
%MOMM*%
%LPD*%
G01*
G04 APERTURE LIST*
%ADD10C,0.076200*%
%ADD11R,1.100000X0.400000*%
%ADD12R,1.500000X1.250000*%
%ADD13R,1.250000X1.500000*%
%ADD14R,0.750000X1.200000*%
%ADD15R,3.500000X1.800000*%
%ADD16R,0.600000X0.400000*%
%ADD17R,1.300000X1.500000*%
%ADD18R,1.700000X1.700000*%
%ADD19O,1.700000X1.700000*%
%ADD20R,2.500000X3.200000*%
%ADD21R,2.700000X3.750000*%
%ADD22R,1.600000X5.700000*%
G04 APERTURE END LIST*
D10*
D11*
X176412000Y-106213000D03*
X176412000Y-106863000D03*
X176412000Y-107513000D03*
X176412000Y-108163000D03*
X180712000Y-108163000D03*
X180712000Y-107513000D03*
X180712000Y-106863000D03*
X180712000Y-106213000D03*
D12*
X181122000Y-110236000D03*
X183622000Y-110236000D03*
D13*
X175006000Y-112883000D03*
X175006000Y-110383000D03*
D14*
X193548000Y-111567000D03*
X193548000Y-109667000D03*
D15*
X189317000Y-98679000D03*
X184317000Y-98679000D03*
D16*
X183134000Y-107638000D03*
X183134000Y-106738000D03*
X178816000Y-109786000D03*
X178816000Y-110686000D03*
D17*
X177038000Y-113110000D03*
X177038000Y-110410000D03*
D16*
X174752000Y-107119000D03*
X174752000Y-108019000D03*
D18*
X164338000Y-102108000D03*
D19*
X164338000Y-99568000D03*
D18*
X196850000Y-99568000D03*
D19*
X196850000Y-102108000D03*
D20*
X171577000Y-101092000D03*
X171577000Y-105392000D03*
D21*
X188976000Y-103032000D03*
X188976000Y-110582000D03*
D22*
X180658000Y-100076000D03*
X175958000Y-100076000D03*
D18*
X164338000Y-111252000D03*
D19*
X164338000Y-113792000D03*
D18*
X196850000Y-111252000D03*
D19*
X196850000Y-113792000D03*
D18*
X166878000Y-106680000D03*
D19*
X164338000Y-106680000D03*
D18*
X196850000Y-106680000D03*
D19*
X194310000Y-106680000D03*
M02*
