G04 #@! TF.FileFunction,Legend,Top*
%FSLAX46Y46*%
G04 Gerber Fmt 4.6, Leading zero omitted, Abs format (unit mm)*
G04 Created by KiCad (PCBNEW 4.0.7) date 11/01/17 14:12:36*
%MOMM*%
%LPD*%
G01*
G04 APERTURE LIST*
%ADD10C,0.076200*%
%ADD11C,0.152400*%
%ADD12C,0.127000*%
%ADD13C,0.100000*%
%ADD14C,0.150000*%
%ADD15C,0.120000*%
G04 APERTURE END LIST*
D10*
D11*
X195075629Y-99047905D02*
X195075629Y-99822000D01*
X194688581Y-99434952D02*
X195462676Y-99434952D01*
X194028181Y-99531714D02*
X194028181Y-99047905D01*
X193544371Y-98999524D01*
X193592752Y-99047905D01*
X193641133Y-99144667D01*
X193641133Y-99386571D01*
X193592752Y-99483333D01*
X193544371Y-99531714D01*
X193447610Y-99580095D01*
X193205705Y-99580095D01*
X193108943Y-99531714D01*
X193060562Y-99483333D01*
X193012181Y-99386571D01*
X193012181Y-99144667D01*
X193060562Y-99047905D01*
X193108943Y-98999524D01*
X194028181Y-99870381D02*
X193012181Y-100209048D01*
X194028181Y-100547714D01*
X194028181Y-101854000D02*
X194028181Y-102047523D01*
X193979800Y-102144285D01*
X193883038Y-102241047D01*
X193689514Y-102289428D01*
X193350848Y-102289428D01*
X193157324Y-102241047D01*
X193060562Y-102144285D01*
X193012181Y-102047523D01*
X193012181Y-101854000D01*
X193060562Y-101757238D01*
X193157324Y-101660476D01*
X193350848Y-101612095D01*
X193689514Y-101612095D01*
X193883038Y-101660476D01*
X193979800Y-101757238D01*
X194028181Y-101854000D01*
X193689514Y-103160285D02*
X193012181Y-103160285D01*
X193689514Y-102724857D02*
X193157324Y-102724857D01*
X193060562Y-102773238D01*
X193012181Y-102870000D01*
X193012181Y-103015142D01*
X193060562Y-103111904D01*
X193108943Y-103160285D01*
X193689514Y-103498952D02*
X193689514Y-103886000D01*
X194028181Y-103644095D02*
X193157324Y-103644095D01*
X193060562Y-103692476D01*
X193012181Y-103789238D01*
X193012181Y-103886000D01*
X166112371Y-102501095D02*
X166112371Y-101727000D01*
X166499419Y-102114048D02*
X165725324Y-102114048D01*
X167159819Y-102597857D02*
X167159819Y-101968905D01*
X167546867Y-102307571D01*
X167546867Y-102162429D01*
X167595248Y-102065667D01*
X167643629Y-102017286D01*
X167740390Y-101968905D01*
X167982295Y-101968905D01*
X168079057Y-102017286D01*
X168127438Y-102065667D01*
X168175819Y-102162429D01*
X168175819Y-102452714D01*
X168127438Y-102549476D01*
X168079057Y-102597857D01*
X167159819Y-101678619D02*
X168175819Y-101339952D01*
X167159819Y-101001286D01*
X167159819Y-100759381D02*
X167159819Y-100082048D01*
X168175819Y-100517476D01*
X167159819Y-99066048D02*
X168175819Y-98727381D01*
X167159819Y-98388715D01*
X168175819Y-98050048D02*
X167498486Y-98050048D01*
X167159819Y-98050048D02*
X167208200Y-98098429D01*
X167256581Y-98050048D01*
X167208200Y-98001667D01*
X167159819Y-98050048D01*
X167256581Y-98050048D01*
X167498486Y-97566238D02*
X168175819Y-97566238D01*
X167595248Y-97566238D02*
X167546867Y-97517857D01*
X167498486Y-97421095D01*
X167498486Y-97275953D01*
X167546867Y-97179191D01*
X167643629Y-97130810D01*
X168175819Y-97130810D01*
D12*
X167071523Y-115216214D02*
X166902189Y-115216214D01*
X166902189Y-115482310D02*
X166902189Y-114974310D01*
X167144094Y-114974310D01*
X167337618Y-115482310D02*
X167337618Y-115143643D01*
X167337618Y-114974310D02*
X167313428Y-114998500D01*
X167337618Y-115022690D01*
X167361809Y-114998500D01*
X167337618Y-114974310D01*
X167337618Y-115022690D01*
X167773047Y-115458119D02*
X167724666Y-115482310D01*
X167627904Y-115482310D01*
X167579523Y-115458119D01*
X167555333Y-115409738D01*
X167555333Y-115216214D01*
X167579523Y-115167833D01*
X167627904Y-115143643D01*
X167724666Y-115143643D01*
X167773047Y-115167833D01*
X167797238Y-115216214D01*
X167797238Y-115264595D01*
X167555333Y-115312976D01*
X168087524Y-115482310D02*
X168039143Y-115458119D01*
X168014952Y-115409738D01*
X168014952Y-114974310D01*
X168498762Y-115482310D02*
X168498762Y-114974310D01*
X168498762Y-115458119D02*
X168450381Y-115482310D01*
X168353619Y-115482310D01*
X168305238Y-115458119D01*
X168281047Y-115433929D01*
X168256857Y-115385548D01*
X168256857Y-115240405D01*
X168281047Y-115192024D01*
X168305238Y-115167833D01*
X168353619Y-115143643D01*
X168450381Y-115143643D01*
X168498762Y-115167833D01*
X169127714Y-115482310D02*
X169127714Y-114974310D01*
X169248667Y-114974310D01*
X169321238Y-114998500D01*
X169369619Y-115046881D01*
X169393810Y-115095262D01*
X169418000Y-115192024D01*
X169418000Y-115264595D01*
X169393810Y-115361357D01*
X169369619Y-115409738D01*
X169321238Y-115458119D01*
X169248667Y-115482310D01*
X169127714Y-115482310D01*
X169829238Y-115458119D02*
X169780857Y-115482310D01*
X169684095Y-115482310D01*
X169635714Y-115458119D01*
X169611524Y-115409738D01*
X169611524Y-115216214D01*
X169635714Y-115167833D01*
X169684095Y-115143643D01*
X169780857Y-115143643D01*
X169829238Y-115167833D01*
X169853429Y-115216214D01*
X169853429Y-115264595D01*
X169611524Y-115312976D01*
X170022762Y-115143643D02*
X170143715Y-115482310D01*
X170264667Y-115143643D01*
X170458191Y-115482310D02*
X170458191Y-115143643D01*
X170458191Y-114974310D02*
X170434001Y-114998500D01*
X170458191Y-115022690D01*
X170482382Y-114998500D01*
X170458191Y-114974310D01*
X170458191Y-115022690D01*
X170917811Y-115458119D02*
X170869430Y-115482310D01*
X170772668Y-115482310D01*
X170724287Y-115458119D01*
X170700096Y-115433929D01*
X170675906Y-115385548D01*
X170675906Y-115240405D01*
X170700096Y-115192024D01*
X170724287Y-115167833D01*
X170772668Y-115143643D01*
X170869430Y-115143643D01*
X170917811Y-115167833D01*
X171329049Y-115458119D02*
X171280668Y-115482310D01*
X171183906Y-115482310D01*
X171135525Y-115458119D01*
X171111335Y-115409738D01*
X171111335Y-115216214D01*
X171135525Y-115167833D01*
X171183906Y-115143643D01*
X171280668Y-115143643D01*
X171329049Y-115167833D01*
X171353240Y-115216214D01*
X171353240Y-115264595D01*
X171111335Y-115312976D01*
X171958002Y-115482310D02*
X171958002Y-114974310D01*
X172151526Y-114974310D01*
X172199907Y-114998500D01*
X172224098Y-115022690D01*
X172248288Y-115071071D01*
X172248288Y-115143643D01*
X172224098Y-115192024D01*
X172199907Y-115216214D01*
X172151526Y-115240405D01*
X171958002Y-115240405D01*
X172538574Y-115482310D02*
X172490193Y-115458119D01*
X172466002Y-115433929D01*
X172441812Y-115385548D01*
X172441812Y-115240405D01*
X172466002Y-115192024D01*
X172490193Y-115167833D01*
X172538574Y-115143643D01*
X172611145Y-115143643D01*
X172659526Y-115167833D01*
X172683717Y-115192024D01*
X172707907Y-115240405D01*
X172707907Y-115385548D01*
X172683717Y-115433929D01*
X172659526Y-115458119D01*
X172611145Y-115482310D01*
X172538574Y-115482310D01*
X172877240Y-115143643D02*
X172974002Y-115482310D01*
X173070764Y-115240405D01*
X173167526Y-115482310D01*
X173264288Y-115143643D01*
X173651335Y-115458119D02*
X173602954Y-115482310D01*
X173506192Y-115482310D01*
X173457811Y-115458119D01*
X173433621Y-115409738D01*
X173433621Y-115216214D01*
X173457811Y-115167833D01*
X173506192Y-115143643D01*
X173602954Y-115143643D01*
X173651335Y-115167833D01*
X173675526Y-115216214D01*
X173675526Y-115264595D01*
X173433621Y-115312976D01*
X173893240Y-115482310D02*
X173893240Y-115143643D01*
X173893240Y-115240405D02*
X173917431Y-115192024D01*
X173941621Y-115167833D01*
X173990002Y-115143643D01*
X174038383Y-115143643D01*
X168256856Y-116371310D02*
X168014951Y-116371310D01*
X168014951Y-115863310D01*
X168426189Y-116371310D02*
X168426189Y-115863310D01*
X168595523Y-116226167D01*
X168764856Y-115863310D01*
X168764856Y-116371310D01*
X168982570Y-115911690D02*
X169006760Y-115887500D01*
X169055141Y-115863310D01*
X169176094Y-115863310D01*
X169224475Y-115887500D01*
X169248665Y-115911690D01*
X169272856Y-115960071D01*
X169272856Y-116008452D01*
X169248665Y-116081024D01*
X168958379Y-116371310D01*
X169272856Y-116371310D01*
X169708285Y-115863310D02*
X169611523Y-115863310D01*
X169563142Y-115887500D01*
X169538951Y-115911690D01*
X169490570Y-115984262D01*
X169466380Y-116081024D01*
X169466380Y-116274548D01*
X169490570Y-116322929D01*
X169514761Y-116347119D01*
X169563142Y-116371310D01*
X169659904Y-116371310D01*
X169708285Y-116347119D01*
X169732475Y-116322929D01*
X169756666Y-116274548D01*
X169756666Y-116153595D01*
X169732475Y-116105214D01*
X169708285Y-116081024D01*
X169659904Y-116056833D01*
X169563142Y-116056833D01*
X169514761Y-116081024D01*
X169490570Y-116105214D01*
X169466380Y-116153595D01*
X169950190Y-115911690D02*
X169974380Y-115887500D01*
X170022761Y-115863310D01*
X170143714Y-115863310D01*
X170192095Y-115887500D01*
X170216285Y-115911690D01*
X170240476Y-115960071D01*
X170240476Y-116008452D01*
X170216285Y-116081024D01*
X169925999Y-116371310D01*
X170240476Y-116371310D01*
X170724286Y-116371310D02*
X170434000Y-116371310D01*
X170579143Y-116371310D02*
X170579143Y-115863310D01*
X170530762Y-115935881D01*
X170482381Y-115984262D01*
X170434000Y-116008452D01*
X171304858Y-115911690D02*
X171329048Y-115887500D01*
X171377429Y-115863310D01*
X171498382Y-115863310D01*
X171546763Y-115887500D01*
X171570953Y-115911690D01*
X171595144Y-115960071D01*
X171595144Y-116008452D01*
X171570953Y-116081024D01*
X171280667Y-116371310D01*
X171595144Y-116371310D01*
X172054763Y-116371310D02*
X171812858Y-116371310D01*
X171812858Y-115863310D01*
X172103144Y-116419690D02*
X172490192Y-116419690D01*
X172877240Y-116371310D02*
X172586954Y-116371310D01*
X172732097Y-116371310D02*
X172732097Y-115863310D01*
X172683716Y-115935881D01*
X172635335Y-115984262D01*
X172586954Y-116008452D01*
X194176952Y-108494286D02*
X194564000Y-108494286D01*
X194370476Y-108687810D02*
X194370476Y-108300762D01*
X195192952Y-108687810D02*
X195192952Y-108179810D01*
X195434857Y-108494286D02*
X195821905Y-108494286D01*
X196136381Y-108687810D02*
X196088000Y-108663619D01*
X196063809Y-108639429D01*
X196039619Y-108591048D01*
X196039619Y-108445905D01*
X196063809Y-108397524D01*
X196088000Y-108373333D01*
X196136381Y-108349143D01*
X196208952Y-108349143D01*
X196257333Y-108373333D01*
X196281524Y-108397524D01*
X196305714Y-108445905D01*
X196305714Y-108591048D01*
X196281524Y-108639429D01*
X196257333Y-108663619D01*
X196208952Y-108687810D01*
X196136381Y-108687810D01*
X196741143Y-108349143D02*
X196741143Y-108687810D01*
X196523428Y-108349143D02*
X196523428Y-108615238D01*
X196547619Y-108663619D01*
X196596000Y-108687810D01*
X196668571Y-108687810D01*
X196716952Y-108663619D01*
X196741143Y-108639429D01*
X196910476Y-108349143D02*
X197104000Y-108349143D01*
X196983047Y-108179810D02*
X196983047Y-108615238D01*
X197007238Y-108663619D01*
X197055619Y-108687810D01*
X197104000Y-108687810D01*
X197587810Y-108179810D02*
X197878096Y-108179810D01*
X197732953Y-108687810D02*
X197732953Y-108179810D01*
X198047429Y-108349143D02*
X198047429Y-108857143D01*
X198047429Y-108373333D02*
X198095810Y-108349143D01*
X198192572Y-108349143D01*
X198240953Y-108373333D01*
X198265144Y-108397524D01*
X198289334Y-108445905D01*
X198289334Y-108591048D01*
X198265144Y-108639429D01*
X198240953Y-108663619D01*
X198192572Y-108687810D01*
X198095810Y-108687810D01*
X198047429Y-108663619D01*
X194793810Y-115394619D02*
X195301810Y-115225286D01*
X194793810Y-115055952D01*
X195108286Y-114886619D02*
X195108286Y-114499571D01*
X195301810Y-114185095D02*
X195277619Y-114233476D01*
X195253429Y-114257667D01*
X195205048Y-114281857D01*
X195059905Y-114281857D01*
X195011524Y-114257667D01*
X194987333Y-114233476D01*
X194963143Y-114185095D01*
X194963143Y-114112524D01*
X194987333Y-114064143D01*
X195011524Y-114039952D01*
X195059905Y-114015762D01*
X195205048Y-114015762D01*
X195253429Y-114039952D01*
X195277619Y-114064143D01*
X195301810Y-114112524D01*
X195301810Y-114185095D01*
X194963143Y-113580333D02*
X195301810Y-113580333D01*
X194963143Y-113798048D02*
X195229238Y-113798048D01*
X195277619Y-113773857D01*
X195301810Y-113725476D01*
X195301810Y-113652905D01*
X195277619Y-113604524D01*
X195253429Y-113580333D01*
X194963143Y-113411000D02*
X194963143Y-113217476D01*
X194793810Y-113338429D02*
X195229238Y-113338429D01*
X195277619Y-113314238D01*
X195301810Y-113265857D01*
X195301810Y-113217476D01*
X194793810Y-112733666D02*
X194793810Y-112443380D01*
X195301810Y-112588523D02*
X194793810Y-112588523D01*
X194963143Y-112274047D02*
X195471143Y-112274047D01*
X194987333Y-112274047D02*
X194963143Y-112225666D01*
X194963143Y-112128904D01*
X194987333Y-112080523D01*
X195011524Y-112056332D01*
X195059905Y-112032142D01*
X195205048Y-112032142D01*
X195253429Y-112056332D01*
X195277619Y-112080523D01*
X195301810Y-112128904D01*
X195301810Y-112225666D01*
X195277619Y-112274047D01*
X195108286Y-111427380D02*
X195108286Y-111040332D01*
X195301810Y-111233856D02*
X194914762Y-111233856D01*
X163823952Y-108748286D02*
X164211000Y-108748286D01*
X164017476Y-108941810D02*
X164017476Y-108554762D01*
X164839952Y-108941810D02*
X164839952Y-108433810D01*
X165081857Y-108748286D02*
X165468905Y-108748286D01*
X165710809Y-108941810D02*
X165710809Y-108603143D01*
X165710809Y-108433810D02*
X165686619Y-108458000D01*
X165710809Y-108482190D01*
X165735000Y-108458000D01*
X165710809Y-108433810D01*
X165710809Y-108482190D01*
X165952714Y-108603143D02*
X165952714Y-108941810D01*
X165952714Y-108651524D02*
X165976905Y-108627333D01*
X166025286Y-108603143D01*
X166097857Y-108603143D01*
X166146238Y-108627333D01*
X166170429Y-108675714D01*
X166170429Y-108941810D01*
X166726810Y-108433810D02*
X167017096Y-108433810D01*
X166871953Y-108941810D02*
X166871953Y-108433810D01*
X167186429Y-108603143D02*
X167186429Y-109111143D01*
X167186429Y-108627333D02*
X167234810Y-108603143D01*
X167331572Y-108603143D01*
X167379953Y-108627333D01*
X167404144Y-108651524D01*
X167428334Y-108699905D01*
X167428334Y-108845048D01*
X167404144Y-108893429D01*
X167379953Y-108917619D01*
X167331572Y-108941810D01*
X167234810Y-108941810D01*
X167186429Y-108917619D01*
X165837810Y-114886619D02*
X166345810Y-114717286D01*
X165837810Y-114547952D01*
X166152286Y-114378619D02*
X166152286Y-113991571D01*
X166345810Y-113749667D02*
X166007143Y-113749667D01*
X165837810Y-113749667D02*
X165862000Y-113773857D01*
X165886190Y-113749667D01*
X165862000Y-113725476D01*
X165837810Y-113749667D01*
X165886190Y-113749667D01*
X166007143Y-113507762D02*
X166345810Y-113507762D01*
X166055524Y-113507762D02*
X166031333Y-113483571D01*
X166007143Y-113435190D01*
X166007143Y-113362619D01*
X166031333Y-113314238D01*
X166079714Y-113290047D01*
X166345810Y-113290047D01*
X165837810Y-112733666D02*
X165837810Y-112443380D01*
X166345810Y-112588523D02*
X165837810Y-112588523D01*
X166007143Y-112274047D02*
X166515143Y-112274047D01*
X166031333Y-112274047D02*
X166007143Y-112225666D01*
X166007143Y-112128904D01*
X166031333Y-112080523D01*
X166055524Y-112056332D01*
X166103905Y-112032142D01*
X166249048Y-112032142D01*
X166297429Y-112056332D01*
X166321619Y-112080523D01*
X166345810Y-112128904D01*
X166345810Y-112225666D01*
X166321619Y-112274047D01*
X166152286Y-111427380D02*
X166152286Y-111040332D01*
X166345810Y-111233856D02*
X165958762Y-111233856D01*
D13*
G36*
X173484378Y-110889418D02*
X173482238Y-111483076D01*
X173482000Y-111667945D01*
X173480032Y-112308217D01*
X173473365Y-112798453D01*
X173460856Y-113157914D01*
X173441361Y-113405861D01*
X173413735Y-113561554D01*
X173376835Y-113644252D01*
X173363831Y-113657670D01*
X173196596Y-113729142D01*
X173058667Y-113759474D01*
X173058667Y-113305748D01*
X173058667Y-111712371D01*
X173054611Y-111191909D01*
X173043250Y-110742332D01*
X173025795Y-110388665D01*
X173003453Y-110155937D01*
X172979275Y-110069926D01*
X172867827Y-110039092D01*
X172625552Y-109992619D01*
X172289493Y-109937095D01*
X171942108Y-109885485D01*
X171313640Y-109823536D01*
X170586051Y-109795245D01*
X169816137Y-109799497D01*
X169060692Y-109835179D01*
X168376514Y-109901176D01*
X167978667Y-109963237D01*
X167428333Y-110067859D01*
X167405366Y-111689143D01*
X167382399Y-113310426D01*
X167955699Y-113401198D01*
X168291613Y-113453928D01*
X168596424Y-113501002D01*
X168783000Y-113529091D01*
X169023169Y-113546739D01*
X169394525Y-113553161D01*
X169859383Y-113549617D01*
X170380057Y-113537364D01*
X170918862Y-113517660D01*
X171438112Y-113491761D01*
X171900122Y-113460926D01*
X172267206Y-113426412D01*
X172402500Y-113408306D01*
X173058667Y-113305748D01*
X173058667Y-113759474D01*
X172887275Y-113797166D01*
X172463113Y-113859037D01*
X171951356Y-113912051D01*
X171379249Y-113953504D01*
X170774039Y-113980692D01*
X170162969Y-113990910D01*
X170010667Y-113990483D01*
X169525669Y-113985260D01*
X169086889Y-113977201D01*
X168728154Y-113967183D01*
X168483292Y-113956080D01*
X168402000Y-113948816D01*
X167895428Y-113865236D01*
X167487639Y-113782708D01*
X167202462Y-113706632D01*
X167068500Y-113646674D01*
X167031465Y-113568849D01*
X167003306Y-113393790D01*
X166983198Y-113106075D01*
X166970317Y-112690284D01*
X166963837Y-112130996D01*
X166962667Y-111667945D01*
X166963618Y-111051599D01*
X166967577Y-110583164D01*
X166976200Y-110241224D01*
X166991144Y-110004362D01*
X167014066Y-109851160D01*
X167046622Y-109760203D01*
X167090468Y-109710073D01*
X167115312Y-109694597D01*
X167381200Y-109601179D01*
X167786761Y-109521175D01*
X168302773Y-109455830D01*
X168900015Y-109406389D01*
X169549264Y-109374099D01*
X170221298Y-109360204D01*
X170886896Y-109365950D01*
X171516834Y-109392582D01*
X172081891Y-109441346D01*
X172320193Y-109472783D01*
X172685658Y-109524423D01*
X172965762Y-109569352D01*
X173171766Y-109628847D01*
X173314929Y-109724182D01*
X173406512Y-109876632D01*
X173457775Y-110107471D01*
X173479977Y-110437975D01*
X173484378Y-110889418D01*
X173484378Y-110889418D01*
X173484378Y-110889418D01*
G37*
X173484378Y-110889418D02*
X173482238Y-111483076D01*
X173482000Y-111667945D01*
X173480032Y-112308217D01*
X173473365Y-112798453D01*
X173460856Y-113157914D01*
X173441361Y-113405861D01*
X173413735Y-113561554D01*
X173376835Y-113644252D01*
X173363831Y-113657670D01*
X173196596Y-113729142D01*
X173058667Y-113759474D01*
X173058667Y-113305748D01*
X173058667Y-111712371D01*
X173054611Y-111191909D01*
X173043250Y-110742332D01*
X173025795Y-110388665D01*
X173003453Y-110155937D01*
X172979275Y-110069926D01*
X172867827Y-110039092D01*
X172625552Y-109992619D01*
X172289493Y-109937095D01*
X171942108Y-109885485D01*
X171313640Y-109823536D01*
X170586051Y-109795245D01*
X169816137Y-109799497D01*
X169060692Y-109835179D01*
X168376514Y-109901176D01*
X167978667Y-109963237D01*
X167428333Y-110067859D01*
X167405366Y-111689143D01*
X167382399Y-113310426D01*
X167955699Y-113401198D01*
X168291613Y-113453928D01*
X168596424Y-113501002D01*
X168783000Y-113529091D01*
X169023169Y-113546739D01*
X169394525Y-113553161D01*
X169859383Y-113549617D01*
X170380057Y-113537364D01*
X170918862Y-113517660D01*
X171438112Y-113491761D01*
X171900122Y-113460926D01*
X172267206Y-113426412D01*
X172402500Y-113408306D01*
X173058667Y-113305748D01*
X173058667Y-113759474D01*
X172887275Y-113797166D01*
X172463113Y-113859037D01*
X171951356Y-113912051D01*
X171379249Y-113953504D01*
X170774039Y-113980692D01*
X170162969Y-113990910D01*
X170010667Y-113990483D01*
X169525669Y-113985260D01*
X169086889Y-113977201D01*
X168728154Y-113967183D01*
X168483292Y-113956080D01*
X168402000Y-113948816D01*
X167895428Y-113865236D01*
X167487639Y-113782708D01*
X167202462Y-113706632D01*
X167068500Y-113646674D01*
X167031465Y-113568849D01*
X167003306Y-113393790D01*
X166983198Y-113106075D01*
X166970317Y-112690284D01*
X166963837Y-112130996D01*
X166962667Y-111667945D01*
X166963618Y-111051599D01*
X166967577Y-110583164D01*
X166976200Y-110241224D01*
X166991144Y-110004362D01*
X167014066Y-109851160D01*
X167046622Y-109760203D01*
X167090468Y-109710073D01*
X167115312Y-109694597D01*
X167381200Y-109601179D01*
X167786761Y-109521175D01*
X168302773Y-109455830D01*
X168900015Y-109406389D01*
X169549264Y-109374099D01*
X170221298Y-109360204D01*
X170886896Y-109365950D01*
X171516834Y-109392582D01*
X172081891Y-109441346D01*
X172320193Y-109472783D01*
X172685658Y-109524423D01*
X172965762Y-109569352D01*
X173171766Y-109628847D01*
X173314929Y-109724182D01*
X173406512Y-109876632D01*
X173457775Y-110107471D01*
X173479977Y-110437975D01*
X173484378Y-110889418D01*
X173484378Y-110889418D01*
G36*
X170522670Y-112034396D02*
X170475189Y-112417950D01*
X170310447Y-112767481D01*
X170036161Y-113036811D01*
X169894903Y-113110168D01*
X169706567Y-113160105D01*
X169435715Y-113191878D01*
X169046911Y-113210742D01*
X168825333Y-113216393D01*
X168428939Y-113220691D01*
X168090647Y-113216729D01*
X167848870Y-113205450D01*
X167745833Y-113189953D01*
X167656971Y-113072885D01*
X167648884Y-112894760D01*
X167716694Y-112740596D01*
X167773925Y-112700391D01*
X167912727Y-112678378D01*
X168176799Y-112661077D01*
X168522093Y-112650813D01*
X168747591Y-112649000D01*
X169229135Y-112633429D01*
X169565671Y-112579481D01*
X169779272Y-112476299D01*
X169892013Y-112313028D01*
X169925967Y-112078811D01*
X169926000Y-112069455D01*
X169859502Y-111805492D01*
X169654858Y-111618644D01*
X169304342Y-111503320D01*
X169102924Y-111473904D01*
X168827361Y-111438063D01*
X168680693Y-111392056D01*
X168622873Y-111314255D01*
X168613667Y-111209666D01*
X168624631Y-111095268D01*
X168682964Y-111028955D01*
X168826824Y-110994166D01*
X169094369Y-110974341D01*
X169164000Y-110970817D01*
X169580280Y-110974844D01*
X169879980Y-111039245D01*
X169974279Y-111081786D01*
X170270942Y-111326094D01*
X170454163Y-111657037D01*
X170522670Y-112034396D01*
X170522670Y-112034396D01*
X170522670Y-112034396D01*
G37*
X170522670Y-112034396D02*
X170475189Y-112417950D01*
X170310447Y-112767481D01*
X170036161Y-113036811D01*
X169894903Y-113110168D01*
X169706567Y-113160105D01*
X169435715Y-113191878D01*
X169046911Y-113210742D01*
X168825333Y-113216393D01*
X168428939Y-113220691D01*
X168090647Y-113216729D01*
X167848870Y-113205450D01*
X167745833Y-113189953D01*
X167656971Y-113072885D01*
X167648884Y-112894760D01*
X167716694Y-112740596D01*
X167773925Y-112700391D01*
X167912727Y-112678378D01*
X168176799Y-112661077D01*
X168522093Y-112650813D01*
X168747591Y-112649000D01*
X169229135Y-112633429D01*
X169565671Y-112579481D01*
X169779272Y-112476299D01*
X169892013Y-112313028D01*
X169925967Y-112078811D01*
X169926000Y-112069455D01*
X169859502Y-111805492D01*
X169654858Y-111618644D01*
X169304342Y-111503320D01*
X169102924Y-111473904D01*
X168827361Y-111438063D01*
X168680693Y-111392056D01*
X168622873Y-111314255D01*
X168613667Y-111209666D01*
X168624631Y-111095268D01*
X168682964Y-111028955D01*
X168826824Y-110994166D01*
X169094369Y-110974341D01*
X169164000Y-110970817D01*
X169580280Y-110974844D01*
X169879980Y-111039245D01*
X169974279Y-111081786D01*
X170270942Y-111326094D01*
X170454163Y-111657037D01*
X170522670Y-112034396D01*
X170522670Y-112034396D01*
G36*
X172719068Y-112125399D02*
X172699138Y-112648157D01*
X172638339Y-113011069D01*
X172537294Y-113212846D01*
X172396624Y-113252203D01*
X172228933Y-113140066D01*
X172175682Y-112994488D01*
X172141686Y-112687882D01*
X172127676Y-112227537D01*
X172127333Y-112128050D01*
X172118764Y-111730735D01*
X172095630Y-111378407D01*
X172061790Y-111116877D01*
X172033241Y-111011124D01*
X171889675Y-110841654D01*
X171655328Y-110694565D01*
X171609908Y-110675284D01*
X171388838Y-110564786D01*
X171294007Y-110438972D01*
X171280667Y-110333685D01*
X171344639Y-110157243D01*
X171512569Y-110073667D01*
X171748475Y-110080481D01*
X172016374Y-110175205D01*
X172280284Y-110355361D01*
X172334278Y-110406255D01*
X172485560Y-110582985D01*
X172592216Y-110782797D01*
X172661517Y-111038186D01*
X172700737Y-111381649D01*
X172717149Y-111845682D01*
X172719068Y-112125399D01*
X172719068Y-112125399D01*
X172719068Y-112125399D01*
G37*
X172719068Y-112125399D02*
X172699138Y-112648157D01*
X172638339Y-113011069D01*
X172537294Y-113212846D01*
X172396624Y-113252203D01*
X172228933Y-113140066D01*
X172175682Y-112994488D01*
X172141686Y-112687882D01*
X172127676Y-112227537D01*
X172127333Y-112128050D01*
X172118764Y-111730735D01*
X172095630Y-111378407D01*
X172061790Y-111116877D01*
X172033241Y-111011124D01*
X171889675Y-110841654D01*
X171655328Y-110694565D01*
X171609908Y-110675284D01*
X171388838Y-110564786D01*
X171294007Y-110438972D01*
X171280667Y-110333685D01*
X171344639Y-110157243D01*
X171512569Y-110073667D01*
X171748475Y-110080481D01*
X172016374Y-110175205D01*
X172280284Y-110355361D01*
X172334278Y-110406255D01*
X172485560Y-110582985D01*
X172592216Y-110782797D01*
X172661517Y-111038186D01*
X172700737Y-111381649D01*
X172717149Y-111845682D01*
X172719068Y-112125399D01*
X172719068Y-112125399D01*
G36*
X171375199Y-111759520D02*
X171351174Y-112056519D01*
X171299217Y-112266327D01*
X171238333Y-112340951D01*
X171046305Y-112371023D01*
X170925857Y-112274621D01*
X170867111Y-112037874D01*
X170857333Y-111805909D01*
X170822254Y-111310412D01*
X170714985Y-110960937D01*
X170532479Y-110748931D01*
X170468135Y-110713336D01*
X170290694Y-110670401D01*
X169995586Y-110637319D01*
X169634408Y-110619058D01*
X169467767Y-110617000D01*
X169076142Y-110622548D01*
X168811346Y-110644080D01*
X168631098Y-110688927D01*
X168493114Y-110764422D01*
X168455751Y-110792478D01*
X168276754Y-111021739D01*
X168239202Y-111284950D01*
X168346386Y-111531950D01*
X168403312Y-111591854D01*
X168626206Y-111706454D01*
X168975642Y-111777508D01*
X169059479Y-111785644D01*
X169423848Y-111842077D01*
X169624648Y-111939606D01*
X169662808Y-112079155D01*
X169539257Y-112261647D01*
X169538952Y-112261952D01*
X169341853Y-112359949D01*
X169019223Y-112377715D01*
X168559121Y-112315860D01*
X168542751Y-112312719D01*
X168163002Y-112166080D01*
X167884556Y-111914501D01*
X167711496Y-111591686D01*
X167647901Y-111231335D01*
X167697854Y-110867151D01*
X167865435Y-110532837D01*
X168154726Y-110262094D01*
X168285528Y-110188569D01*
X168468860Y-110109187D01*
X168652289Y-110058824D01*
X168877337Y-110032875D01*
X169185528Y-110026734D01*
X169618384Y-110035796D01*
X169653491Y-110036852D01*
X170146486Y-110059266D01*
X170504435Y-110099823D01*
X170761523Y-110170716D01*
X170951932Y-110284137D01*
X171109845Y-110452277D01*
X171207625Y-110591171D01*
X171287505Y-110791154D01*
X171342582Y-111082259D01*
X171372074Y-111419907D01*
X171375199Y-111759520D01*
X171375199Y-111759520D01*
X171375199Y-111759520D01*
G37*
X171375199Y-111759520D02*
X171351174Y-112056519D01*
X171299217Y-112266327D01*
X171238333Y-112340951D01*
X171046305Y-112371023D01*
X170925857Y-112274621D01*
X170867111Y-112037874D01*
X170857333Y-111805909D01*
X170822254Y-111310412D01*
X170714985Y-110960937D01*
X170532479Y-110748931D01*
X170468135Y-110713336D01*
X170290694Y-110670401D01*
X169995586Y-110637319D01*
X169634408Y-110619058D01*
X169467767Y-110617000D01*
X169076142Y-110622548D01*
X168811346Y-110644080D01*
X168631098Y-110688927D01*
X168493114Y-110764422D01*
X168455751Y-110792478D01*
X168276754Y-111021739D01*
X168239202Y-111284950D01*
X168346386Y-111531950D01*
X168403312Y-111591854D01*
X168626206Y-111706454D01*
X168975642Y-111777508D01*
X169059479Y-111785644D01*
X169423848Y-111842077D01*
X169624648Y-111939606D01*
X169662808Y-112079155D01*
X169539257Y-112261647D01*
X169538952Y-112261952D01*
X169341853Y-112359949D01*
X169019223Y-112377715D01*
X168559121Y-112315860D01*
X168542751Y-112312719D01*
X168163002Y-112166080D01*
X167884556Y-111914501D01*
X167711496Y-111591686D01*
X167647901Y-111231335D01*
X167697854Y-110867151D01*
X167865435Y-110532837D01*
X168154726Y-110262094D01*
X168285528Y-110188569D01*
X168468860Y-110109187D01*
X168652289Y-110058824D01*
X168877337Y-110032875D01*
X169185528Y-110026734D01*
X169618384Y-110035796D01*
X169653491Y-110036852D01*
X170146486Y-110059266D01*
X170504435Y-110099823D01*
X170761523Y-110170716D01*
X170951932Y-110284137D01*
X171109845Y-110452277D01*
X171207625Y-110591171D01*
X171287505Y-110791154D01*
X171342582Y-111082259D01*
X171372074Y-111419907D01*
X171375199Y-111759520D01*
X171375199Y-111759520D01*
D14*
X176937000Y-105563000D02*
X176937000Y-105688000D01*
X180187000Y-105563000D02*
X180187000Y-105788000D01*
X180187000Y-108813000D02*
X180187000Y-108588000D01*
X176937000Y-108813000D02*
X176937000Y-108588000D01*
X176937000Y-105563000D02*
X180187000Y-105563000D01*
X176937000Y-108813000D02*
X180187000Y-108813000D01*
X176937000Y-105688000D02*
X175862000Y-105688000D01*
D15*
X182872000Y-109386000D02*
X181872000Y-109386000D01*
X181872000Y-111086000D02*
X182872000Y-111086000D01*
X174156000Y-111133000D02*
X174156000Y-112133000D01*
X175856000Y-112133000D02*
X175856000Y-111133000D01*
X192948000Y-110967000D02*
X192948000Y-110267000D01*
X194148000Y-110267000D02*
X194148000Y-110967000D01*
X191217000Y-100329000D02*
X191217000Y-97029000D01*
X191217000Y-97029000D02*
X184317000Y-97029000D01*
X191217000Y-100329000D02*
X184317000Y-100329000D01*
X182604000Y-106938000D02*
X182604000Y-107438000D01*
X183664000Y-107438000D02*
X183664000Y-106938000D01*
X179346000Y-110486000D02*
X179346000Y-109986000D01*
X178286000Y-109986000D02*
X178286000Y-110486000D01*
X177918000Y-111160000D02*
X177918000Y-112360000D01*
X176158000Y-112360000D02*
X176158000Y-111160000D01*
X175282000Y-107819000D02*
X175282000Y-107319000D01*
X174222000Y-107319000D02*
X174222000Y-107819000D01*
X165668000Y-98238000D02*
X163008000Y-98238000D01*
X165668000Y-100838000D02*
X165668000Y-98238000D01*
X163008000Y-100838000D02*
X163008000Y-98238000D01*
X165668000Y-100838000D02*
X163008000Y-100838000D01*
X165668000Y-102108000D02*
X165668000Y-103438000D01*
X165668000Y-103438000D02*
X164338000Y-103438000D01*
X195520000Y-103438000D02*
X198180000Y-103438000D01*
X195520000Y-100838000D02*
X195520000Y-103438000D01*
X198180000Y-100838000D02*
X198180000Y-103438000D01*
X195520000Y-100838000D02*
X198180000Y-100838000D01*
X195520000Y-99568000D02*
X195520000Y-98238000D01*
X195520000Y-98238000D02*
X196850000Y-98238000D01*
X173227000Y-99192000D02*
X173227000Y-104992000D01*
X169927000Y-99192000D02*
X169927000Y-104992000D01*
X173227000Y-99192000D02*
X169927000Y-99192000D01*
X191376000Y-100857000D02*
X191376000Y-110457000D01*
X186576000Y-100857000D02*
X186576000Y-110457000D01*
X191376000Y-100857000D02*
X186576000Y-100857000D01*
D14*
X177165000Y-96520000D02*
X174371000Y-96520000D01*
X174371000Y-96520000D02*
X174371000Y-103632000D01*
X174371000Y-103632000D02*
X177165000Y-103632000D01*
X174752000Y-97028000D02*
X181864000Y-97028000D01*
X181864000Y-97028000D02*
X181864000Y-103124000D01*
X181864000Y-103124000D02*
X174752000Y-103124000D01*
X174752000Y-103124000D02*
X174752000Y-97028000D01*
D15*
X163008000Y-115122000D02*
X165668000Y-115122000D01*
X163008000Y-112522000D02*
X163008000Y-115122000D01*
X165668000Y-112522000D02*
X165668000Y-115122000D01*
X163008000Y-112522000D02*
X165668000Y-112522000D01*
X163008000Y-111252000D02*
X163008000Y-109922000D01*
X163008000Y-109922000D02*
X164338000Y-109922000D01*
X195520000Y-115122000D02*
X198180000Y-115122000D01*
X195520000Y-112522000D02*
X195520000Y-115122000D01*
X198180000Y-112522000D02*
X198180000Y-115122000D01*
X195520000Y-112522000D02*
X198180000Y-112522000D01*
X195520000Y-111252000D02*
X195520000Y-109922000D01*
X195520000Y-109922000D02*
X196850000Y-109922000D01*
X163008000Y-105350000D02*
X163008000Y-108010000D01*
X165608000Y-105350000D02*
X163008000Y-105350000D01*
X165608000Y-108010000D02*
X163008000Y-108010000D01*
X165608000Y-105350000D02*
X165608000Y-108010000D01*
X166878000Y-105350000D02*
X168208000Y-105350000D01*
X168208000Y-105350000D02*
X168208000Y-106680000D01*
X192980000Y-105350000D02*
X192980000Y-108010000D01*
X195580000Y-105350000D02*
X192980000Y-105350000D01*
X195580000Y-108010000D02*
X192980000Y-108010000D01*
X195580000Y-105350000D02*
X195580000Y-108010000D01*
X196850000Y-105350000D02*
X198180000Y-105350000D01*
X198180000Y-105350000D02*
X198180000Y-106680000D01*
D13*
G36*
X191280898Y-115840053D02*
X191279458Y-116030921D01*
X191279334Y-116039623D01*
X191272583Y-116505070D01*
X191213195Y-116556118D01*
X191133251Y-116600807D01*
X191049712Y-116604865D01*
X190969791Y-116568589D01*
X190942485Y-116544908D01*
X190900688Y-116506367D01*
X190881000Y-116498766D01*
X190881000Y-115719792D01*
X190874338Y-115574606D01*
X190853006Y-115463007D01*
X190814985Y-115378181D01*
X190761329Y-115315982D01*
X190674924Y-115265882D01*
X190577728Y-115250518D01*
X190479923Y-115267853D01*
X190391694Y-115315852D01*
X190323224Y-115392479D01*
X190315986Y-115405022D01*
X190293122Y-115473736D01*
X190279320Y-115570279D01*
X190274459Y-115681657D01*
X190278423Y-115794874D01*
X190291092Y-115896938D01*
X190312349Y-115974855D01*
X190321349Y-115993261D01*
X190392342Y-116081490D01*
X190479202Y-116138675D01*
X190573943Y-116162873D01*
X190668581Y-116152136D01*
X190755129Y-116104519D01*
X190760192Y-116100183D01*
X190818978Y-116031541D01*
X190857065Y-115943453D01*
X190876810Y-115828495D01*
X190881000Y-115719792D01*
X190881000Y-116498766D01*
X190869245Y-116494229D01*
X190829456Y-116504107D01*
X190807210Y-116513158D01*
X190746645Y-116529161D01*
X190661773Y-116540109D01*
X190580055Y-116543649D01*
X190481326Y-116539682D01*
X190402340Y-116524629D01*
X190320982Y-116493727D01*
X190297124Y-116482703D01*
X190149772Y-116393487D01*
X190034089Y-116279457D01*
X189949234Y-116139038D01*
X189894366Y-115970654D01*
X189868644Y-115772730D01*
X189866343Y-115675833D01*
X189877511Y-115504444D01*
X189912045Y-115357671D01*
X189973845Y-115222537D01*
X190027959Y-115138353D01*
X190136509Y-115018247D01*
X190264186Y-114931668D01*
X190404947Y-114878105D01*
X190552748Y-114857047D01*
X190701544Y-114867985D01*
X190845291Y-114910407D01*
X190977945Y-114983805D01*
X191093462Y-115087667D01*
X191185798Y-115221482D01*
X191193664Y-115236773D01*
X191222855Y-115303150D01*
X191245321Y-115375103D01*
X191261711Y-115458701D01*
X191272672Y-115560012D01*
X191278852Y-115685106D01*
X191280898Y-115840053D01*
X191280898Y-115840053D01*
X191280898Y-115840053D01*
G37*
X191280898Y-115840053D02*
X191279458Y-116030921D01*
X191279334Y-116039623D01*
X191272583Y-116505070D01*
X191213195Y-116556118D01*
X191133251Y-116600807D01*
X191049712Y-116604865D01*
X190969791Y-116568589D01*
X190942485Y-116544908D01*
X190900688Y-116506367D01*
X190881000Y-116498766D01*
X190881000Y-115719792D01*
X190874338Y-115574606D01*
X190853006Y-115463007D01*
X190814985Y-115378181D01*
X190761329Y-115315982D01*
X190674924Y-115265882D01*
X190577728Y-115250518D01*
X190479923Y-115267853D01*
X190391694Y-115315852D01*
X190323224Y-115392479D01*
X190315986Y-115405022D01*
X190293122Y-115473736D01*
X190279320Y-115570279D01*
X190274459Y-115681657D01*
X190278423Y-115794874D01*
X190291092Y-115896938D01*
X190312349Y-115974855D01*
X190321349Y-115993261D01*
X190392342Y-116081490D01*
X190479202Y-116138675D01*
X190573943Y-116162873D01*
X190668581Y-116152136D01*
X190755129Y-116104519D01*
X190760192Y-116100183D01*
X190818978Y-116031541D01*
X190857065Y-115943453D01*
X190876810Y-115828495D01*
X190881000Y-115719792D01*
X190881000Y-116498766D01*
X190869245Y-116494229D01*
X190829456Y-116504107D01*
X190807210Y-116513158D01*
X190746645Y-116529161D01*
X190661773Y-116540109D01*
X190580055Y-116543649D01*
X190481326Y-116539682D01*
X190402340Y-116524629D01*
X190320982Y-116493727D01*
X190297124Y-116482703D01*
X190149772Y-116393487D01*
X190034089Y-116279457D01*
X189949234Y-116139038D01*
X189894366Y-115970654D01*
X189868644Y-115772730D01*
X189866343Y-115675833D01*
X189877511Y-115504444D01*
X189912045Y-115357671D01*
X189973845Y-115222537D01*
X190027959Y-115138353D01*
X190136509Y-115018247D01*
X190264186Y-114931668D01*
X190404947Y-114878105D01*
X190552748Y-114857047D01*
X190701544Y-114867985D01*
X190845291Y-114910407D01*
X190977945Y-114983805D01*
X191093462Y-115087667D01*
X191185798Y-115221482D01*
X191193664Y-115236773D01*
X191222855Y-115303150D01*
X191245321Y-115375103D01*
X191261711Y-115458701D01*
X191272672Y-115560012D01*
X191278852Y-115685106D01*
X191280898Y-115840053D01*
X191280898Y-115840053D01*
G36*
X187176833Y-116353302D02*
X187159317Y-116418936D01*
X187115097Y-116484875D01*
X187056667Y-116535436D01*
X187018324Y-116552298D01*
X186974954Y-116558501D01*
X186932674Y-116552163D01*
X186887615Y-116529898D01*
X186835908Y-116488318D01*
X186773686Y-116424039D01*
X186697081Y-116333672D01*
X186602225Y-116213832D01*
X186541267Y-116134646D01*
X186457506Y-116026383D01*
X186381455Y-115930418D01*
X186317097Y-115851586D01*
X186268414Y-115794723D01*
X186239387Y-115764667D01*
X186233777Y-115761175D01*
X186206745Y-115774907D01*
X186164732Y-115810310D01*
X186145683Y-115829291D01*
X186118595Y-115858797D01*
X186099990Y-115886237D01*
X186088011Y-115920218D01*
X186080803Y-115969349D01*
X186076509Y-116042235D01*
X186073272Y-116147483D01*
X186072739Y-116167488D01*
X186069311Y-116279405D01*
X186064971Y-116357319D01*
X186058145Y-116409555D01*
X186047257Y-116444438D01*
X186030731Y-116470293D01*
X186011529Y-116490936D01*
X185951636Y-116532484D01*
X185882872Y-116557084D01*
X185882143Y-116557204D01*
X185827476Y-116560095D01*
X185782423Y-116542866D01*
X185735114Y-116505367D01*
X185663417Y-116441305D01*
X185663417Y-115294563D01*
X185663417Y-114147820D01*
X185726917Y-114097015D01*
X185803658Y-114057831D01*
X185887618Y-114049543D01*
X185966651Y-114070228D01*
X186028612Y-114117963D01*
X186047714Y-114147811D01*
X186052689Y-114177772D01*
X186057908Y-114244194D01*
X186063101Y-114341209D01*
X186067999Y-114462948D01*
X186072333Y-114603543D01*
X186075834Y-114757124D01*
X186075950Y-114763296D01*
X186086750Y-115343010D01*
X186440698Y-115023140D01*
X186545796Y-114929683D01*
X186643366Y-114845769D01*
X186728124Y-114775718D01*
X186794788Y-114723848D01*
X186838075Y-114694476D01*
X186848567Y-114689737D01*
X186920527Y-114690128D01*
X186996091Y-114718020D01*
X187055464Y-114765636D01*
X187061260Y-114773293D01*
X187083028Y-114825557D01*
X187092166Y-114889588D01*
X187092167Y-114890014D01*
X187088813Y-114921684D01*
X187076330Y-114954884D01*
X187051087Y-114993725D01*
X187009449Y-115042318D01*
X186947786Y-115104775D01*
X186862464Y-115185207D01*
X186749851Y-115287727D01*
X186705787Y-115327370D01*
X186541657Y-115474750D01*
X186859245Y-115883968D01*
X186966572Y-116023602D01*
X187049050Y-116134193D01*
X187108996Y-116219163D01*
X187148727Y-116281938D01*
X187170560Y-116325941D01*
X187176833Y-116353302D01*
X187176833Y-116353302D01*
X187176833Y-116353302D01*
G37*
X187176833Y-116353302D02*
X187159317Y-116418936D01*
X187115097Y-116484875D01*
X187056667Y-116535436D01*
X187018324Y-116552298D01*
X186974954Y-116558501D01*
X186932674Y-116552163D01*
X186887615Y-116529898D01*
X186835908Y-116488318D01*
X186773686Y-116424039D01*
X186697081Y-116333672D01*
X186602225Y-116213832D01*
X186541267Y-116134646D01*
X186457506Y-116026383D01*
X186381455Y-115930418D01*
X186317097Y-115851586D01*
X186268414Y-115794723D01*
X186239387Y-115764667D01*
X186233777Y-115761175D01*
X186206745Y-115774907D01*
X186164732Y-115810310D01*
X186145683Y-115829291D01*
X186118595Y-115858797D01*
X186099990Y-115886237D01*
X186088011Y-115920218D01*
X186080803Y-115969349D01*
X186076509Y-116042235D01*
X186073272Y-116147483D01*
X186072739Y-116167488D01*
X186069311Y-116279405D01*
X186064971Y-116357319D01*
X186058145Y-116409555D01*
X186047257Y-116444438D01*
X186030731Y-116470293D01*
X186011529Y-116490936D01*
X185951636Y-116532484D01*
X185882872Y-116557084D01*
X185882143Y-116557204D01*
X185827476Y-116560095D01*
X185782423Y-116542866D01*
X185735114Y-116505367D01*
X185663417Y-116441305D01*
X185663417Y-115294563D01*
X185663417Y-114147820D01*
X185726917Y-114097015D01*
X185803658Y-114057831D01*
X185887618Y-114049543D01*
X185966651Y-114070228D01*
X186028612Y-114117963D01*
X186047714Y-114147811D01*
X186052689Y-114177772D01*
X186057908Y-114244194D01*
X186063101Y-114341209D01*
X186067999Y-114462948D01*
X186072333Y-114603543D01*
X186075834Y-114757124D01*
X186075950Y-114763296D01*
X186086750Y-115343010D01*
X186440698Y-115023140D01*
X186545796Y-114929683D01*
X186643366Y-114845769D01*
X186728124Y-114775718D01*
X186794788Y-114723848D01*
X186838075Y-114694476D01*
X186848567Y-114689737D01*
X186920527Y-114690128D01*
X186996091Y-114718020D01*
X187055464Y-114765636D01*
X187061260Y-114773293D01*
X187083028Y-114825557D01*
X187092166Y-114889588D01*
X187092167Y-114890014D01*
X187088813Y-114921684D01*
X187076330Y-114954884D01*
X187051087Y-114993725D01*
X187009449Y-115042318D01*
X186947786Y-115104775D01*
X186862464Y-115185207D01*
X186749851Y-115287727D01*
X186705787Y-115327370D01*
X186541657Y-115474750D01*
X186859245Y-115883968D01*
X186966572Y-116023602D01*
X187049050Y-116134193D01*
X187108996Y-116219163D01*
X187148727Y-116281938D01*
X187170560Y-116325941D01*
X187176833Y-116353302D01*
X187176833Y-116353302D01*
G36*
X187851909Y-115395501D02*
X187850909Y-115585914D01*
X187849900Y-115708904D01*
X187843583Y-116436926D01*
X187790667Y-116489783D01*
X187720735Y-116536763D01*
X187640586Y-116556583D01*
X187568417Y-116545624D01*
X187522581Y-116516277D01*
X187483750Y-116480468D01*
X187472509Y-116466231D01*
X187463397Y-116448133D01*
X187456144Y-116421789D01*
X187450484Y-116382816D01*
X187446148Y-116326828D01*
X187442869Y-116249441D01*
X187440379Y-116146271D01*
X187438409Y-116012933D01*
X187436692Y-115845042D01*
X187435366Y-115688476D01*
X187429316Y-114943511D01*
X187477700Y-114872095D01*
X187543580Y-114802663D01*
X187618798Y-114774233D01*
X187702277Y-114787147D01*
X187720415Y-114794981D01*
X187754595Y-114812741D01*
X187782506Y-114833023D01*
X187804738Y-114859992D01*
X187821880Y-114897813D01*
X187834523Y-114950653D01*
X187843257Y-115022676D01*
X187848673Y-115118048D01*
X187851360Y-115240934D01*
X187851909Y-115395501D01*
X187851909Y-115395501D01*
X187851909Y-115395501D01*
G37*
X187851909Y-115395501D02*
X187850909Y-115585914D01*
X187849900Y-115708904D01*
X187843583Y-116436926D01*
X187790667Y-116489783D01*
X187720735Y-116536763D01*
X187640586Y-116556583D01*
X187568417Y-116545624D01*
X187522581Y-116516277D01*
X187483750Y-116480468D01*
X187472509Y-116466231D01*
X187463397Y-116448133D01*
X187456144Y-116421789D01*
X187450484Y-116382816D01*
X187446148Y-116326828D01*
X187442869Y-116249441D01*
X187440379Y-116146271D01*
X187438409Y-116012933D01*
X187436692Y-115845042D01*
X187435366Y-115688476D01*
X187429316Y-114943511D01*
X187477700Y-114872095D01*
X187543580Y-114802663D01*
X187618798Y-114774233D01*
X187702277Y-114787147D01*
X187720415Y-114794981D01*
X187754595Y-114812741D01*
X187782506Y-114833023D01*
X187804738Y-114859992D01*
X187821880Y-114897813D01*
X187834523Y-114950653D01*
X187843257Y-115022676D01*
X187848673Y-115118048D01*
X187851360Y-115240934D01*
X187851909Y-115395501D01*
X187851909Y-115395501D01*
G36*
X189526333Y-116289577D02*
X189506375Y-116350699D01*
X189451313Y-116408341D01*
X189368365Y-116459951D01*
X189264753Y-116502978D01*
X189147694Y-116534871D01*
X189024408Y-116553079D01*
X188902114Y-116555052D01*
X188809010Y-116543053D01*
X188646708Y-116488410D01*
X188502808Y-116398608D01*
X188383093Y-116278873D01*
X188293344Y-116134425D01*
X188258708Y-116045894D01*
X188211150Y-115832995D01*
X188201006Y-115618987D01*
X188227905Y-115411234D01*
X188291482Y-115217100D01*
X188301235Y-115195752D01*
X188390628Y-115053766D01*
X188509532Y-114937462D01*
X188651534Y-114850127D01*
X188810222Y-114795046D01*
X188979184Y-114775507D01*
X189102500Y-114785114D01*
X189246473Y-114818485D01*
X189362597Y-114866047D01*
X189448405Y-114924865D01*
X189501430Y-114992002D01*
X189519203Y-115064522D01*
X189499258Y-115139489D01*
X189452351Y-115201406D01*
X189398330Y-115239000D01*
X189332516Y-115250277D01*
X189246775Y-115235490D01*
X189171564Y-115210155D01*
X189063319Y-115177137D01*
X188971563Y-115170083D01*
X188880124Y-115188021D01*
X188868033Y-115191932D01*
X188770437Y-115239604D01*
X188698512Y-115310768D01*
X188650258Y-115409277D01*
X188623677Y-115538985D01*
X188616631Y-115676640D01*
X188624701Y-115827483D01*
X188651192Y-115945124D01*
X188698357Y-116035484D01*
X188768449Y-116104485D01*
X188783338Y-116114870D01*
X188870126Y-116150984D01*
X188976909Y-116164059D01*
X189088031Y-116153884D01*
X189187667Y-116120333D01*
X189248943Y-116093838D01*
X189301201Y-116079088D01*
X189312827Y-116078000D01*
X189395805Y-116097228D01*
X189465846Y-116148082D01*
X189512608Y-116220313D01*
X189526333Y-116289577D01*
X189526333Y-116289577D01*
X189526333Y-116289577D01*
G37*
X189526333Y-116289577D02*
X189506375Y-116350699D01*
X189451313Y-116408341D01*
X189368365Y-116459951D01*
X189264753Y-116502978D01*
X189147694Y-116534871D01*
X189024408Y-116553079D01*
X188902114Y-116555052D01*
X188809010Y-116543053D01*
X188646708Y-116488410D01*
X188502808Y-116398608D01*
X188383093Y-116278873D01*
X188293344Y-116134425D01*
X188258708Y-116045894D01*
X188211150Y-115832995D01*
X188201006Y-115618987D01*
X188227905Y-115411234D01*
X188291482Y-115217100D01*
X188301235Y-115195752D01*
X188390628Y-115053766D01*
X188509532Y-114937462D01*
X188651534Y-114850127D01*
X188810222Y-114795046D01*
X188979184Y-114775507D01*
X189102500Y-114785114D01*
X189246473Y-114818485D01*
X189362597Y-114866047D01*
X189448405Y-114924865D01*
X189501430Y-114992002D01*
X189519203Y-115064522D01*
X189499258Y-115139489D01*
X189452351Y-115201406D01*
X189398330Y-115239000D01*
X189332516Y-115250277D01*
X189246775Y-115235490D01*
X189171564Y-115210155D01*
X189063319Y-115177137D01*
X188971563Y-115170083D01*
X188880124Y-115188021D01*
X188868033Y-115191932D01*
X188770437Y-115239604D01*
X188698512Y-115310768D01*
X188650258Y-115409277D01*
X188623677Y-115538985D01*
X188616631Y-115676640D01*
X188624701Y-115827483D01*
X188651192Y-115945124D01*
X188698357Y-116035484D01*
X188768449Y-116104485D01*
X188783338Y-116114870D01*
X188870126Y-116150984D01*
X188976909Y-116164059D01*
X189088031Y-116153884D01*
X189187667Y-116120333D01*
X189248943Y-116093838D01*
X189301201Y-116079088D01*
X189312827Y-116078000D01*
X189395805Y-116097228D01*
X189465846Y-116148082D01*
X189512608Y-116220313D01*
X189526333Y-116289577D01*
X189526333Y-116289577D01*
G36*
X193127202Y-114214612D02*
X193120348Y-115098681D01*
X193118615Y-115315448D01*
X193116932Y-115494221D01*
X193115053Y-115639336D01*
X193112737Y-115755131D01*
X193109738Y-115845943D01*
X193105813Y-115916110D01*
X193100717Y-115969970D01*
X193094208Y-116011859D01*
X193086040Y-116046115D01*
X193075971Y-116077076D01*
X193063755Y-116109078D01*
X193063491Y-116109750D01*
X193002806Y-116239755D01*
X192932618Y-116338882D01*
X192844422Y-116418575D01*
X192822407Y-116434193D01*
X192722500Y-116485286D01*
X192722500Y-115639381D01*
X192722500Y-115354099D01*
X192652430Y-115284029D01*
X192582803Y-115231069D01*
X192502789Y-115192934D01*
X192490309Y-115189173D01*
X192370397Y-115174800D01*
X192265683Y-115198237D01*
X192178546Y-115256944D01*
X192111364Y-115348385D01*
X192066515Y-115470023D01*
X192046378Y-115619321D01*
X192045485Y-115663728D01*
X192059460Y-115821548D01*
X192099035Y-115954353D01*
X192161771Y-116059069D01*
X192245226Y-116132619D01*
X192346961Y-116171929D01*
X192451634Y-116175546D01*
X192524690Y-116156423D01*
X192593039Y-116122065D01*
X192594962Y-116120716D01*
X192642188Y-116080045D01*
X192676565Y-116030676D01*
X192699936Y-115965657D01*
X192714142Y-115878034D01*
X192721026Y-115760855D01*
X192722500Y-115639381D01*
X192722500Y-116485286D01*
X192674508Y-116509830D01*
X192507386Y-116548520D01*
X192323308Y-116549788D01*
X192288583Y-116546009D01*
X192177277Y-116518307D01*
X192056720Y-116466230D01*
X191944307Y-116398297D01*
X191879590Y-116345694D01*
X191836144Y-116294000D01*
X191785751Y-116218406D01*
X191738248Y-116133878D01*
X191731480Y-116120333D01*
X191653696Y-115961583D01*
X191654186Y-115675833D01*
X191655334Y-115552913D01*
X191659089Y-115462189D01*
X191666647Y-115393548D01*
X191679202Y-115336875D01*
X191697951Y-115282057D01*
X191701923Y-115271987D01*
X191784735Y-115118097D01*
X191896011Y-114991455D01*
X192030065Y-114894562D01*
X192181212Y-114829923D01*
X192343767Y-114800040D01*
X192512047Y-114807417D01*
X192664292Y-114848211D01*
X192722500Y-114870452D01*
X192722500Y-114544516D01*
X192722746Y-114420257D01*
X192724185Y-114330817D01*
X192727870Y-114268685D01*
X192734854Y-114226347D01*
X192746189Y-114196291D01*
X192762929Y-114171004D01*
X192777298Y-114153457D01*
X192846150Y-114099977D01*
X192925088Y-114084720D01*
X193005883Y-114107743D01*
X193064062Y-114151472D01*
X193127202Y-114214612D01*
X193127202Y-114214612D01*
X193127202Y-114214612D01*
G37*
X193127202Y-114214612D02*
X193120348Y-115098681D01*
X193118615Y-115315448D01*
X193116932Y-115494221D01*
X193115053Y-115639336D01*
X193112737Y-115755131D01*
X193109738Y-115845943D01*
X193105813Y-115916110D01*
X193100717Y-115969970D01*
X193094208Y-116011859D01*
X193086040Y-116046115D01*
X193075971Y-116077076D01*
X193063755Y-116109078D01*
X193063491Y-116109750D01*
X193002806Y-116239755D01*
X192932618Y-116338882D01*
X192844422Y-116418575D01*
X192822407Y-116434193D01*
X192722500Y-116485286D01*
X192722500Y-115639381D01*
X192722500Y-115354099D01*
X192652430Y-115284029D01*
X192582803Y-115231069D01*
X192502789Y-115192934D01*
X192490309Y-115189173D01*
X192370397Y-115174800D01*
X192265683Y-115198237D01*
X192178546Y-115256944D01*
X192111364Y-115348385D01*
X192066515Y-115470023D01*
X192046378Y-115619321D01*
X192045485Y-115663728D01*
X192059460Y-115821548D01*
X192099035Y-115954353D01*
X192161771Y-116059069D01*
X192245226Y-116132619D01*
X192346961Y-116171929D01*
X192451634Y-116175546D01*
X192524690Y-116156423D01*
X192593039Y-116122065D01*
X192594962Y-116120716D01*
X192642188Y-116080045D01*
X192676565Y-116030676D01*
X192699936Y-115965657D01*
X192714142Y-115878034D01*
X192721026Y-115760855D01*
X192722500Y-115639381D01*
X192722500Y-116485286D01*
X192674508Y-116509830D01*
X192507386Y-116548520D01*
X192323308Y-116549788D01*
X192288583Y-116546009D01*
X192177277Y-116518307D01*
X192056720Y-116466230D01*
X191944307Y-116398297D01*
X191879590Y-116345694D01*
X191836144Y-116294000D01*
X191785751Y-116218406D01*
X191738248Y-116133878D01*
X191731480Y-116120333D01*
X191653696Y-115961583D01*
X191654186Y-115675833D01*
X191655334Y-115552913D01*
X191659089Y-115462189D01*
X191666647Y-115393548D01*
X191679202Y-115336875D01*
X191697951Y-115282057D01*
X191701923Y-115271987D01*
X191784735Y-115118097D01*
X191896011Y-114991455D01*
X192030065Y-114894562D01*
X192181212Y-114829923D01*
X192343767Y-114800040D01*
X192512047Y-114807417D01*
X192664292Y-114848211D01*
X192722500Y-114870452D01*
X192722500Y-114544516D01*
X192722746Y-114420257D01*
X192724185Y-114330817D01*
X192727870Y-114268685D01*
X192734854Y-114226347D01*
X192746189Y-114196291D01*
X192762929Y-114171004D01*
X192777298Y-114153457D01*
X192846150Y-114099977D01*
X192925088Y-114084720D01*
X193005883Y-114107743D01*
X193064062Y-114151472D01*
X193127202Y-114214612D01*
X193127202Y-114214612D01*
G36*
X185208342Y-115017873D02*
X185208337Y-115257676D01*
X185208333Y-115317065D01*
X185208333Y-116399733D01*
X185136367Y-116471699D01*
X185064400Y-116543666D01*
X184975500Y-116543666D01*
X184975500Y-116310833D01*
X184975500Y-115288373D01*
X184975500Y-114265913D01*
X184536292Y-113831230D01*
X184413224Y-113709643D01*
X184290012Y-113588300D01*
X184172704Y-113473129D01*
X184067347Y-113370059D01*
X183979992Y-113285017D01*
X183917167Y-113224394D01*
X183737250Y-113052240D01*
X182991125Y-113051703D01*
X182245000Y-113051166D01*
X182245000Y-114681000D01*
X182245000Y-116310833D01*
X183610250Y-116310833D01*
X184975500Y-116310833D01*
X184975500Y-116543666D01*
X183612700Y-116543666D01*
X182161001Y-116543666D01*
X182091875Y-116481902D01*
X182022750Y-116420139D01*
X182022750Y-114717690D01*
X182022851Y-114401281D01*
X182023184Y-114124595D01*
X182023793Y-113885023D01*
X182024721Y-113679955D01*
X182026013Y-113506781D01*
X182027712Y-113362891D01*
X182029861Y-113245676D01*
X182032506Y-113152527D01*
X182035689Y-113080833D01*
X182039455Y-113027985D01*
X182043847Y-112991373D01*
X182048909Y-112968388D01*
X182052272Y-112960078D01*
X182070011Y-112929892D01*
X182090550Y-112905212D01*
X182118045Y-112885502D01*
X182156654Y-112870227D01*
X182210534Y-112858849D01*
X182283842Y-112850834D01*
X182380734Y-112845644D01*
X182505368Y-112842745D01*
X182661900Y-112841599D01*
X182854488Y-112841671D01*
X182967865Y-112842004D01*
X183144072Y-112842959D01*
X183308712Y-112844547D01*
X183456525Y-112846665D01*
X183582252Y-112849210D01*
X183680634Y-112852077D01*
X183746412Y-112855163D01*
X183772753Y-112857879D01*
X183789227Y-112862484D01*
X183806784Y-112870048D01*
X183828292Y-112883146D01*
X183856621Y-112904353D01*
X183894640Y-112936244D01*
X183945217Y-112981395D01*
X184011220Y-113042381D01*
X184095520Y-113121776D01*
X184200984Y-113222157D01*
X184330481Y-113346099D01*
X184486881Y-113496176D01*
X184531000Y-113538541D01*
X184652165Y-113654707D01*
X184766605Y-113764066D01*
X184869909Y-113862429D01*
X184957663Y-113945607D01*
X185025455Y-114009411D01*
X185068873Y-114049652D01*
X185078169Y-114057988D01*
X185106453Y-114082576D01*
X185130316Y-114105143D01*
X185150133Y-114129317D01*
X185166281Y-114158727D01*
X185179133Y-114197000D01*
X185189065Y-114247765D01*
X185196452Y-114314650D01*
X185201669Y-114401284D01*
X185205092Y-114511295D01*
X185207095Y-114648311D01*
X185208053Y-114815961D01*
X185208342Y-115017873D01*
X185208342Y-115017873D01*
X185208342Y-115017873D01*
G37*
X185208342Y-115017873D02*
X185208337Y-115257676D01*
X185208333Y-115317065D01*
X185208333Y-116399733D01*
X185136367Y-116471699D01*
X185064400Y-116543666D01*
X184975500Y-116543666D01*
X184975500Y-116310833D01*
X184975500Y-115288373D01*
X184975500Y-114265913D01*
X184536292Y-113831230D01*
X184413224Y-113709643D01*
X184290012Y-113588300D01*
X184172704Y-113473129D01*
X184067347Y-113370059D01*
X183979992Y-113285017D01*
X183917167Y-113224394D01*
X183737250Y-113052240D01*
X182991125Y-113051703D01*
X182245000Y-113051166D01*
X182245000Y-114681000D01*
X182245000Y-116310833D01*
X183610250Y-116310833D01*
X184975500Y-116310833D01*
X184975500Y-116543666D01*
X183612700Y-116543666D01*
X182161001Y-116543666D01*
X182091875Y-116481902D01*
X182022750Y-116420139D01*
X182022750Y-114717690D01*
X182022851Y-114401281D01*
X182023184Y-114124595D01*
X182023793Y-113885023D01*
X182024721Y-113679955D01*
X182026013Y-113506781D01*
X182027712Y-113362891D01*
X182029861Y-113245676D01*
X182032506Y-113152527D01*
X182035689Y-113080833D01*
X182039455Y-113027985D01*
X182043847Y-112991373D01*
X182048909Y-112968388D01*
X182052272Y-112960078D01*
X182070011Y-112929892D01*
X182090550Y-112905212D01*
X182118045Y-112885502D01*
X182156654Y-112870227D01*
X182210534Y-112858849D01*
X182283842Y-112850834D01*
X182380734Y-112845644D01*
X182505368Y-112842745D01*
X182661900Y-112841599D01*
X182854488Y-112841671D01*
X182967865Y-112842004D01*
X183144072Y-112842959D01*
X183308712Y-112844547D01*
X183456525Y-112846665D01*
X183582252Y-112849210D01*
X183680634Y-112852077D01*
X183746412Y-112855163D01*
X183772753Y-112857879D01*
X183789227Y-112862484D01*
X183806784Y-112870048D01*
X183828292Y-112883146D01*
X183856621Y-112904353D01*
X183894640Y-112936244D01*
X183945217Y-112981395D01*
X184011220Y-113042381D01*
X184095520Y-113121776D01*
X184200984Y-113222157D01*
X184330481Y-113346099D01*
X184486881Y-113496176D01*
X184531000Y-113538541D01*
X184652165Y-113654707D01*
X184766605Y-113764066D01*
X184869909Y-113862429D01*
X184957663Y-113945607D01*
X185025455Y-114009411D01*
X185068873Y-114049652D01*
X185078169Y-114057988D01*
X185106453Y-114082576D01*
X185130316Y-114105143D01*
X185150133Y-114129317D01*
X185166281Y-114158727D01*
X185179133Y-114197000D01*
X185189065Y-114247765D01*
X185196452Y-114314650D01*
X185201669Y-114401284D01*
X185205092Y-114511295D01*
X185207095Y-114648311D01*
X185208053Y-114815961D01*
X185208342Y-115017873D01*
X185208342Y-115017873D01*
G36*
X187840117Y-114213876D02*
X187840070Y-114299914D01*
X187810389Y-114379634D01*
X187758077Y-114436186D01*
X187679059Y-114465204D01*
X187591482Y-114462934D01*
X187513934Y-114430130D01*
X187508558Y-114426082D01*
X187455840Y-114361629D01*
X187436232Y-114285338D01*
X187446193Y-114206560D01*
X187482184Y-114134645D01*
X187540665Y-114078943D01*
X187618095Y-114048805D01*
X187652455Y-114046000D01*
X187713299Y-114063799D01*
X187774539Y-114108815D01*
X187822119Y-114168474D01*
X187840117Y-114213876D01*
X187840117Y-114213876D01*
X187840117Y-114213876D01*
G37*
X187840117Y-114213876D02*
X187840070Y-114299914D01*
X187810389Y-114379634D01*
X187758077Y-114436186D01*
X187679059Y-114465204D01*
X187591482Y-114462934D01*
X187513934Y-114430130D01*
X187508558Y-114426082D01*
X187455840Y-114361629D01*
X187436232Y-114285338D01*
X187446193Y-114206560D01*
X187482184Y-114134645D01*
X187540665Y-114078943D01*
X187618095Y-114048805D01*
X187652455Y-114046000D01*
X187713299Y-114063799D01*
X187774539Y-114108815D01*
X187822119Y-114168474D01*
X187840117Y-114213876D01*
X187840117Y-114213876D01*
G36*
X185208333Y-113319050D02*
X185208057Y-113456365D01*
X185206827Y-113557376D01*
X185204040Y-113628112D01*
X185199090Y-113674603D01*
X185191374Y-113702877D01*
X185180288Y-113718962D01*
X185167391Y-113727755D01*
X185133955Y-113742803D01*
X185101676Y-113748042D01*
X185066184Y-113740573D01*
X185023105Y-113717492D01*
X184968068Y-113675898D01*
X184896699Y-113612891D01*
X184804627Y-113525568D01*
X184687478Y-113411028D01*
X184682076Y-113405708D01*
X184581088Y-113306355D01*
X184489115Y-113216072D01*
X184410804Y-113139406D01*
X184350805Y-113080905D01*
X184313766Y-113045114D01*
X184304917Y-113036803D01*
X184280197Y-112991061D01*
X184278498Y-112932521D01*
X184298127Y-112880569D01*
X184320367Y-112860113D01*
X184361618Y-112850837D01*
X184443679Y-112844859D01*
X184565151Y-112842232D01*
X184724637Y-112843009D01*
X184756030Y-112843493D01*
X184894972Y-112846145D01*
X184997677Y-112849215D01*
X185070240Y-112853390D01*
X185118756Y-112859359D01*
X185149319Y-112867810D01*
X185168026Y-112879432D01*
X185178329Y-112891170D01*
X185189649Y-112916414D01*
X185197920Y-112960226D01*
X185203519Y-113028015D01*
X185206828Y-113125191D01*
X185208225Y-113257165D01*
X185208333Y-113319050D01*
X185208333Y-113319050D01*
X185208333Y-113319050D01*
G37*
X185208333Y-113319050D02*
X185208057Y-113456365D01*
X185206827Y-113557376D01*
X185204040Y-113628112D01*
X185199090Y-113674603D01*
X185191374Y-113702877D01*
X185180288Y-113718962D01*
X185167391Y-113727755D01*
X185133955Y-113742803D01*
X185101676Y-113748042D01*
X185066184Y-113740573D01*
X185023105Y-113717492D01*
X184968068Y-113675898D01*
X184896699Y-113612891D01*
X184804627Y-113525568D01*
X184687478Y-113411028D01*
X184682076Y-113405708D01*
X184581088Y-113306355D01*
X184489115Y-113216072D01*
X184410804Y-113139406D01*
X184350805Y-113080905D01*
X184313766Y-113045114D01*
X184304917Y-113036803D01*
X184280197Y-112991061D01*
X184278498Y-112932521D01*
X184298127Y-112880569D01*
X184320367Y-112860113D01*
X184361618Y-112850837D01*
X184443679Y-112844859D01*
X184565151Y-112842232D01*
X184724637Y-112843009D01*
X184756030Y-112843493D01*
X184894972Y-112846145D01*
X184997677Y-112849215D01*
X185070240Y-112853390D01*
X185118756Y-112859359D01*
X185149319Y-112867810D01*
X185168026Y-112879432D01*
X185178329Y-112891170D01*
X185189649Y-112916414D01*
X185197920Y-112960226D01*
X185203519Y-113028015D01*
X185206828Y-113125191D01*
X185208225Y-113257165D01*
X185208333Y-113319050D01*
X185208333Y-113319050D01*
G36*
X184827333Y-115464166D02*
X184825699Y-115478392D01*
X184817204Y-115489014D01*
X184796459Y-115496557D01*
X184758076Y-115501548D01*
X184696667Y-115504511D01*
X184606842Y-115505972D01*
X184483214Y-115506458D01*
X184393417Y-115506500D01*
X183959500Y-115506500D01*
X183959500Y-115760500D01*
X183959084Y-115867720D01*
X183957059Y-115939625D01*
X183952254Y-115983229D01*
X183943501Y-116005548D01*
X183929629Y-116013597D01*
X183917167Y-116014500D01*
X183900415Y-116012301D01*
X183888781Y-116001369D01*
X183881335Y-115975198D01*
X183877150Y-115927282D01*
X183875294Y-115851115D01*
X183874838Y-115740192D01*
X183874833Y-115718166D01*
X183874833Y-115421833D01*
X184351083Y-115421833D01*
X184504757Y-115421968D01*
X184621242Y-115422680D01*
X184705685Y-115424424D01*
X184763230Y-115427659D01*
X184799022Y-115432842D01*
X184818206Y-115440431D01*
X184825928Y-115450881D01*
X184827333Y-115464166D01*
X184827333Y-115464166D01*
X184827333Y-115464166D01*
G37*
X184827333Y-115464166D02*
X184825699Y-115478392D01*
X184817204Y-115489014D01*
X184796459Y-115496557D01*
X184758076Y-115501548D01*
X184696667Y-115504511D01*
X184606842Y-115505972D01*
X184483214Y-115506458D01*
X184393417Y-115506500D01*
X183959500Y-115506500D01*
X183959500Y-115760500D01*
X183959084Y-115867720D01*
X183957059Y-115939625D01*
X183952254Y-115983229D01*
X183943501Y-116005548D01*
X183929629Y-116013597D01*
X183917167Y-116014500D01*
X183900415Y-116012301D01*
X183888781Y-116001369D01*
X183881335Y-115975198D01*
X183877150Y-115927282D01*
X183875294Y-115851115D01*
X183874838Y-115740192D01*
X183874833Y-115718166D01*
X183874833Y-115421833D01*
X184351083Y-115421833D01*
X184504757Y-115421968D01*
X184621242Y-115422680D01*
X184705685Y-115424424D01*
X184763230Y-115427659D01*
X184799022Y-115432842D01*
X184818206Y-115440431D01*
X184825928Y-115450881D01*
X184827333Y-115464166D01*
X184827333Y-115464166D01*
G36*
X184848557Y-114714139D02*
X184736738Y-114824569D01*
X184677919Y-114881155D01*
X184635043Y-114914104D01*
X184632823Y-114914957D01*
X184632823Y-114722556D01*
X184625768Y-114689407D01*
X184623525Y-114685722D01*
X184606511Y-114669158D01*
X184575016Y-114657772D01*
X184521402Y-114650312D01*
X184438034Y-114645525D01*
X184364701Y-114643265D01*
X184128833Y-114637280D01*
X184128833Y-114712056D01*
X184128833Y-114786833D01*
X184345792Y-114786160D01*
X184459282Y-114783689D01*
X184537339Y-114776547D01*
X184586687Y-114763893D01*
X184604616Y-114753840D01*
X184632823Y-114722556D01*
X184632823Y-114914957D01*
X184594210Y-114929805D01*
X184541522Y-114934647D01*
X184496544Y-114935000D01*
X184413591Y-114933384D01*
X184308123Y-114929096D01*
X184199814Y-114922977D01*
X184174418Y-114921247D01*
X183980667Y-114907494D01*
X183980667Y-114846612D01*
X183980667Y-114785730D01*
X183657875Y-114791573D01*
X183335083Y-114797416D01*
X183334366Y-114866263D01*
X183327679Y-114908565D01*
X183304610Y-114952928D01*
X183259260Y-115008492D01*
X183208029Y-115062054D01*
X183082408Y-115189000D01*
X183206904Y-115314808D01*
X183265034Y-115375106D01*
X183303473Y-115423462D01*
X183326421Y-115471394D01*
X183338080Y-115530418D01*
X183342652Y-115612052D01*
X183343903Y-115690367D01*
X183345667Y-115842484D01*
X183414458Y-115849117D01*
X183462131Y-115858662D01*
X183480629Y-115883366D01*
X183483250Y-115919250D01*
X183483250Y-115982750D01*
X183287458Y-115988835D01*
X183091667Y-115994921D01*
X183091667Y-115920044D01*
X183095111Y-115869922D01*
X183112671Y-115849224D01*
X183155167Y-115845166D01*
X183218667Y-115845166D01*
X183218667Y-115679793D01*
X183217474Y-115594664D01*
X183211734Y-115539704D01*
X183198202Y-115502765D01*
X183173634Y-115471704D01*
X183159300Y-115457543D01*
X183110749Y-115414972D01*
X183083808Y-115405629D01*
X183072440Y-115430684D01*
X183070500Y-115474750D01*
X183066931Y-115524541D01*
X183049009Y-115544962D01*
X183007927Y-115548833D01*
X182945354Y-115548833D01*
X182939135Y-115395375D01*
X182932917Y-115241916D01*
X182684208Y-115235953D01*
X182435500Y-115229989D01*
X182435500Y-115167161D01*
X182435500Y-115104333D01*
X182689500Y-115104333D01*
X182943500Y-115104333D01*
X182943500Y-114956166D01*
X182943500Y-114808000D01*
X183007000Y-114808000D01*
X183047717Y-114811343D01*
X183065817Y-114829461D01*
X183070400Y-114874486D01*
X183070500Y-114892666D01*
X183074974Y-114953136D01*
X183091124Y-114973759D01*
X183123036Y-114956337D01*
X183151477Y-114928344D01*
X183173154Y-114900640D01*
X183186784Y-114866889D01*
X183194169Y-114817139D01*
X183197114Y-114741438D01*
X183197500Y-114674344D01*
X183197500Y-114469333D01*
X183134000Y-114469333D01*
X183070500Y-114469333D01*
X183070500Y-114130666D01*
X183070500Y-113792000D01*
X183131644Y-113792000D01*
X183173896Y-113786317D01*
X183195657Y-113761006D01*
X183206968Y-113716414D01*
X183212930Y-113660692D01*
X183216556Y-113577535D01*
X183217305Y-113481801D01*
X183216755Y-113446539D01*
X183212361Y-113252250D01*
X183279014Y-113245617D01*
X183345667Y-113238984D01*
X183345667Y-113515492D01*
X183345667Y-113792000D01*
X183409167Y-113792000D01*
X183472667Y-113792000D01*
X183472667Y-114129325D01*
X183472667Y-114466651D01*
X183403875Y-114473283D01*
X183360314Y-114480924D01*
X183345667Y-114494912D01*
X183345667Y-114342333D01*
X183345667Y-114130666D01*
X183345667Y-113919000D01*
X183282167Y-113919000D01*
X183218667Y-113919000D01*
X183218667Y-114130666D01*
X183218667Y-114342333D01*
X183282167Y-114342333D01*
X183345667Y-114342333D01*
X183345667Y-114494912D01*
X183339145Y-114501141D01*
X183330438Y-114546668D01*
X183328574Y-114569875D01*
X183322066Y-114659833D01*
X183651366Y-114659833D01*
X183980667Y-114659833D01*
X183980667Y-114575166D01*
X183980667Y-114490500D01*
X184304181Y-114490500D01*
X184627696Y-114490500D01*
X184738127Y-114602319D01*
X184848557Y-114714139D01*
X184848557Y-114714139D01*
X184848557Y-114714139D01*
G37*
X184848557Y-114714139D02*
X184736738Y-114824569D01*
X184677919Y-114881155D01*
X184635043Y-114914104D01*
X184632823Y-114914957D01*
X184632823Y-114722556D01*
X184625768Y-114689407D01*
X184623525Y-114685722D01*
X184606511Y-114669158D01*
X184575016Y-114657772D01*
X184521402Y-114650312D01*
X184438034Y-114645525D01*
X184364701Y-114643265D01*
X184128833Y-114637280D01*
X184128833Y-114712056D01*
X184128833Y-114786833D01*
X184345792Y-114786160D01*
X184459282Y-114783689D01*
X184537339Y-114776547D01*
X184586687Y-114763893D01*
X184604616Y-114753840D01*
X184632823Y-114722556D01*
X184632823Y-114914957D01*
X184594210Y-114929805D01*
X184541522Y-114934647D01*
X184496544Y-114935000D01*
X184413591Y-114933384D01*
X184308123Y-114929096D01*
X184199814Y-114922977D01*
X184174418Y-114921247D01*
X183980667Y-114907494D01*
X183980667Y-114846612D01*
X183980667Y-114785730D01*
X183657875Y-114791573D01*
X183335083Y-114797416D01*
X183334366Y-114866263D01*
X183327679Y-114908565D01*
X183304610Y-114952928D01*
X183259260Y-115008492D01*
X183208029Y-115062054D01*
X183082408Y-115189000D01*
X183206904Y-115314808D01*
X183265034Y-115375106D01*
X183303473Y-115423462D01*
X183326421Y-115471394D01*
X183338080Y-115530418D01*
X183342652Y-115612052D01*
X183343903Y-115690367D01*
X183345667Y-115842484D01*
X183414458Y-115849117D01*
X183462131Y-115858662D01*
X183480629Y-115883366D01*
X183483250Y-115919250D01*
X183483250Y-115982750D01*
X183287458Y-115988835D01*
X183091667Y-115994921D01*
X183091667Y-115920044D01*
X183095111Y-115869922D01*
X183112671Y-115849224D01*
X183155167Y-115845166D01*
X183218667Y-115845166D01*
X183218667Y-115679793D01*
X183217474Y-115594664D01*
X183211734Y-115539704D01*
X183198202Y-115502765D01*
X183173634Y-115471704D01*
X183159300Y-115457543D01*
X183110749Y-115414972D01*
X183083808Y-115405629D01*
X183072440Y-115430684D01*
X183070500Y-115474750D01*
X183066931Y-115524541D01*
X183049009Y-115544962D01*
X183007927Y-115548833D01*
X182945354Y-115548833D01*
X182939135Y-115395375D01*
X182932917Y-115241916D01*
X182684208Y-115235953D01*
X182435500Y-115229989D01*
X182435500Y-115167161D01*
X182435500Y-115104333D01*
X182689500Y-115104333D01*
X182943500Y-115104333D01*
X182943500Y-114956166D01*
X182943500Y-114808000D01*
X183007000Y-114808000D01*
X183047717Y-114811343D01*
X183065817Y-114829461D01*
X183070400Y-114874486D01*
X183070500Y-114892666D01*
X183074974Y-114953136D01*
X183091124Y-114973759D01*
X183123036Y-114956337D01*
X183151477Y-114928344D01*
X183173154Y-114900640D01*
X183186784Y-114866889D01*
X183194169Y-114817139D01*
X183197114Y-114741438D01*
X183197500Y-114674344D01*
X183197500Y-114469333D01*
X183134000Y-114469333D01*
X183070500Y-114469333D01*
X183070500Y-114130666D01*
X183070500Y-113792000D01*
X183131644Y-113792000D01*
X183173896Y-113786317D01*
X183195657Y-113761006D01*
X183206968Y-113716414D01*
X183212930Y-113660692D01*
X183216556Y-113577535D01*
X183217305Y-113481801D01*
X183216755Y-113446539D01*
X183212361Y-113252250D01*
X183279014Y-113245617D01*
X183345667Y-113238984D01*
X183345667Y-113515492D01*
X183345667Y-113792000D01*
X183409167Y-113792000D01*
X183472667Y-113792000D01*
X183472667Y-114129325D01*
X183472667Y-114466651D01*
X183403875Y-114473283D01*
X183360314Y-114480924D01*
X183345667Y-114494912D01*
X183345667Y-114342333D01*
X183345667Y-114130666D01*
X183345667Y-113919000D01*
X183282167Y-113919000D01*
X183218667Y-113919000D01*
X183218667Y-114130666D01*
X183218667Y-114342333D01*
X183282167Y-114342333D01*
X183345667Y-114342333D01*
X183345667Y-114494912D01*
X183339145Y-114501141D01*
X183330438Y-114546668D01*
X183328574Y-114569875D01*
X183322066Y-114659833D01*
X183651366Y-114659833D01*
X183980667Y-114659833D01*
X183980667Y-114575166D01*
X183980667Y-114490500D01*
X184304181Y-114490500D01*
X184627696Y-114490500D01*
X184738127Y-114602319D01*
X184848557Y-114714139D01*
X184848557Y-114714139D01*
G36*
X184806167Y-115993333D02*
X184679167Y-115993333D01*
X184552167Y-115993333D01*
X184552167Y-115919250D01*
X184552167Y-115845166D01*
X184679167Y-115845166D01*
X184806167Y-115845166D01*
X184806167Y-115919250D01*
X184806167Y-115993333D01*
X184806167Y-115993333D01*
X184806167Y-115993333D01*
G37*
X184806167Y-115993333D02*
X184679167Y-115993333D01*
X184552167Y-115993333D01*
X184552167Y-115919250D01*
X184552167Y-115845166D01*
X184679167Y-115845166D01*
X184806167Y-115845166D01*
X184806167Y-115919250D01*
X184806167Y-115993333D01*
X184806167Y-115993333D01*
G36*
X184277000Y-115919250D02*
X184274587Y-115947695D01*
X184260974Y-115963539D01*
X184226595Y-115970460D01*
X184161887Y-115972136D01*
X184139417Y-115972166D01*
X184065458Y-115971238D01*
X184024263Y-115966002D01*
X184006270Y-115952780D01*
X184001913Y-115927892D01*
X184001833Y-115919250D01*
X184004246Y-115890804D01*
X184017859Y-115874960D01*
X184052238Y-115868039D01*
X184116946Y-115866363D01*
X184139417Y-115866333D01*
X184213375Y-115867261D01*
X184254570Y-115872497D01*
X184272563Y-115885719D01*
X184276920Y-115910607D01*
X184277000Y-115919250D01*
X184277000Y-115919250D01*
X184277000Y-115919250D01*
G37*
X184277000Y-115919250D02*
X184274587Y-115947695D01*
X184260974Y-115963539D01*
X184226595Y-115970460D01*
X184161887Y-115972136D01*
X184139417Y-115972166D01*
X184065458Y-115971238D01*
X184024263Y-115966002D01*
X184006270Y-115952780D01*
X184001913Y-115927892D01*
X184001833Y-115919250D01*
X184004246Y-115890804D01*
X184017859Y-115874960D01*
X184052238Y-115868039D01*
X184116946Y-115866363D01*
X184139417Y-115866333D01*
X184213375Y-115867261D01*
X184254570Y-115872497D01*
X184272563Y-115885719D01*
X184276920Y-115910607D01*
X184277000Y-115919250D01*
X184277000Y-115919250D01*
G36*
X184277000Y-115622916D02*
X184274311Y-115652243D01*
X184259617Y-115668077D01*
X184222977Y-115674559D01*
X184154451Y-115675832D01*
X184150000Y-115675833D01*
X184079615Y-115674712D01*
X184041614Y-115668590D01*
X184026057Y-115653323D01*
X184023003Y-115624771D01*
X184023000Y-115622916D01*
X184025689Y-115593589D01*
X184040383Y-115577755D01*
X184077023Y-115571273D01*
X184145548Y-115570001D01*
X184150000Y-115570000D01*
X184220385Y-115571120D01*
X184258386Y-115577242D01*
X184273943Y-115592509D01*
X184276997Y-115621061D01*
X184277000Y-115622916D01*
X184277000Y-115622916D01*
X184277000Y-115622916D01*
G37*
X184277000Y-115622916D02*
X184274311Y-115652243D01*
X184259617Y-115668077D01*
X184222977Y-115674559D01*
X184154451Y-115675832D01*
X184150000Y-115675833D01*
X184079615Y-115674712D01*
X184041614Y-115668590D01*
X184026057Y-115653323D01*
X184023003Y-115624771D01*
X184023000Y-115622916D01*
X184025689Y-115593589D01*
X184040383Y-115577755D01*
X184077023Y-115571273D01*
X184145548Y-115570001D01*
X184150000Y-115570000D01*
X184220385Y-115571120D01*
X184258386Y-115577242D01*
X184273943Y-115592509D01*
X184276997Y-115621061D01*
X184277000Y-115622916D01*
X184277000Y-115622916D01*
G36*
X184803609Y-115650684D02*
X184794411Y-115664676D01*
X184766942Y-115672192D01*
X184713393Y-115675242D01*
X184625955Y-115675832D01*
X184617139Y-115675833D01*
X184526543Y-115675438D01*
X184470165Y-115672738D01*
X184439889Y-115665462D01*
X184427599Y-115651337D01*
X184425180Y-115628092D01*
X184425167Y-115622092D01*
X184425167Y-115568351D01*
X184610375Y-115574467D01*
X184699448Y-115578141D01*
X184754728Y-115583570D01*
X184784749Y-115593143D01*
X184798047Y-115609250D01*
X184802347Y-115628208D01*
X184803609Y-115650684D01*
X184803609Y-115650684D01*
X184803609Y-115650684D01*
G37*
X184803609Y-115650684D02*
X184794411Y-115664676D01*
X184766942Y-115672192D01*
X184713393Y-115675242D01*
X184625955Y-115675832D01*
X184617139Y-115675833D01*
X184526543Y-115675438D01*
X184470165Y-115672738D01*
X184439889Y-115665462D01*
X184427599Y-115651337D01*
X184425180Y-115628092D01*
X184425167Y-115622092D01*
X184425167Y-115568351D01*
X184610375Y-115574467D01*
X184699448Y-115578141D01*
X184754728Y-115583570D01*
X184784749Y-115593143D01*
X184798047Y-115609250D01*
X184802347Y-115628208D01*
X184803609Y-115650684D01*
X184803609Y-115650684D01*
D12*
X176015952Y-104496810D02*
X176015952Y-104908048D01*
X176040143Y-104956429D01*
X176064333Y-104980619D01*
X176112714Y-105004810D01*
X176209476Y-105004810D01*
X176257857Y-104980619D01*
X176282048Y-104956429D01*
X176306238Y-104908048D01*
X176306238Y-104496810D01*
X176814238Y-105004810D02*
X176523952Y-105004810D01*
X176669095Y-105004810D02*
X176669095Y-104496810D01*
X176620714Y-104569381D01*
X176572333Y-104617762D01*
X176523952Y-104641952D01*
X182287333Y-112068429D02*
X182263143Y-112092619D01*
X182190571Y-112116810D01*
X182142190Y-112116810D01*
X182069619Y-112092619D01*
X182021238Y-112044238D01*
X181997047Y-111995857D01*
X181972857Y-111899095D01*
X181972857Y-111826524D01*
X181997047Y-111729762D01*
X182021238Y-111681381D01*
X182069619Y-111633000D01*
X182142190Y-111608810D01*
X182190571Y-111608810D01*
X182263143Y-111633000D01*
X182287333Y-111657190D01*
X182456666Y-111608810D02*
X182771143Y-111608810D01*
X182601809Y-111802333D01*
X182674381Y-111802333D01*
X182722762Y-111826524D01*
X182746952Y-111850714D01*
X182771143Y-111899095D01*
X182771143Y-112020048D01*
X182746952Y-112068429D01*
X182722762Y-112092619D01*
X182674381Y-112116810D01*
X182529238Y-112116810D01*
X182480857Y-112092619D01*
X182456666Y-112068429D01*
X174921333Y-114862429D02*
X174897143Y-114886619D01*
X174824571Y-114910810D01*
X174776190Y-114910810D01*
X174703619Y-114886619D01*
X174655238Y-114838238D01*
X174631047Y-114789857D01*
X174606857Y-114693095D01*
X174606857Y-114620524D01*
X174631047Y-114523762D01*
X174655238Y-114475381D01*
X174703619Y-114427000D01*
X174776190Y-114402810D01*
X174824571Y-114402810D01*
X174897143Y-114427000D01*
X174921333Y-114451190D01*
X175356762Y-114572143D02*
X175356762Y-114910810D01*
X175235809Y-114378619D02*
X175114857Y-114741476D01*
X175429333Y-114741476D01*
X193463333Y-113399429D02*
X193439143Y-113423619D01*
X193366571Y-113447810D01*
X193318190Y-113447810D01*
X193245619Y-113423619D01*
X193197238Y-113375238D01*
X193173047Y-113326857D01*
X193148857Y-113230095D01*
X193148857Y-113157524D01*
X193173047Y-113060762D01*
X193197238Y-113012381D01*
X193245619Y-112964000D01*
X193318190Y-112939810D01*
X193366571Y-112939810D01*
X193439143Y-112964000D01*
X193463333Y-112988190D01*
X193922952Y-112939810D02*
X193681047Y-112939810D01*
X193656857Y-113181714D01*
X193681047Y-113157524D01*
X193729428Y-113133333D01*
X193850381Y-113133333D01*
X193898762Y-113157524D01*
X193922952Y-113181714D01*
X193947143Y-113230095D01*
X193947143Y-113351048D01*
X193922952Y-113399429D01*
X193898762Y-113423619D01*
X193850381Y-113447810D01*
X193729428Y-113447810D01*
X193681047Y-113423619D01*
X193656857Y-113399429D01*
X182632047Y-101321810D02*
X182632047Y-100813810D01*
X182753000Y-100813810D01*
X182825571Y-100838000D01*
X182873952Y-100886381D01*
X182898143Y-100934762D01*
X182922333Y-101031524D01*
X182922333Y-101104095D01*
X182898143Y-101200857D01*
X182873952Y-101249238D01*
X182825571Y-101297619D01*
X182753000Y-101321810D01*
X182632047Y-101321810D01*
X183406143Y-101321810D02*
X183115857Y-101321810D01*
X183261000Y-101321810D02*
X183261000Y-100813810D01*
X183212619Y-100886381D01*
X183164238Y-100934762D01*
X183115857Y-100958952D01*
X183363810Y-105621667D02*
X183121905Y-105791000D01*
X183363810Y-105911953D02*
X182855810Y-105911953D01*
X182855810Y-105718429D01*
X182880000Y-105670048D01*
X182904190Y-105645857D01*
X182952571Y-105621667D01*
X183025143Y-105621667D01*
X183073524Y-105645857D01*
X183097714Y-105670048D01*
X183121905Y-105718429D01*
X183121905Y-105911953D01*
X183363810Y-105137857D02*
X183363810Y-105428143D01*
X183363810Y-105283000D02*
X182855810Y-105283000D01*
X182928381Y-105331381D01*
X182976762Y-105379762D01*
X183000952Y-105428143D01*
X178731333Y-111989810D02*
X178562000Y-111747905D01*
X178441047Y-111989810D02*
X178441047Y-111481810D01*
X178634571Y-111481810D01*
X178682952Y-111506000D01*
X178707143Y-111530190D01*
X178731333Y-111578571D01*
X178731333Y-111651143D01*
X178707143Y-111699524D01*
X178682952Y-111723714D01*
X178634571Y-111747905D01*
X178441047Y-111747905D01*
X178924857Y-111530190D02*
X178949047Y-111506000D01*
X178997428Y-111481810D01*
X179118381Y-111481810D01*
X179166762Y-111506000D01*
X179190952Y-111530190D01*
X179215143Y-111578571D01*
X179215143Y-111626952D01*
X179190952Y-111699524D01*
X178900666Y-111989810D01*
X179215143Y-111989810D01*
X177080333Y-115037810D02*
X176911000Y-114795905D01*
X176790047Y-115037810D02*
X176790047Y-114529810D01*
X176983571Y-114529810D01*
X177031952Y-114554000D01*
X177056143Y-114578190D01*
X177080333Y-114626571D01*
X177080333Y-114699143D01*
X177056143Y-114747524D01*
X177031952Y-114771714D01*
X176983571Y-114795905D01*
X176790047Y-114795905D01*
X177249666Y-114529810D02*
X177564143Y-114529810D01*
X177394809Y-114723333D01*
X177467381Y-114723333D01*
X177515762Y-114747524D01*
X177539952Y-114771714D01*
X177564143Y-114820095D01*
X177564143Y-114941048D01*
X177539952Y-114989429D01*
X177515762Y-115013619D01*
X177467381Y-115037810D01*
X177322238Y-115037810D01*
X177273857Y-115013619D01*
X177249666Y-114989429D01*
X174981810Y-106002667D02*
X174739905Y-106172000D01*
X174981810Y-106292953D02*
X174473810Y-106292953D01*
X174473810Y-106099429D01*
X174498000Y-106051048D01*
X174522190Y-106026857D01*
X174570571Y-106002667D01*
X174643143Y-106002667D01*
X174691524Y-106026857D01*
X174715714Y-106051048D01*
X174739905Y-106099429D01*
X174739905Y-106292953D01*
X174643143Y-105567238D02*
X174981810Y-105567238D01*
X174449619Y-105688191D02*
X174812476Y-105809143D01*
X174812476Y-105494667D01*
X163152666Y-97003810D02*
X163152666Y-97366667D01*
X163128476Y-97439238D01*
X163080095Y-97487619D01*
X163007523Y-97511810D01*
X162959142Y-97511810D01*
X163660667Y-97511810D02*
X163370381Y-97511810D01*
X163515524Y-97511810D02*
X163515524Y-97003810D01*
X163467143Y-97076381D01*
X163418762Y-97124762D01*
X163370381Y-97148952D01*
X197823666Y-97130810D02*
X197823666Y-97493667D01*
X197799476Y-97566238D01*
X197751095Y-97614619D01*
X197678523Y-97638810D01*
X197630142Y-97638810D01*
X198041381Y-97179190D02*
X198065571Y-97155000D01*
X198113952Y-97130810D01*
X198234905Y-97130810D01*
X198283286Y-97155000D01*
X198307476Y-97179190D01*
X198331667Y-97227571D01*
X198331667Y-97275952D01*
X198307476Y-97348524D01*
X198017190Y-97638810D01*
X198331667Y-97638810D01*
X171492333Y-98606429D02*
X171468143Y-98630619D01*
X171395571Y-98654810D01*
X171347190Y-98654810D01*
X171274619Y-98630619D01*
X171226238Y-98582238D01*
X171202047Y-98533857D01*
X171177857Y-98437095D01*
X171177857Y-98364524D01*
X171202047Y-98267762D01*
X171226238Y-98219381D01*
X171274619Y-98171000D01*
X171347190Y-98146810D01*
X171395571Y-98146810D01*
X171468143Y-98171000D01*
X171492333Y-98195190D01*
X171976143Y-98654810D02*
X171685857Y-98654810D01*
X171831000Y-98654810D02*
X171831000Y-98146810D01*
X171782619Y-98219381D01*
X171734238Y-98267762D01*
X171685857Y-98291952D01*
X188891333Y-113811429D02*
X188867143Y-113835619D01*
X188794571Y-113859810D01*
X188746190Y-113859810D01*
X188673619Y-113835619D01*
X188625238Y-113787238D01*
X188601047Y-113738857D01*
X188576857Y-113642095D01*
X188576857Y-113569524D01*
X188601047Y-113472762D01*
X188625238Y-113424381D01*
X188673619Y-113376000D01*
X188746190Y-113351810D01*
X188794571Y-113351810D01*
X188867143Y-113376000D01*
X188891333Y-113400190D01*
X189084857Y-113400190D02*
X189109047Y-113376000D01*
X189157428Y-113351810D01*
X189278381Y-113351810D01*
X189326762Y-113376000D01*
X189350952Y-113400190D01*
X189375143Y-113448571D01*
X189375143Y-113496952D01*
X189350952Y-113569524D01*
X189060666Y-113859810D01*
X189375143Y-113859810D01*
X181017333Y-104242810D02*
X180775428Y-104242810D01*
X180775428Y-103734810D01*
X181452762Y-104242810D02*
X181162476Y-104242810D01*
X181307619Y-104242810D02*
X181307619Y-103734810D01*
X181259238Y-103807381D01*
X181210857Y-103855762D01*
X181162476Y-103879952D01*
X163086143Y-115799810D02*
X163376429Y-115799810D01*
X163231286Y-116307810D02*
X163231286Y-115799810D01*
X163545762Y-115969143D02*
X163545762Y-116477143D01*
X163545762Y-115993333D02*
X163594143Y-115969143D01*
X163690905Y-115969143D01*
X163739286Y-115993333D01*
X163763477Y-116017524D01*
X163787667Y-116065905D01*
X163787667Y-116211048D01*
X163763477Y-116259429D01*
X163739286Y-116283619D01*
X163690905Y-116307810D01*
X163594143Y-116307810D01*
X163545762Y-116283619D01*
X164271477Y-116307810D02*
X163981191Y-116307810D01*
X164126334Y-116307810D02*
X164126334Y-115799810D01*
X164077953Y-115872381D01*
X164029572Y-115920762D01*
X163981191Y-115944952D01*
X197122143Y-115799810D02*
X197412429Y-115799810D01*
X197267286Y-116307810D02*
X197267286Y-115799810D01*
X197581762Y-115969143D02*
X197581762Y-116477143D01*
X197581762Y-115993333D02*
X197630143Y-115969143D01*
X197726905Y-115969143D01*
X197775286Y-115993333D01*
X197799477Y-116017524D01*
X197823667Y-116065905D01*
X197823667Y-116211048D01*
X197799477Y-116259429D01*
X197775286Y-116283619D01*
X197726905Y-116307810D01*
X197630143Y-116307810D01*
X197581762Y-116283619D01*
X198017191Y-115848190D02*
X198041381Y-115824000D01*
X198089762Y-115799810D01*
X198210715Y-115799810D01*
X198259096Y-115824000D01*
X198283286Y-115848190D01*
X198307477Y-115896571D01*
X198307477Y-115944952D01*
X198283286Y-116017524D01*
X197993000Y-116307810D01*
X198307477Y-116307810D01*
X162832143Y-104496810D02*
X163122429Y-104496810D01*
X162977286Y-105004810D02*
X162977286Y-104496810D01*
X163291762Y-104666143D02*
X163291762Y-105174143D01*
X163291762Y-104690333D02*
X163340143Y-104666143D01*
X163436905Y-104666143D01*
X163485286Y-104690333D01*
X163509477Y-104714524D01*
X163533667Y-104762905D01*
X163533667Y-104908048D01*
X163509477Y-104956429D01*
X163485286Y-104980619D01*
X163436905Y-105004810D01*
X163340143Y-105004810D01*
X163291762Y-104980619D01*
X163703000Y-104496810D02*
X164017477Y-104496810D01*
X163848143Y-104690333D01*
X163920715Y-104690333D01*
X163969096Y-104714524D01*
X163993286Y-104738714D01*
X164017477Y-104787095D01*
X164017477Y-104908048D01*
X163993286Y-104956429D01*
X163969096Y-104980619D01*
X163920715Y-105004810D01*
X163775572Y-105004810D01*
X163727191Y-104980619D01*
X163703000Y-104956429D01*
X197122143Y-104369810D02*
X197412429Y-104369810D01*
X197267286Y-104877810D02*
X197267286Y-104369810D01*
X197581762Y-104539143D02*
X197581762Y-105047143D01*
X197581762Y-104563333D02*
X197630143Y-104539143D01*
X197726905Y-104539143D01*
X197775286Y-104563333D01*
X197799477Y-104587524D01*
X197823667Y-104635905D01*
X197823667Y-104781048D01*
X197799477Y-104829429D01*
X197775286Y-104853619D01*
X197726905Y-104877810D01*
X197630143Y-104877810D01*
X197581762Y-104853619D01*
X198259096Y-104539143D02*
X198259096Y-104877810D01*
X198138143Y-104345619D02*
X198017191Y-104708476D01*
X198331667Y-104708476D01*
M02*
